<ttFont>
    <TTGlyph name=".notdef" xMin="251" yMin="-555" xMax="1107" yMax="2146">
      <contour>
        <pt x="1107" y="-555" on="1"/>
        <pt x="251" y="-555" on="1"/>
        <pt x="251" y="2146" on="1"/>
        <pt x="1107" y="2146" on="1"/>
      </contour>
      <contour>
        <pt x="454" y="1965" on="1"/>
        <pt x="454" y="1876" on="1"/>
        <pt x="629" y="1876" on="1"/>
        <pt x="629" y="1776" on="1"/>
        <pt x="451" y="1776" on="1"/>
        <pt x="451" y="1687" on="1"/>
        <pt x="899" y="1687" on="1"/>
        <pt x="899" y="1776" on="1"/>
        <pt x="721" y="1776" on="1"/>
        <pt x="721" y="1876" on="1"/>
        <pt x="899" y="1876" on="1"/>
        <pt x="899" y="1965" on="1"/>
      </contour>
      <contour>
        <pt x="451" y="1617" on="1"/>
        <pt x="451" y="1336" on="1"/>
        <pt x="899" y="1336" on="1"/>
        <pt x="899" y="1428" on="1"/>
        <pt x="721" y="1428" on="1"/>
        <pt x="721" y="1617" on="1"/>
      </contour>
      <contour>
        <pt x="629" y="1428" on="1"/>
        <pt x="540" y="1428" on="1"/>
        <pt x="540" y="1525" on="1"/>
        <pt x="629" y="1525" on="1"/>
      </contour>
      <contour>
        <pt x="451" y="1263" on="1"/>
        <pt x="451" y="1174" on="1"/>
        <pt x="629" y="1174" on="1"/>
        <pt x="629" y="1074" on="1"/>
        <pt x="451" y="1074" on="1"/>
        <pt x="451" y="985" on="1"/>
        <pt x="721" y="985" on="1"/>
        <pt x="721" y="1174" on="1"/>
        <pt x="899" y="1174" on="1"/>
        <pt x="899" y="1263" on="1"/>
      </contour>
      <contour>
        <pt x="810" y="1101" on="1"/>
        <pt x="810" y="922" on="1"/>
        <pt x="451" y="922" on="1"/>
        <pt x="451" y="831" on="1"/>
        <pt x="899" y="831" on="1"/>
        <pt x="899" y="1101" on="1"/>
      </contour>
      <contour>
        <pt x="629" y="771" on="1"/>
        <pt x="629" y="620" on="1"/>
        <pt x="721" y="620" on="1"/>
        <pt x="721" y="682" on="1"/>
        <pt x="810" y="682" on="1"/>
        <pt x="810" y="555" on="1"/>
        <pt x="540" y="555" on="1"/>
        <pt x="540" y="771" on="1"/>
        <pt x="451" y="771" on="1"/>
        <pt x="451" y="466" on="1"/>
        <pt x="899" y="466" on="1"/>
        <pt x="899" y="771" on="1"/>
      </contour>
      <contour>
        <pt x="451" y="304" on="1"/>
        <pt x="451" y="-1" on="1"/>
        <pt x="899" y="-1" on="1"/>
        <pt x="899" y="304" on="1"/>
      </contour>
      <contour>
        <pt x="810" y="88" on="1"/>
        <pt x="540" y="88" on="1"/>
        <pt x="540" y="215" on="1"/>
        <pt x="810" y="215" on="1"/>
      </contour>
      <contour>
        <pt x="451" y="-63" on="1"/>
        <pt x="451" y="-153" on="1"/>
        <pt x="640" y="-153" on="1"/>
        <pt x="451" y="-279" on="1"/>
        <pt x="451" y="-369" on="1"/>
        <pt x="899" y="-369" on="1"/>
        <pt x="899" y="-279" on="1"/>
        <pt x="624" y="-279" on="1"/>
        <pt x="813" y="-153" on="1"/>
        <pt x="899" y="-153" on="1"/>
        <pt x="899" y="-63" on="1"/>
      </contour>
    </TTGlyph>
    <TTGlyph name=".ttfautohint" xMin="0" yMin="0" xMax="0" yMax="0">
      <contour>
        <pt x="0" y="0" on="1"/>
      </contour>
    </TTGlyph>
    <TTGlyph name="A" xMin="5" yMin="0" xMax="1380" yMax="1456">
      <contour>
        <pt x="950" y="289" on="1"/>
        <pt x="434" y="289" on="1"/>
        <pt x="339" y="0" on="1"/>
        <pt x="5" y="0" on="1"/>
        <pt x="545" y="1456" on="1"/>
        <pt x="837" y="1456" on="1"/>
        <pt x="1380" y="0" on="1"/>
        <pt x="1045" y="0" on="1"/>
      </contour>
      <contour>
        <pt x="866" y="543" on="1"/>
        <pt x="692" y="1073" on="1"/>
        <pt x="517" y="543" on="1"/>
      </contour>
    </TTGlyph>
    <TTGlyph name="A.smcp" xMin="-4" yMin="0" xMax="1204" yMax="1165">
      <contour>
        <pt x="820" y="216" on="1"/>
        <pt x="378" y="216" on="1"/>
        <pt x="300" y="0" on="1"/>
        <pt x="-4" y="0" on="1"/>
        <pt x="455" y="1165" on="1"/>
        <pt x="741" y="1165" on="1"/>
        <pt x="1204" y="0" on="1"/>
        <pt x="900" y="0" on="1"/>
      </contour>
      <contour>
        <pt x="739" y="434" on="1"/>
        <pt x="596" y="817" on="1"/>
        <pt x="457" y="434" on="1"/>
      </contour>
    </TTGlyph>
    <TTGlyph name="AE" xMin="6" yMin="0" xMax="1862" yMax="1456">
      <contour>
        <pt x="1862" y="247" on="1"/>
        <pt x="1862" y="0" on="1"/>
        <pt x="965" y="0" on="1"/>
        <pt x="951" y="332" on="1"/>
        <pt x="522" y="332" on="1"/>
        <pt x="359" y="0" on="1"/>
        <pt x="6" y="0" on="1"/>
        <pt x="779" y="1456" on="1"/>
        <pt x="1801" y="1456" on="1"/>
        <pt x="1801" y="1209" on="1"/>
        <pt x="1216" y="1209" on="1"/>
        <pt x="1231" y="870" on="1"/>
        <pt x="1720" y="870" on="1"/>
        <pt x="1720" y="623" on="1"/>
        <pt x="1241" y="623" on="1"/>
        <pt x="1257" y="247" on="1"/>
      </contour>
      <contour>
        <pt x="940" y="588" on="1"/>
        <pt x="917" y="1134" on="1"/>
        <pt x="648" y="588" on="1"/>
      </contour>
    </TTGlyph>
    <TTGlyph name="AE.smcp" xMin="-49" yMin="0" xMax="1559" yMax="1165">
      <contour>
        <pt x="1559" y="241" on="1"/>
        <pt x="1559" y="0" on="1"/>
        <pt x="730" y="0" on="1"/>
        <pt x="722" y="216" on="1"/>
        <pt x="377" y="216" on="1"/>
        <pt x="279" y="0" on="1"/>
        <pt x="-49" y="0" on="1"/>
        <pt x="527" y="1165" on="1"/>
        <pt x="1513" y="1165" on="1"/>
        <pt x="1513" y="924" on="1"/>
        <pt x="994" y="924" on="1"/>
        <pt x="1001" y="726" on="1"/>
        <pt x="1452" y="726" on="1"/>
        <pt x="1452" y="484" on="1"/>
        <pt x="1011" y="484" on="1"/>
        <pt x="1020" y="241" on="1"/>
      </contour>
      <contour>
        <pt x="712" y="454" on="1"/>
        <pt x="695" y="914" on="1"/>
        <pt x="485" y="454" on="1"/>
      </contour>
    </TTGlyph>
    <TTGlyph name="Aacute" xMin="5" yMin="0" xMax="1380" yMax="1846">
      <component glyphName=".ttfautohint" x="5" y="0" flags="0x0"/>
      <component glyphName="A" x="0" y="0" flags="0x0"/>
      <component glyphName="acutecomb" x="1229" y="310" flags="0x4"/>
    </TTGlyph>
    <TTGlyph name="Aacute.smcp" xMin="-4" yMin="0" xMax="1204" yMax="1566">
      <component glyphName=".ttfautohint" x="0" y="0" flags="0x0"/>
      <component glyphName="A.smcp" x="0" y="0" flags="0x0"/>
      <component glyphName="acutecomb" x="1137" y="30" flags="0x4"/>
    </TTGlyph>
    <TTGlyph name="Acircumflex" xMin="5" yMin="0" xMax="1380" yMax="1846">
      <component glyphName=".ttfautohint" x="5" y="0" flags="0x0"/>
      <component glyphName="A" x="0" y="0" flags="0x0"/>
      <component glyphName="circumflex" x="188" y="310" flags="0x4"/>
    </TTGlyph>
    <TTGlyph name="Acircumflex.smcp" xMin="-4" yMin="0" xMax="1204" yMax="1566">
      <component glyphName=".ttfautohint" x="0" y="0" flags="0x0"/>
      <component glyphName="A.smcp" x="0" y="0" flags="0x0"/>
      <component glyphName="circumflex" x="96" y="30" flags="0x4"/>
    </TTGlyph>
    <TTGlyph name="Adieresis" xMin="5" yMin="0" xMax="1380" yMax="1805">
      <component glyphName=".ttfautohint" x="5" y="0" flags="0x0"/>
      <component glyphName="A" x="0" y="0" flags="0x0"/>
      <component glyphName="dieresis" x="209" y="310" flags="0x4"/>
    </TTGlyph>
    <TTGlyph name="Adieresis.smcp" xMin="-4" yMin="0" xMax="1204" yMax="1525">
      <component glyphName=".ttfautohint" x="0" y="0" flags="0x0"/>
      <component glyphName="A.smcp" x="0" y="0" flags="0x0"/>
      <component glyphName="dieresis" x="117" y="30" flags="0x4"/>
    </TTGlyph>
    <TTGlyph name="Agrave" xMin="5" yMin="0" xMax="1380" yMax="1846">
      <component glyphName=".ttfautohint" x="5" y="0" flags="0x0"/>
      <component glyphName="A" x="0" y="0" flags="0x0"/>
      <component glyphName="gravecomb" x="1237" y="310" flags="0x4"/>
    </TTGlyph>
    <TTGlyph name="Agrave.smcp" xMin="-4" yMin="0" xMax="1204" yMax="1566">
      <component glyphName=".ttfautohint" x="0" y="0" flags="0x0"/>
      <component glyphName="A.smcp" x="0" y="0" flags="0x0"/>
      <component glyphName="gravecomb" x="1145" y="30" flags="0x4"/>
    </TTGlyph>
    <TTGlyph name="Aring" xMin="5" yMin="0" xMax="1380" yMax="1934">
      <component glyphName=".ttfautohint" x="5" y="0" flags="0x0"/>
      <component glyphName="A" x="0" y="0" flags="0x0"/>
      <component glyphName="ring" x="353" y="416" flags="0x4"/>
    </TTGlyph>
    <TTGlyph name="Aring.smcp" xMin="-4" yMin="0" xMax="1204" yMax="1654">
      <component glyphName=".ttfautohint" x="0" y="0" flags="0x0"/>
      <component glyphName="A.smcp" x="0" y="0" flags="0x0"/>
      <component glyphName="ring" x="261" y="136" flags="0x4"/>
    </TTGlyph>
    <TTGlyph name="Atilde" xMin="5" yMin="0" xMax="1380" yMax="1845">
      <component glyphName=".ttfautohint" x="5" y="0" flags="0x0"/>
      <component glyphName="A" x="0" y="0" flags="0x0"/>
      <component glyphName="tilde" x="199" y="306" flags="0x4"/>
    </TTGlyph>
    <TTGlyph name="Atilde.smcp" xMin="-4" yMin="0" xMax="1204" yMax="1565">
      <component glyphName=".ttfautohint" x="0" y="0" flags="0x0"/>
      <component glyphName="A.smcp" x="0" y="0" flags="0x0"/>
      <component glyphName="tilde" x="107" y="26" flags="0x4"/>
    </TTGlyph>
    <TTGlyph name="B" xMin="125" yMin="0" xMax="1219" yMax="1456">
      <contour>
        <pt x="1101" y="718" on="0"/>
        <pt x="1219" y="543" on="0"/>
        <pt x="1219" y="430" on="1"/>
        <pt x="1219" y="218" on="0"/>
        <pt x="947" y="0" on="0"/>
        <pt x="688" y="0" on="1"/>
        <pt x="125" y="0" on="1"/>
        <pt x="125" y="1456" on="1"/>
        <pt x="639" y="1456" on="1"/>
        <pt x="902" y="1456" on="0"/>
        <pt x="1187" y="1256" on="0"/>
        <pt x="1187" y="1056" on="1"/>
        <pt x="1187" y="952" on="0"/>
        <pt x="1084" y="788" on="0"/>
        <pt x="980" y="748" on="1"/>
      </contour>
      <contour>
        <pt x="439" y="1202" on="1"/>
        <pt x="439" y="848" on="1"/>
        <pt x="639" y="848" on="1"/>
        <pt x="758" y="848" on="0"/>
        <pt x="873" y="935" on="0"/>
        <pt x="873" y="1021" on="1"/>
        <pt x="873" y="1117" on="0"/>
        <pt x="762" y="1202" on="0"/>
        <pt x="639" y="1202" on="1"/>
      </contour>
      <contour>
        <pt x="796" y="253" on="0"/>
        <pt x="906" y="352" on="0"/>
        <pt x="906" y="433" on="1"/>
        <pt x="906" y="629" on="0"/>
        <pt x="701" y="629" on="1"/>
        <pt x="439" y="629" on="1"/>
        <pt x="439" y="253" on="1"/>
        <pt x="688" y="253" on="1"/>
      </contour>
    </TTGlyph>
    <TTGlyph name="B.smcp" xMin="95" yMin="0" xMax="1065" yMax="1165">
      <contour>
        <pt x="967" y="564" on="0"/>
        <pt x="1065" y="420" on="0"/>
        <pt x="1065" y="334" on="1"/>
        <pt x="1065" y="162" on="0"/>
        <pt x="830" y="0" on="0"/>
        <pt x="594" y="0" on="1"/>
        <pt x="95" y="0" on="1"/>
        <pt x="95" y="1165" on="1"/>
        <pt x="549" y="1165" on="1"/>
        <pt x="784" y="1165" on="0"/>
        <pt x="1040" y="1003" on="0"/>
        <pt x="1040" y="843" on="1"/>
        <pt x="1040" y="758" on="0"/>
        <pt x="955" y="622" on="0"/>
        <pt x="865" y="589" on="1"/>
      </contour>
      <contour>
        <pt x="398" y="922" on="1"/>
        <pt x="398" y="682" on="1"/>
        <pt x="569" y="682" on="1"/>
        <pt x="655" y="682" on="0"/>
        <pt x="737" y="739" on="0"/>
        <pt x="737" y="798" on="1"/>
        <pt x="737" y="864" on="0"/>
        <pt x="657" y="922" on="0"/>
        <pt x="574" y="922" on="1"/>
      </contour>
      <contour>
        <pt x="679" y="243" on="0"/>
        <pt x="764" y="309" on="0"/>
        <pt x="764" y="357" on="1"/>
        <pt x="764" y="417" on="0"/>
        <pt x="690" y="480" on="0"/>
        <pt x="607" y="480" on="1"/>
        <pt x="398" y="480" on="1"/>
        <pt x="398" y="243" on="1"/>
        <pt x="594" y="243" on="1"/>
      </contour>
    </TTGlyph>
    <TTGlyph name="C" xMin="82" yMin="-20" xMax="1279" yMax="1477">
      <contour>
        <pt x="1268" y="338" on="0"/>
        <pt x="1123" y="108" on="0"/>
        <pt x="863" y="-20" on="0"/>
        <pt x="688" y="-20" on="1"/>
        <pt x="501" y="-20" on="0"/>
        <pt x="227" y="151" on="0"/>
        <pt x="82" y="468" on="0"/>
        <pt x="82" y="683" on="1"/>
        <pt x="82" y="772" on="1"/>
        <pt x="82" y="986" on="0"/>
        <pt x="232" y="1305" on="0"/>
        <pt x="506" y="1477" on="0"/>
        <pt x="689" y="1477" on="1"/>
        <pt x="868" y="1477" on="0"/>
        <pt x="1124" y="1345" on="0"/>
        <pt x="1265" y="1112" on="0"/>
        <pt x="1279" y="959" on="1"/>
        <pt x="966" y="959" on="1"/>
        <pt x="957" y="1091" on="0"/>
        <pt x="830" y="1220" on="0"/>
        <pt x="689" y="1220" on="1"/>
        <pt x="542" y="1220" on="0"/>
        <pt x="400" y="1004" on="0"/>
        <pt x="400" y="774" on="1"/>
        <pt x="400" y="683" on="1"/>
        <pt x="400" y="528" on="0"/>
        <pt x="458" y="333" on="0"/>
        <pt x="584" y="237" on="0"/>
        <pt x="688" y="237" on="1"/>
        <pt x="823" y="237" on="0"/>
        <pt x="956" y="360" on="0"/>
        <pt x="965" y="488" on="1"/>
        <pt x="1278" y="488" on="1"/>
      </contour>
    </TTGlyph>
    <TTGlyph name="C.smcp" xMin="60" yMin="-16" xMax="1111" yMax="1182">
      <contour>
        <pt x="1103" y="276" on="0"/>
        <pt x="973" y="87" on="0"/>
        <pt x="744" y="-16" on="0"/>
        <pt x="591" y="-16" on="1"/>
        <pt x="425" y="-16" on="0"/>
        <pt x="186" y="122" on="0"/>
        <pt x="60" y="380" on="0"/>
        <pt x="60" y="558" on="1"/>
        <pt x="60" y="606" on="1"/>
        <pt x="60" y="783" on="0"/>
        <pt x="190" y="1043" on="0"/>
        <pt x="429" y="1182" on="0"/>
        <pt x="587" y="1182" on="1"/>
        <pt x="746" y="1182" on="0"/>
        <pt x="973" y="1072" on="0"/>
        <pt x="1099" y="879" on="0"/>
        <pt x="1111" y="754" on="1"/>
        <pt x="809" y="754" on="1"/>
        <pt x="806" y="836" on="0"/>
        <pt x="699" y="939" on="0"/>
        <pt x="587" y="939" on="1"/>
        <pt x="474" y="939" on="0"/>
        <pt x="362" y="776" on="0"/>
        <pt x="362" y="607" on="1"/>
        <pt x="362" y="558" on="1"/>
        <pt x="362" y="440" on="0"/>
        <pt x="408" y="295" on="0"/>
        <pt x="508" y="227" on="0"/>
        <pt x="591" y="227" on="1"/>
        <pt x="696" y="227" on="0"/>
        <pt x="804" y="312" on="0"/>
        <pt x="807" y="402" on="1"/>
        <pt x="1109" y="402" on="1"/>
      </contour>
    </TTGlyph>
    <TTGlyph name="C.ss06" xMin="83" yMin="-21" xMax="1319" yMax="1477">
      <contour>
        <pt x="1294" y="243" on="0"/>
        <pt x="989" y="-21" on="0"/>
        <pt x="721" y="-21" on="1"/>
        <pt x="532" y="-21" on="0"/>
        <pt x="243" y="155" on="0"/>
        <pt x="83" y="484" on="0"/>
        <pt x="83" y="705" on="1"/>
        <pt x="83" y="751" on="1"/>
        <pt x="83" y="971" on="0"/>
        <pt x="246" y="1300" on="0"/>
        <pt x="536" y="1477" on="0"/>
        <pt x="720" y="1477" on="1"/>
        <pt x="901" y="1477" on="0"/>
        <pt x="1159" y="1351" on="0"/>
        <pt x="1304" y="1118" on="0"/>
        <pt x="1319" y="959" on="1"/>
        <pt x="1005" y="959" on="1"/>
        <pt x="993" y="1048" on="0"/>
        <pt x="933" y="1163" on="0"/>
        <pt x="815" y="1223" on="0"/>
        <pt x="720" y="1223" on="1"/>
        <pt x="623" y="1223" on="0"/>
        <pt x="477" y="1111" on="0"/>
        <pt x="397" y="899" on="0"/>
        <pt x="397" y="753" on="1"/>
        <pt x="397" y="705" on="1"/>
        <pt x="397" y="557" on="0"/>
        <pt x="473" y="344" on="0"/>
        <pt x="618" y="232" on="0"/>
        <pt x="721" y="232" on="1"/>
        <pt x="852" y="232" on="0"/>
        <pt x="987" y="363" on="0"/>
        <pt x="1003" y="488" on="1"/>
        <pt x="1316" y="488" on="1"/>
      </contour>
    </TTGlyph>
    <TTGlyph name="Ccedilla" xMin="82" yMin="-468" xMax="1279" yMax="1477">
      <component glyphName=".ttfautohint" x="82" y="0" flags="0x0"/>
      <component glyphName="C" x="0" y="0" flags="0x0"/>
      <component glyphName="cedilla" x="450" y="-2" flags="0x4"/>
    </TTGlyph>
    <TTGlyph name="Ccedilla.smcp" xMin="60" yMin="-462" xMax="1111" yMax="1182">
      <component glyphName=".ttfautohint" x="60" y="0" flags="0x0"/>
      <component glyphName="C.smcp" x="0" y="0" flags="0x0"/>
      <component glyphName="cedilla" x="356" y="4" flags="0x4"/>
    </TTGlyph>
    <TTGlyph name="D" xMin="125" yMin="0" xMax="1247" yMax="1456">
      <contour>
        <pt x="774" y="1456" on="0"/>
        <pt x="1077" y="1281" on="0"/>
        <pt x="1247" y="964" on="0"/>
        <pt x="1247" y="760" on="1"/>
        <pt x="1247" y="696" on="1"/>
        <pt x="1247" y="491" on="0"/>
        <pt x="1077" y="175" on="0"/>
        <pt x="773" y="0" on="0"/>
        <pt x="577" y="0" on="1"/>
        <pt x="125" y="0" on="1"/>
        <pt x="125" y="1456" on="1"/>
        <pt x="579" y="1456" on="1"/>
      </contour>
      <contour>
        <pt x="928" y="762" on="1"/>
        <pt x="928" y="978" on="0"/>
        <pt x="750" y="1202" on="0"/>
        <pt x="579" y="1202" on="1"/>
        <pt x="439" y="1202" on="1"/>
        <pt x="439" y="253" on="1"/>
        <pt x="577" y="253" on="1"/>
        <pt x="748" y="253" on="0"/>
        <pt x="928" y="480" on="0"/>
        <pt x="928" y="696" on="1"/>
      </contour>
    </TTGlyph>
    <TTGlyph name="D.smcp" xMin="95" yMin="0" xMax="1079" yMax="1165">
      <contour>
        <pt x="666" y="1165" on="0"/>
        <pt x="930" y="1021" on="0"/>
        <pt x="1079" y="766" on="0"/>
        <pt x="1079" y="604" on="1"/>
        <pt x="1079" y="561" on="1"/>
        <pt x="1079" y="400" on="0"/>
        <pt x="931" y="144" on="0"/>
        <pt x="667" y="0" on="0"/>
        <pt x="502" y="0" on="1"/>
        <pt x="95" y="0" on="1"/>
        <pt x="95" y="1165" on="1"/>
        <pt x="498" y="1165" on="1"/>
      </contour>
      <contour>
        <pt x="776" y="606" on="1"/>
        <pt x="776" y="768" on="0"/>
        <pt x="648" y="922" on="0"/>
        <pt x="498" y="922" on="1"/>
        <pt x="398" y="922" on="1"/>
        <pt x="398" y="243" on="1"/>
        <pt x="502" y="243" on="1"/>
        <pt x="602" y="243" on="0"/>
        <pt x="722" y="311" on="0"/>
        <pt x="776" y="450" on="0"/>
        <pt x="776" y="561" on="1"/>
      </contour>
    </TTGlyph>
    <TTGlyph name="D.ss06" xMin="126" yMin="0" xMax="1305" yMax="1456">
      <contour>
        <pt x="796" y="1456" on="0"/>
        <pt x="1125" y="1272" on="0"/>
        <pt x="1305" y="950" on="0"/>
        <pt x="1305" y="749" on="1"/>
        <pt x="1305" y="706" on="1"/>
        <pt x="1305" y="505" on="0"/>
        <pt x="1125" y="183" on="0"/>
        <pt x="795" y="0" on="0"/>
        <pt x="580" y="0" on="1"/>
        <pt x="126" y="0" on="1"/>
        <pt x="126" y="1456" on="1"/>
        <pt x="582" y="1456" on="1"/>
      </contour>
      <contour>
        <pt x="991" y="751" on="1"/>
        <pt x="991" y="882" on="0"/>
        <pt x="901" y="1085" on="0"/>
        <pt x="709" y="1202" on="0"/>
        <pt x="563" y="1202" on="1"/>
        <pt x="440" y="1202" on="1"/>
        <pt x="440" y="253" on="1"/>
        <pt x="562" y="253" on="1"/>
        <pt x="708" y="253" on="0"/>
        <pt x="901" y="372" on="0"/>
        <pt x="991" y="575" on="0"/>
        <pt x="991" y="706" on="1"/>
      </contour>
    </TTGlyph>
    <TTGlyph name="E" xMin="125" yMin="0" xMax="1108" yMax="1456">
      <contour>
        <pt x="1108" y="253" on="1"/>
        <pt x="1108" y="0" on="1"/>
        <pt x="125" y="0" on="1"/>
        <pt x="125" y="1456" on="1"/>
        <pt x="1107" y="1456" on="1"/>
        <pt x="1107" y="1202" on="1"/>
        <pt x="439" y="1202" on="1"/>
        <pt x="439" y="871" on="1"/>
        <pt x="1008" y="871" on="1"/>
        <pt x="1008" y="626" on="1"/>
        <pt x="439" y="626" on="1"/>
        <pt x="439" y="253" on="1"/>
      </contour>
    </TTGlyph>
    <TTGlyph name="E.smcp" xMin="95" yMin="0" xMax="960" yMax="1165">
      <contour>
        <pt x="398" y="922" on="1"/>
        <pt x="398" y="724" on="1"/>
        <pt x="872" y="724" on="1"/>
        <pt x="872" y="480" on="1"/>
        <pt x="398" y="480" on="1"/>
        <pt x="398" y="243" on="1"/>
        <pt x="957" y="243" on="1"/>
        <pt x="957" y="0" on="1"/>
        <pt x="95" y="0" on="1"/>
        <pt x="95" y="1165" on="1"/>
        <pt x="960" y="1165" on="1"/>
        <pt x="960" y="922" on="1"/>
      </contour>
    </TTGlyph>
    <TTGlyph name="Eacute" xMin="125" yMin="0" xMax="1108" yMax="1848">
      <component glyphName=".ttfautohint" x="125" y="0" flags="0x0"/>
      <component glyphName="E" x="0" y="0" flags="0x0"/>
      <component glyphName="acutecomb" x="1172" y="312" flags="0x4"/>
    </TTGlyph>
    <TTGlyph name="Eacute.smcp" xMin="95" yMin="0" xMax="960" yMax="1566">
      <component glyphName=".ttfautohint" x="95" y="0" flags="0x0"/>
      <component glyphName="E.smcp" x="0" y="0" flags="0x0"/>
      <component glyphName="acutecomb" x="1090" y="30" flags="0x4"/>
    </TTGlyph>
    <TTGlyph name="Ecircumflex" xMin="125" yMin="0" xMax="1108" yMax="1848">
      <component glyphName=".ttfautohint" x="125" y="0" flags="0x0"/>
      <component glyphName="E" x="0" y="0" flags="0x0"/>
      <component glyphName="circumflex" x="131" y="312" flags="0x4"/>
    </TTGlyph>
    <TTGlyph name="Ecircumflex.smcp" xMin="95" yMin="0" xMax="960" yMax="1566">
      <component glyphName=".ttfautohint" x="95" y="0" flags="0x0"/>
      <component glyphName="E.smcp" x="0" y="0" flags="0x0"/>
      <component glyphName="circumflex" x="49" y="30" flags="0x4"/>
    </TTGlyph>
    <TTGlyph name="Edieresis" xMin="125" yMin="0" xMax="1108" yMax="1807">
      <component glyphName=".ttfautohint" x="125" y="0" flags="0x0"/>
      <component glyphName="E" x="0" y="0" flags="0x0"/>
      <component glyphName="dieresis" x="152" y="312" flags="0x4"/>
    </TTGlyph>
    <TTGlyph name="Edieresis.smcp" xMin="95" yMin="0" xMax="960" yMax="1525">
      <component glyphName=".ttfautohint" x="95" y="0" flags="0x0"/>
      <component glyphName="E.smcp" x="0" y="0" flags="0x0"/>
      <component glyphName="dieresis" x="70" y="30" flags="0x4"/>
    </TTGlyph>
    <TTGlyph name="Egrave" xMin="125" yMin="0" xMax="1108" yMax="1848">
      <component glyphName=".ttfautohint" x="125" y="0" flags="0x0"/>
      <component glyphName="E" x="0" y="0" flags="0x0"/>
      <component glyphName="gravecomb" x="1180" y="312" flags="0x4"/>
    </TTGlyph>
    <TTGlyph name="Egrave.smcp" xMin="95" yMin="0" xMax="960" yMax="1566">
      <component glyphName=".ttfautohint" x="95" y="0" flags="0x0"/>
      <component glyphName="E.smcp" x="0" y="0" flags="0x0"/>
      <component glyphName="gravecomb" x="1098" y="30" flags="0x4"/>
    </TTGlyph>
    <TTGlyph name="Eth" xMin="-22" yMin="0" xMax="1247" yMax="1456">
      <component glyphName=".ttfautohint" x="0" y="0" flags="0x0"/>
      <component glyphName="D" x="0" y="0" flags="0x0"/>
      <component glyphName="crossbar" x="-162" y="-11" flags="0x4"/>
    </TTGlyph>
    <TTGlyph name="Eth.smcp" xMin="-115" yMin="0" xMax="1079" yMax="1165">
      <component glyphName=".ttfautohint" x="0" y="0" flags="0x0"/>
      <component glyphName="D.smcp" x="0" y="0" flags="0x0"/>
      <component glyphName="crossbar" x="-255" y="-163" flags="0x4"/>
    </TTGlyph>
    <TTGlyph name="Euro" xMin="89" yMin="-19" xMax="1098" yMax="1475">
      <contour>
        <pt x="979" y="233" on="0"/>
        <pt x="1060" y="263" on="1"/>
        <pt x="1098" y="11" on="1"/>
        <pt x="972" y="-19" on="0"/>
        <pt x="840" y="-19" on="1"/>
        <pt x="672" y="-19" on="0"/>
        <pt x="412" y="102" on="0"/>
        <pt x="261" y="341" on="0"/>
        <pt x="256" y="513" on="1"/>
        <pt x="89" y="513" on="1"/>
        <pt x="89" y="668" on="1"/>
        <pt x="256" y="668" on="1"/>
        <pt x="256" y="792" on="1"/>
        <pt x="89" y="792" on="1"/>
        <pt x="89" y="946" on="1"/>
        <pt x="258" y="946" on="1"/>
        <pt x="270" y="1117" on="0"/>
        <pt x="428" y="1354" on="0"/>
        <pt x="692" y="1475" on="0"/>
        <pt x="863" y="1475" on="1"/>
        <pt x="972" y="1475" on="0"/>
        <pt x="1098" y="1444" on="1"/>
        <pt x="1060" y="1191" on="1"/>
        <pt x="1019" y="1205" on="0"/>
        <pt x="924" y="1223" on="0"/>
        <pt x="880" y="1223" on="1"/>
        <pt x="742" y="1223" on="0"/>
        <pt x="587" y="1090" on="0"/>
        <pt x="574" y="946" on="1"/>
        <pt x="900" y="946" on="1"/>
        <pt x="900" y="792" on="1"/>
        <pt x="571" y="792" on="1"/>
        <pt x="571" y="668" on="1"/>
        <pt x="900" y="668" on="1"/>
        <pt x="900" y="513" on="1"/>
        <pt x="571" y="513" on="1"/>
        <pt x="577" y="359" on="0"/>
        <pt x="731" y="233" on="0"/>
        <pt x="873" y="233" on="1"/>
      </contour>
    </TTGlyph>
    <TTGlyph name="Euro.smcp" xMin="72" yMin="-16" xMax="960" yMax="1184">
      <contour>
        <pt x="787" y="227" on="0"/>
        <pt x="862" y="239" on="0"/>
        <pt x="936" y="254" on="1"/>
        <pt x="958" y="15" on="1"/>
        <pt x="898" y="-1" on="0"/>
        <pt x="796" y="-16" on="0"/>
        <pt x="736" y="-16" on="1"/>
        <pt x="595" y="-16" on="0"/>
        <pt x="379" y="76" on="0"/>
        <pt x="244" y="249" on="0"/>
        <pt x="224" y="368" on="1"/>
        <pt x="72" y="368" on="1"/>
        <pt x="72" y="542" on="1"/>
        <pt x="215" y="542" on="1"/>
        <pt x="215" y="614" on="1"/>
        <pt x="72" y="614" on="1"/>
        <pt x="72" y="789" on="1"/>
        <pt x="225" y="789" on="1"/>
        <pt x="246" y="913" on="0"/>
        <pt x="380" y="1090" on="0"/>
        <pt x="594" y="1184" on="0"/>
        <pt x="734" y="1184" on="1"/>
        <pt x="796" y="1184" on="0"/>
        <pt x="898" y="1169" on="0"/>
        <pt x="960" y="1151" on="1"/>
        <pt x="938" y="912" on="1"/>
        <pt x="883" y="928" on="0"/>
        <pt x="793" y="941" on="0"/>
        <pt x="734" y="941" on="1"/>
        <pt x="650" y="941" on="0"/>
        <pt x="550" y="864" on="0"/>
        <pt x="531" y="789" on="1"/>
        <pt x="877" y="789" on="1"/>
        <pt x="877" y="614" on="1"/>
        <pt x="518" y="614" on="1"/>
        <pt x="518" y="542" on="1"/>
        <pt x="877" y="542" on="1"/>
        <pt x="877" y="368" on="1"/>
        <pt x="530" y="368" on="1"/>
        <pt x="549" y="297" on="0"/>
        <pt x="650" y="227" on="0"/>
        <pt x="736" y="227" on="1"/>
      </contour>
    </TTGlyph>
    <TTGlyph name="F" xMin="125" yMin="0" xMax="1081" yMax="1456">
      <contour>
        <pt x="439" y="1202" on="1"/>
        <pt x="439" y="842" on="1"/>
        <pt x="1012" y="842" on="1"/>
        <pt x="1012" y="590" on="1"/>
        <pt x="439" y="590" on="1"/>
        <pt x="439" y="0" on="1"/>
        <pt x="125" y="0" on="1"/>
        <pt x="125" y="1456" on="1"/>
        <pt x="1081" y="1456" on="1"/>
        <pt x="1081" y="1202" on="1"/>
      </contour>
    </TTGlyph>
    <TTGlyph name="F.smcp" xMin="95" yMin="0" xMax="934" yMax="1165">
      <contour>
        <pt x="398" y="922" on="1"/>
        <pt x="398" y="693" on="1"/>
        <pt x="884" y="693" on="1"/>
        <pt x="884" y="449" on="1"/>
        <pt x="398" y="449" on="1"/>
        <pt x="398" y="0" on="1"/>
        <pt x="95" y="0" on="1"/>
        <pt x="95" y="1165" on="1"/>
        <pt x="934" y="1165" on="1"/>
        <pt x="934" y="922" on="1"/>
      </contour>
    </TTGlyph>
    <TTGlyph name="G" xMin="91" yMin="-20" xMax="1288" yMax="1477">
      <contour>
        <pt x="1247" y="135" on="0"/>
        <pt x="1101" y="43" on="0"/>
        <pt x="873" y="-20" on="0"/>
        <pt x="725" y="-20" on="1"/>
        <pt x="535" y="-20" on="0"/>
        <pt x="249" y="146" on="0"/>
        <pt x="91" y="463" on="0"/>
        <pt x="91" y="685" on="1"/>
        <pt x="91" y="770" on="1"/>
        <pt x="91" y="992" on="0"/>
        <pt x="244" y="1310" on="0"/>
        <pt x="521" y="1477" on="0"/>
        <pt x="705" y="1477" on="1"/>
        <pt x="980" y="1477" on="0"/>
        <pt x="1262" y="1217" on="0"/>
        <pt x="1287" y="989" on="1"/>
        <pt x="983" y="989" on="1"/>
        <pt x="966" y="1104" on="0"/>
        <pt x="840" y="1224" on="0"/>
        <pt x="714" y="1224" on="1"/>
        <pt x="566" y="1224" on="0"/>
        <pt x="409" y="994" on="0"/>
        <pt x="409" y="772" on="1"/>
        <pt x="409" y="685" on="1"/>
        <pt x="409" y="461" on="0"/>
        <pt x="578" y="233" on="0"/>
        <pt x="744" y="233" on="1"/>
        <pt x="904" y="233" on="0"/>
        <pt x="974" y="301" on="1"/>
        <pt x="974" y="542" on="1"/>
        <pt x="709" y="542" on="1"/>
        <pt x="709" y="770" on="1"/>
        <pt x="1288" y="770" on="1"/>
        <pt x="1288" y="183" on="1"/>
      </contour>
    </TTGlyph>
    <TTGlyph name="G.smcp" xMin="71" yMin="-16" xMax="1120" yMax="1182">
      <contour>
        <pt x="1083" y="102" on="0"/>
        <pt x="949" y="32" on="0"/>
        <pt x="748" y="-16" on="0"/>
        <pt x="622" y="-16" on="1"/>
        <pt x="455" y="-16" on="0"/>
        <pt x="207" y="117" on="0"/>
        <pt x="71" y="372" on="0"/>
        <pt x="71" y="552" on="1"/>
        <pt x="71" y="612" on="1"/>
        <pt x="71" y="791" on="0"/>
        <pt x="207" y="1048" on="0"/>
        <pt x="449" y="1182" on="0"/>
        <pt x="606" y="1182" on="1"/>
        <pt x="853" y="1182" on="0"/>
        <pt x="1099" y="965" on="0"/>
        <pt x="1119" y="773" on="1"/>
        <pt x="829" y="773" on="1"/>
        <pt x="815" y="859" on="0"/>
        <pt x="717" y="939" on="0"/>
        <pt x="616" y="939" on="1"/>
        <pt x="503" y="939" on="0"/>
        <pt x="373" y="777" on="0"/>
        <pt x="373" y="614" on="1"/>
        <pt x="373" y="552" on="1"/>
        <pt x="373" y="386" on="0"/>
        <pt x="506" y="227" on="0"/>
        <pt x="644" y="227" on="1"/>
        <pt x="708" y="227" on="0"/>
        <pt x="795" y="249" on="0"/>
        <pt x="817" y="264" on="1"/>
        <pt x="817" y="422" on="1"/>
        <pt x="599" y="422" on="1"/>
        <pt x="599" y="635" on="1"/>
        <pt x="1120" y="635" on="1"/>
        <pt x="1120" y="140" on="1"/>
      </contour>
    </TTGlyph>
    <TTGlyph name="G.ss06" xMin="83" yMin="-21" xMax="1319" yMax="1477">
      <contour>
        <pt x="1280" y="135" on="0"/>
        <pt x="1135" y="42" on="0"/>
        <pt x="915" y="-21" on="0"/>
        <pt x="777" y="-21" on="1"/>
        <pt x="577" y="-21" on="0"/>
        <pt x="261" y="160" on="0"/>
        <pt x="83" y="487" on="0"/>
        <pt x="83" y="697" on="1"/>
        <pt x="83" y="749" on="1"/>
        <pt x="83" y="966" on="0"/>
        <pt x="247" y="1296" on="0"/>
        <pt x="541" y="1477" on="0"/>
        <pt x="728" y="1477" on="1"/>
        <pt x="909" y="1477" on="0"/>
        <pt x="1163" y="1355" on="0"/>
        <pt x="1302" y="1136" on="0"/>
        <pt x="1318" y="989" on="1"/>
        <pt x="1013" y="989" on="1"/>
        <pt x="997" y="1101" on="0"/>
        <pt x="859" y="1223" on="0"/>
        <pt x="737" y="1223" on="1"/>
        <pt x="635" y="1223" on="0"/>
        <pt x="481" y="1107" on="0"/>
        <pt x="397" y="893" on="0"/>
        <pt x="397" y="751" on="1"/>
        <pt x="397" y="697" on="1"/>
        <pt x="397" y="560" on="0"/>
        <pt x="490" y="349" on="0"/>
        <pt x="662" y="232" on="0"/>
        <pt x="777" y="232" on="1"/>
        <pt x="864" y="232" on="0"/>
        <pt x="981" y="266" on="0"/>
        <pt x="1004" y="290" on="1"/>
        <pt x="1004" y="527" on="1"/>
        <pt x="759" y="527" on="1"/>
        <pt x="759" y="756" on="1"/>
        <pt x="1319" y="756" on="1"/>
        <pt x="1319" y="182" on="1"/>
      </contour>
    </TTGlyph>
    <TTGlyph name="H" xMin="125" yMin="0" xMax="1319" yMax="1456">
      <contour>
        <pt x="1319" y="1456" on="1"/>
        <pt x="1319" y="0" on="1"/>
        <pt x="1006" y="0" on="1"/>
        <pt x="1006" y="618" on="1"/>
        <pt x="439" y="618" on="1"/>
        <pt x="439" y="0" on="1"/>
        <pt x="125" y="0" on="1"/>
        <pt x="125" y="1456" on="1"/>
        <pt x="439" y="1456" on="1"/>
        <pt x="439" y="871" on="1"/>
        <pt x="1006" y="871" on="1"/>
        <pt x="1006" y="1456" on="1"/>
      </contour>
    </TTGlyph>
    <TTGlyph name="H.smcp" xMin="95" yMin="0" xMax="1142" yMax="1165">
      <contour>
        <pt x="1142" y="1165" on="1"/>
        <pt x="1142" y="0" on="1"/>
        <pt x="841" y="0" on="1"/>
        <pt x="841" y="449" on="1"/>
        <pt x="398" y="449" on="1"/>
        <pt x="398" y="0" on="1"/>
        <pt x="95" y="0" on="1"/>
        <pt x="95" y="1165" on="1"/>
        <pt x="398" y="1165" on="1"/>
        <pt x="398" y="693" on="1"/>
        <pt x="841" y="693" on="1"/>
        <pt x="841" y="1165" on="1"/>
      </contour>
    </TTGlyph>
    <TTGlyph name="I" xMin="145" yMin="0" xMax="458" yMax="1456">
      <contour>
        <pt x="145" y="0" on="1"/>
        <pt x="145" y="1456" on="1"/>
        <pt x="458" y="1456" on="1"/>
        <pt x="458" y="0" on="1"/>
      </contour>
    </TTGlyph>
    <TTGlyph name="I.smcp" xMin="115" yMin="0" xMax="417" yMax="1165">
      <contour>
        <pt x="115" y="0" on="1"/>
        <pt x="115" y="1165" on="1"/>
        <pt x="417" y="1165" on="1"/>
        <pt x="417" y="0" on="1"/>
      </contour>
    </TTGlyph>
    <TTGlyph name="Iacute" xMin="145" yMin="0" xMax="674" yMax="1848">
      <component glyphName=".ttfautohint" x="145" y="0" flags="0x0"/>
      <component glyphName="I" x="0" y="0" flags="0x0"/>
      <component glyphName="acutecomb" x="836" y="312" flags="0x4"/>
    </TTGlyph>
    <TTGlyph name="Iacute.smcp" xMin="115" yMin="0" xMax="640" yMax="1566">
      <component glyphName=".ttfautohint" x="115" y="0" flags="0x0"/>
      <component glyphName="I.smcp" x="0" y="0" flags="0x0"/>
      <component glyphName="acutecomb" x="802" y="30" flags="0x4"/>
    </TTGlyph>
    <TTGlyph name="Icircumflex" xMin="-89" yMin="0" xMax="695" yMax="1848">
      <component glyphName=".ttfautohint" x="0" y="0" flags="0x0"/>
      <component glyphName="I" x="0" y="0" flags="0x0"/>
      <component glyphName="circumflex" x="-206" y="312" flags="0x4"/>
    </TTGlyph>
    <TTGlyph name="Icircumflex.smcp" xMin="-123" yMin="0" xMax="661" yMax="1566">
      <component glyphName=".ttfautohint" x="0" y="0" flags="0x0"/>
      <component glyphName="I.smcp" x="0" y="0" flags="0x0"/>
      <component glyphName="circumflex" x="-240" y="30" flags="0x4"/>
    </TTGlyph>
    <TTGlyph name="Idieresis" xMin="-89" yMin="0" xMax="690" yMax="1807">
      <component glyphName=".ttfautohint" x="0" y="0" flags="0x0"/>
      <component glyphName="I" x="0" y="0" flags="0x0"/>
      <component glyphName="dieresis" x="-184" y="312" flags="0x4"/>
    </TTGlyph>
    <TTGlyph name="Idieresis.smcp" xMin="-123" yMin="0" xMax="656" yMax="1525">
      <component glyphName=".ttfautohint" x="0" y="0" flags="0x0"/>
      <component glyphName="I.smcp" x="0" y="0" flags="0x0"/>
      <component glyphName="dieresis" x="-218" y="30" flags="0x4"/>
    </TTGlyph>
    <TTGlyph name="Igrave" xMin="-56" yMin="0" xMax="468" yMax="1848">
      <component glyphName=".ttfautohint" x="0" y="0" flags="0x0"/>
      <component glyphName="I" x="0" y="0" flags="0x0"/>
      <component glyphName="gravecomb" x="844" y="312" flags="0x4"/>
    </TTGlyph>
    <TTGlyph name="Igrave.smcp" xMin="-90" yMin="0" xMax="434" yMax="1566">
      <component glyphName=".ttfautohint" x="0" y="0" flags="0x0"/>
      <component glyphName="I.smcp" x="0" y="0" flags="0x0"/>
      <component glyphName="gravecomb" x="810" y="30" flags="0x4"/>
    </TTGlyph>
    <TTGlyph name="J" xMin="40" yMin="-20" xMax="1024" yMax="1456">
      <contour>
        <pt x="1024" y="1456" on="1"/>
        <pt x="1024" y="452" on="1"/>
        <pt x="1024" y="309" on="0"/>
        <pt x="896" y="95" on="0"/>
        <pt x="672" y="-20" on="0"/>
        <pt x="532" y="-20" on="1"/>
        <pt x="386" y="-20" on="0"/>
        <pt x="164" y="79" on="0"/>
        <pt x="40" y="283" on="0"/>
        <pt x="40" y="434" on="1"/>
        <pt x="355" y="434" on="1"/>
        <pt x="355" y="324" on="0"/>
        <pt x="445" y="233" on="0"/>
        <pt x="532" y="233" on="1"/>
        <pt x="615" y="233" on="0"/>
        <pt x="711" y="349" on="0"/>
        <pt x="711" y="452" on="1"/>
        <pt x="711" y="1456" on="1"/>
      </contour>
    </TTGlyph>
    <TTGlyph name="J.smcp" xMin="32" yMin="-16" xMax="895" yMax="1165">
      <contour>
        <pt x="895" y="1165" on="1"/>
        <pt x="895" y="402" on="1"/>
        <pt x="895" y="273" on="0"/>
        <pt x="782" y="84" on="0"/>
        <pt x="589" y="-16" on="0"/>
        <pt x="471" y="-16" on="1"/>
        <pt x="266" y="-16" on="0"/>
        <pt x="32" y="181" on="0"/>
        <pt x="32" y="379" on="1"/>
        <pt x="334" y="379" on="1"/>
        <pt x="334" y="301" on="0"/>
        <pt x="401" y="227" on="0"/>
        <pt x="471" y="227" on="1"/>
        <pt x="532" y="227" on="0"/>
        <pt x="592" y="311" on="0"/>
        <pt x="592" y="402" on="1"/>
        <pt x="592" y="1165" on="1"/>
      </contour>
    </TTGlyph>
    <TTGlyph name="K" xMin="125" yMin="0" xMax="1321" yMax="1456">
      <contour>
        <pt x="592" y="572" on="1"/>
        <pt x="439" y="407" on="1"/>
        <pt x="439" y="0" on="1"/>
        <pt x="125" y="0" on="1"/>
        <pt x="125" y="1456" on="1"/>
        <pt x="439" y="1456" on="1"/>
        <pt x="439" y="804" on="1"/>
        <pt x="568" y="986" on="1"/>
        <pt x="924" y="1456" on="1"/>
        <pt x="1310" y="1456" on="1"/>
        <pt x="801" y="810" on="1"/>
        <pt x="1321" y="0" on="1"/>
        <pt x="949" y="0" on="1"/>
      </contour>
    </TTGlyph>
    <TTGlyph name="K.alt" xMin="126" yMin="0" xMax="1342" yMax="1456">
      <contour>
        <pt x="612" y="588" on="1"/>
        <pt x="440" y="588" on="1"/>
        <pt x="440" y="0" on="1"/>
        <pt x="126" y="0" on="1"/>
        <pt x="126" y="1456" on="1"/>
        <pt x="440" y="1456" on="1"/>
        <pt x="440" y="881" on="1"/>
        <pt x="577" y="881" on="1"/>
        <pt x="913" y="1456" on="1"/>
        <pt x="1294" y="1456" on="1"/>
        <pt x="859" y="771" on="1"/>
        <pt x="1342" y="0" on="1"/>
        <pt x="968" y="0" on="1"/>
      </contour>
    </TTGlyph>
    <TTGlyph name="K.alt2" xMin="126" yMin="0" xMax="1312" yMax="1456">
      <contour>
        <pt x="920" y="0" on="1"/>
        <pt x="440" y="637" on="1"/>
        <pt x="440" y="0" on="1"/>
        <pt x="126" y="0" on="1"/>
        <pt x="126" y="1456" on="1"/>
        <pt x="440" y="1456" on="1"/>
        <pt x="440" y="819" on="1"/>
        <pt x="894" y="1456" on="1"/>
        <pt x="1282" y="1456" on="1"/>
        <pt x="741" y="734" on="1"/>
        <pt x="1312" y="0" on="1"/>
      </contour>
    </TTGlyph>
    <TTGlyph name="K.smcp" xMin="95" yMin="0" xMax="1145" yMax="1165">
      <contour>
        <pt x="521" y="424" on="1"/>
        <pt x="398" y="304" on="1"/>
        <pt x="398" y="0" on="1"/>
        <pt x="95" y="0" on="1"/>
        <pt x="95" y="1165" on="1"/>
        <pt x="398" y="1165" on="1"/>
        <pt x="398" y="689" on="1"/>
        <pt x="492" y="818" on="1"/>
        <pt x="759" y="1165" on="1"/>
        <pt x="1137" y="1165" on="1"/>
        <pt x="726" y="642" on="1"/>
        <pt x="1145" y="0" on="1"/>
        <pt x="788" y="0" on="1"/>
      </contour>
    </TTGlyph>
    <TTGlyph name="L" xMin="125" yMin="0" xMax="1069" yMax="1456">
      <contour>
        <pt x="1069" y="253" on="1"/>
        <pt x="1069" y="0" on="1"/>
        <pt x="125" y="0" on="1"/>
        <pt x="125" y="1456" on="1"/>
        <pt x="439" y="1456" on="1"/>
        <pt x="439" y="253" on="1"/>
      </contour>
    </TTGlyph>
    <TTGlyph name="L.smcp" xMin="95" yMin="0" xMax="922" yMax="1165">
      <contour>
        <pt x="922" y="243" on="1"/>
        <pt x="922" y="0" on="1"/>
        <pt x="95" y="0" on="1"/>
        <pt x="95" y="1165" on="1"/>
        <pt x="398" y="1165" on="1"/>
        <pt x="398" y="243" on="1"/>
      </contour>
    </TTGlyph>
    <TTGlyph name="M" xMin="125" yMin="0" xMax="1668" yMax="1456">
      <contour>
        <pt x="1668" y="0" on="1"/>
        <pt x="1353" y="0" on="1"/>
        <pt x="1353" y="376" on="1"/>
        <pt x="1384" y="1071" on="1"/>
        <pt x="1002" y="0" on="1"/>
        <pt x="789" y="0" on="1"/>
        <pt x="408" y="1071" on="1"/>
        <pt x="439" y="376" on="1"/>
        <pt x="439" y="0" on="1"/>
        <pt x="125" y="0" on="1"/>
        <pt x="125" y="1456" on="1"/>
        <pt x="536" y="1456" on="1"/>
        <pt x="896" y="417" on="1"/>
        <pt x="1256" y="1456" on="1"/>
        <pt x="1668" y="1456" on="1"/>
      </contour>
    </TTGlyph>
    <TTGlyph name="M.smcp" xMin="95" yMin="0" xMax="1449" yMax="1165">
      <contour>
        <pt x="1449" y="0" on="1"/>
        <pt x="1145" y="0" on="1"/>
        <pt x="1145" y="215" on="1"/>
        <pt x="1176" y="837" on="1"/>
        <pt x="871" y="0" on="1"/>
        <pt x="671" y="0" on="1"/>
        <pt x="367" y="834" on="1"/>
        <pt x="398" y="215" on="1"/>
        <pt x="398" y="0" on="1"/>
        <pt x="95" y="0" on="1"/>
        <pt x="95" y="1165" on="1"/>
        <pt x="493" y="1165" on="1"/>
        <pt x="771" y="397" on="1"/>
        <pt x="1049" y="1165" on="1"/>
        <pt x="1449" y="1165" on="1"/>
      </contour>
    </TTGlyph>
    <TTGlyph name="N" xMin="125" yMin="0" xMax="1318" yMax="1456">
      <contour>
        <pt x="1005" y="0" on="1"/>
        <pt x="439" y="939" on="1"/>
        <pt x="439" y="0" on="1"/>
        <pt x="125" y="0" on="1"/>
        <pt x="125" y="1456" on="1"/>
        <pt x="439" y="1456" on="1"/>
        <pt x="1005" y="517" on="1"/>
        <pt x="1005" y="1456" on="1"/>
        <pt x="1318" y="1456" on="1"/>
        <pt x="1318" y="0" on="1"/>
      </contour>
    </TTGlyph>
    <TTGlyph name="N.smcp" xMin="95" yMin="0" xMax="1141" yMax="1165">
      <contour>
        <pt x="840" y="0" on="1"/>
        <pt x="398" y="708" on="1"/>
        <pt x="398" y="0" on="1"/>
        <pt x="95" y="0" on="1"/>
        <pt x="95" y="1165" on="1"/>
        <pt x="398" y="1165" on="1"/>
        <pt x="840" y="457" on="1"/>
        <pt x="840" y="1165" on="1"/>
        <pt x="1141" y="1165" on="1"/>
        <pt x="1141" y="0" on="1"/>
      </contour>
    </TTGlyph>
    <TTGlyph name="Ntilde" xMin="125" yMin="0" xMax="1318" yMax="1845">
      <component glyphName=".ttfautohint" x="125" y="0" flags="0x0"/>
      <component glyphName="N" x="0" y="0" flags="0x0"/>
      <component glyphName="tilde" x="231" y="306" flags="0x4"/>
    </TTGlyph>
    <TTGlyph name="Ntilde.smcp" xMin="95" yMin="0" xMax="1141" yMax="1565">
      <component glyphName=".ttfautohint" x="95" y="0" flags="0x0"/>
      <component glyphName="N.smcp" x="0" y="0" flags="0x0"/>
      <component glyphName="tilde" x="129" y="26" flags="0x4"/>
    </TTGlyph>
    <TTGlyph name="O" xMin="82" yMin="-20" xMax="1331" yMax="1476">
      <contour>
        <pt x="1331" y="478" on="0"/>
        <pt x="1174" y="154" on="0"/>
        <pt x="892" y="-20" on="0"/>
        <pt x="708" y="-20" on="1"/>
        <pt x="524" y="-20" on="0"/>
        <pt x="240" y="154" on="0"/>
        <pt x="82" y="478" on="0"/>
        <pt x="82" y="696" on="1"/>
        <pt x="82" y="759" on="1"/>
        <pt x="82" y="977" on="0"/>
        <pt x="240" y="1302" on="0"/>
        <pt x="522" y="1476" on="0"/>
        <pt x="706" y="1476" on="1"/>
        <pt x="890" y="1476" on="0"/>
        <pt x="1173" y="1302" on="0"/>
        <pt x="1331" y="977" on="0"/>
        <pt x="1331" y="759" on="1"/>
        <pt x="1331" y="696" on="1"/>
      </contour>
      <contour>
        <pt x="1013" y="983" on="0"/>
        <pt x="853" y="1218" on="0"/>
        <pt x="706" y="1218" on="1"/>
        <pt x="558" y="1218" on="0"/>
        <pt x="400" y="984" on="0"/>
        <pt x="400" y="761" on="1"/>
        <pt x="400" y="696" on="1"/>
        <pt x="400" y="475" on="0"/>
        <pt x="560" y="237" on="0"/>
        <pt x="708" y="237" on="1"/>
        <pt x="855" y="237" on="0"/>
        <pt x="1013" y="475" on="0"/>
        <pt x="1013" y="696" on="1"/>
        <pt x="1013" y="761" on="1"/>
      </contour>
    </TTGlyph>
    <TTGlyph name="O.smcp" xMin="60" yMin="-16" xMax="1155" yMax="1181">
      <contour>
        <pt x="1155" y="386" on="0"/>
        <pt x="1016" y="125" on="0"/>
        <pt x="769" y="-16" on="0"/>
        <pt x="609" y="-16" on="1"/>
        <pt x="448" y="-16" on="0"/>
        <pt x="199" y="125" on="0"/>
        <pt x="60" y="386" on="0"/>
        <pt x="60" y="561" on="1"/>
        <pt x="60" y="604" on="1"/>
        <pt x="60" y="779" on="0"/>
        <pt x="198" y="1040" on="0"/>
        <pt x="446" y="1181" on="0"/>
        <pt x="607" y="1181" on="1"/>
        <pt x="767" y="1181" on="0"/>
        <pt x="1015" y="1040" on="0"/>
        <pt x="1155" y="778" on="0"/>
        <pt x="1155" y="604" on="1"/>
        <pt x="1155" y="561" on="1"/>
      </contour>
      <contour>
        <pt x="852" y="764" on="0"/>
        <pt x="723" y="940" on="0"/>
        <pt x="607" y="940" on="1"/>
        <pt x="488" y="940" on="0"/>
        <pt x="363" y="766" on="0"/>
        <pt x="363" y="605" on="1"/>
        <pt x="363" y="561" on="1"/>
        <pt x="363" y="402" on="0"/>
        <pt x="491" y="225" on="0"/>
        <pt x="609" y="225" on="1"/>
        <pt x="724" y="225" on="0"/>
        <pt x="852" y="403" on="0"/>
        <pt x="852" y="561" on="1"/>
        <pt x="852" y="605" on="1"/>
      </contour>
    </TTGlyph>
    <TTGlyph name="O.ss06" xMin="83" yMin="-21" xMax="1408" yMax="1477">
      <contour>
        <pt x="1408" y="503" on="0"/>
        <pt x="1240" y="171" on="0"/>
        <pt x="938" y="-21" on="0"/>
        <pt x="746" y="-21" on="1"/>
        <pt x="555" y="-21" on="0"/>
        <pt x="253" y="171" on="0"/>
        <pt x="83" y="504" on="0"/>
        <pt x="83" y="707" on="1"/>
        <pt x="83" y="749" on="1"/>
        <pt x="83" y="952" on="0"/>
        <pt x="252" y="1285" on="0"/>
        <pt x="553" y="1477" on="0"/>
        <pt x="744" y="1477" on="1"/>
        <pt x="936" y="1477" on="0"/>
        <pt x="1239" y="1285" on="0"/>
        <pt x="1408" y="952" on="0"/>
        <pt x="1408" y="749" on="1"/>
        <pt x="1408" y="707" on="1"/>
      </contour>
      <contour>
        <pt x="1095" y="882" on="0"/>
        <pt x="1010" y="1097" on="0"/>
        <pt x="851" y="1223" on="0"/>
        <pt x="744" y="1223" on="1"/>
        <pt x="637" y="1223" on="0"/>
        <pt x="479" y="1097" on="0"/>
        <pt x="396" y="882" on="0"/>
        <pt x="396" y="751" on="1"/>
        <pt x="396" y="707" on="1"/>
        <pt x="396" y="575" on="0"/>
        <pt x="480" y="359" on="0"/>
        <pt x="639" y="232" on="0"/>
        <pt x="746" y="232" on="1"/>
        <pt x="853" y="232" on="0"/>
        <pt x="1011" y="359" on="0"/>
        <pt x="1095" y="575" on="0"/>
        <pt x="1095" y="707" on="1"/>
        <pt x="1095" y="751" on="1"/>
      </contour>
    </TTGlyph>
    <TTGlyph name="OE" xMin="96" yMin="-20" xMax="1887" yMax="1476">
      <contour>
        <pt x="1887" y="253" on="1"/>
        <pt x="1887" y="0" on="1"/>
        <pt x="996" y="0" on="1"/>
        <pt x="818" y="-20" on="0"/>
        <pt x="708" y="-20" on="1"/>
        <pt x="529" y="-20" on="0"/>
        <pt x="250" y="131" on="0"/>
        <pt x="96" y="401" on="0"/>
        <pt x="96" y="576" on="1"/>
        <pt x="96" y="880" on="1"/>
        <pt x="96" y="1055" on="0"/>
        <pt x="249" y="1326" on="0"/>
        <pt x="527" y="1476" on="0"/>
        <pt x="706" y="1476" on="1"/>
        <pt x="834" y="1476" on="0"/>
        <pt x="996" y="1456" on="1"/>
        <pt x="1886" y="1456" on="1"/>
        <pt x="1886" y="1202" on="1"/>
        <pt x="1218" y="1202" on="1"/>
        <pt x="1218" y="871" on="1"/>
        <pt x="1787" y="871" on="1"/>
        <pt x="1787" y="626" on="1"/>
        <pt x="1218" y="626" on="1"/>
        <pt x="1218" y="253" on="1"/>
      </contour>
      <contour>
        <pt x="397" y="403" on="0"/>
        <pt x="562" y="223" on="0"/>
        <pt x="708" y="223" on="1"/>
        <pt x="803" y="223" on="0"/>
        <pt x="904" y="236" on="1"/>
        <pt x="904" y="1220" on="1"/>
        <pt x="803" y="1233" on="0"/>
        <pt x="706" y="1233" on="1"/>
        <pt x="560" y="1233" on="0"/>
        <pt x="397" y="1055" on="0"/>
        <pt x="397" y="882" on="1"/>
        <pt x="397" y="576" on="1"/>
      </contour>
    </TTGlyph>
    <TTGlyph name="Oacute" xMin="82" yMin="-20" xMax="1331" yMax="1846">
      <component glyphName=".ttfautohint" x="82" y="0" flags="0x0"/>
      <component glyphName="O" x="0" y="0" flags="0x0"/>
      <component glyphName="acutecomb" x="1241" y="310" flags="0x4"/>
    </TTGlyph>
    <TTGlyph name="Oacute.smcp" xMin="60" yMin="-16" xMax="1155" yMax="1566">
      <component glyphName=".ttfautohint" x="60" y="0" flags="0x0"/>
      <component glyphName="O.smcp" x="0" y="0" flags="0x0"/>
      <component glyphName="acutecomb" x="1140" y="30" flags="0x4"/>
    </TTGlyph>
    <TTGlyph name="Ocircumflex" xMin="82" yMin="-20" xMax="1331" yMax="1846">
      <component glyphName=".ttfautohint" x="82" y="0" flags="0x0"/>
      <component glyphName="O" x="0" y="0" flags="0x0"/>
      <component glyphName="circumflex" x="200" y="310" flags="0x4"/>
    </TTGlyph>
    <TTGlyph name="Ocircumflex.smcp" xMin="60" yMin="-16" xMax="1155" yMax="1566">
      <component glyphName=".ttfautohint" x="60" y="0" flags="0x0"/>
      <component glyphName="O.smcp" x="0" y="0" flags="0x0"/>
      <component glyphName="circumflex" x="99" y="30" flags="0x4"/>
    </TTGlyph>
    <TTGlyph name="Odieresis" xMin="82" yMin="-20" xMax="1331" yMax="1805">
      <component glyphName=".ttfautohint" x="82" y="0" flags="0x0"/>
      <component glyphName="O" x="0" y="0" flags="0x0"/>
      <component glyphName="dieresis" x="221" y="310" flags="0x4"/>
    </TTGlyph>
    <TTGlyph name="Odieresis.smcp" xMin="60" yMin="-16" xMax="1155" yMax="1525">
      <component glyphName=".ttfautohint" x="60" y="0" flags="0x0"/>
      <component glyphName="O.smcp" x="0" y="0" flags="0x0"/>
      <component glyphName="dieresis" x="120" y="30" flags="0x4"/>
    </TTGlyph>
    <TTGlyph name="Ograve" xMin="82" yMin="-20" xMax="1331" yMax="1846">
      <component glyphName=".ttfautohint" x="82" y="0" flags="0x0"/>
      <component glyphName="O" x="0" y="0" flags="0x0"/>
      <component glyphName="gravecomb" x="1249" y="310" flags="0x4"/>
    </TTGlyph>
    <TTGlyph name="Ograve.smcp" xMin="60" yMin="-16" xMax="1155" yMax="1566">
      <component glyphName=".ttfautohint" x="60" y="0" flags="0x0"/>
      <component glyphName="O.smcp" x="0" y="0" flags="0x0"/>
      <component glyphName="gravecomb" x="1148" y="30" flags="0x4"/>
    </TTGlyph>
    <TTGlyph name="Oslash" xMin="90" yMin="-95" xMax="1339" yMax="1518">
      <contour>
        <pt x="1243" y="1200" on="0"/>
        <pt x="1339" y="928" on="0"/>
        <pt x="1339" y="759" on="1"/>
        <pt x="1339" y="696" on="1"/>
        <pt x="1339" y="478" on="0"/>
        <pt x="1182" y="154" on="0"/>
        <pt x="900" y="-20" on="0"/>
        <pt x="716" y="-20" on="1"/>
        <pt x="554" y="-20" on="0"/>
        <pt x="422" y="49" on="1"/>
        <pt x="338" y="-95" on="1"/>
        <pt x="146" y="-95" on="1"/>
        <pt x="288" y="147" on="1"/>
        <pt x="193" y="242" on="0"/>
        <pt x="90" y="521" on="0"/>
        <pt x="90" y="696" on="1"/>
        <pt x="90" y="759" on="1"/>
        <pt x="90" y="977" on="0"/>
        <pt x="248" y="1302" on="0"/>
        <pt x="530" y="1476" on="0"/>
        <pt x="714" y="1476" on="1"/>
        <pt x="885" y="1476" on="0"/>
        <pt x="1022" y="1399" on="1"/>
        <pt x="1092" y="1518" on="1"/>
        <pt x="1285" y="1518" on="1"/>
        <pt x="1154" y="1295" on="1"/>
      </contour>
      <contour>
        <pt x="408" y="534" on="0"/>
        <pt x="452" y="426" on="1"/>
        <pt x="884" y="1163" on="1"/>
        <pt x="814" y="1218" on="0"/>
        <pt x="714" y="1218" on="1"/>
        <pt x="566" y="1218" on="0"/>
        <pt x="408" y="984" on="0"/>
        <pt x="408" y="761" on="1"/>
        <pt x="408" y="696" on="1"/>
      </contour>
      <contour>
        <pt x="1021" y="761" on="1"/>
        <pt x="1021" y="906" on="0"/>
        <pt x="986" y="1009" on="1"/>
        <pt x="560" y="282" on="1"/>
        <pt x="625" y="237" on="0"/>
        <pt x="716" y="237" on="1"/>
        <pt x="863" y="237" on="0"/>
        <pt x="1021" y="475" on="0"/>
        <pt x="1021" y="696" on="1"/>
      </contour>
    </TTGlyph>
    <TTGlyph name="Oslash.smcp" xMin="60" yMin="-55" xMax="1155" yMax="1217">
      <contour>
        <pt x="1079" y="941" on="0"/>
        <pt x="1155" y="732" on="0"/>
        <pt x="1155" y="604" on="1"/>
        <pt x="1155" y="561" on="1"/>
        <pt x="1155" y="386" on="0"/>
        <pt x="1016" y="125" on="0"/>
        <pt x="769" y="-16" on="0"/>
        <pt x="609" y="-16" on="1"/>
        <pt x="442" y="-16" on="0"/>
        <pt x="315" y="59" on="1"/>
        <pt x="232" y="-55" on="1"/>
        <pt x="62" y="-55" on="1"/>
        <pt x="207" y="145" on="1"/>
        <pt x="136" y="221" on="0"/>
        <pt x="60" y="432" on="0"/>
        <pt x="60" y="561" on="1"/>
        <pt x="60" y="604" on="1"/>
        <pt x="60" y="779" on="0"/>
        <pt x="198" y="1040" on="0"/>
        <pt x="446" y="1181" on="0"/>
        <pt x="607" y="1181" on="1"/>
        <pt x="774" y="1181" on="0"/>
        <pt x="902" y="1104" on="1"/>
        <pt x="984" y="1217" on="1"/>
        <pt x="1154" y="1217" on="1"/>
        <pt x="1009" y="1017" on="1"/>
      </contour>
      <contour>
        <pt x="363" y="464" on="0"/>
        <pt x="387" y="393" on="1"/>
        <pt x="749" y="893" on="1"/>
        <pt x="691" y="940" on="0"/>
        <pt x="607" y="940" on="1"/>
        <pt x="488" y="940" on="0"/>
        <pt x="363" y="766" on="0"/>
        <pt x="363" y="605" on="1"/>
        <pt x="363" y="561" on="1"/>
      </contour>
      <contour>
        <pt x="852" y="605" on="1"/>
        <pt x="852" y="698" on="0"/>
        <pt x="829" y="769" on="1"/>
        <pt x="468" y="270" on="1"/>
        <pt x="525" y="225" on="0"/>
        <pt x="609" y="225" on="1"/>
        <pt x="724" y="225" on="0"/>
        <pt x="852" y="403" on="0"/>
        <pt x="852" y="561" on="1"/>
      </contour>
    </TTGlyph>
    <TTGlyph name="Otilde" xMin="82" yMin="-20" xMax="1331" yMax="1845">
      <component glyphName=".ttfautohint" x="82" y="0" flags="0x0"/>
      <component glyphName="O" x="0" y="0" flags="0x0"/>
      <component glyphName="tilde" x="211" y="306" flags="0x4"/>
    </TTGlyph>
    <TTGlyph name="Otilde.smcp" xMin="60" yMin="-16" xMax="1155" yMax="1565">
      <component glyphName=".ttfautohint" x="60" y="0" flags="0x0"/>
      <component glyphName="O.smcp" x="0" y="0" flags="0x0"/>
      <component glyphName="tilde" x="110" y="26" flags="0x4"/>
    </TTGlyph>
    <TTGlyph name="P" xMin="125" yMin="0" xMax="1249" yMax="1456">
      <contour>
        <pt x="866" y="1456" on="0"/>
        <pt x="1116" y="1331" on="0"/>
        <pt x="1249" y="1111" on="0"/>
        <pt x="1249" y="970" on="1"/>
        <pt x="1249" y="830" on="0"/>
        <pt x="1117" y="620" on="0"/>
        <pt x="867" y="506" on="0"/>
        <pt x="697" y="506" on="1"/>
        <pt x="439" y="506" on="1"/>
        <pt x="439" y="0" on="1"/>
        <pt x="125" y="0" on="1"/>
        <pt x="125" y="1456" on="1"/>
        <pt x="697" y="1456" on="1"/>
      </contour>
      <contour>
        <pt x="816" y="760" on="0"/>
        <pt x="932" y="872" on="0"/>
        <pt x="932" y="968" on="1"/>
        <pt x="932" y="1032" on="0"/>
        <pt x="882" y="1138" on="0"/>
        <pt x="776" y="1202" on="0"/>
        <pt x="697" y="1202" on="1"/>
        <pt x="439" y="1202" on="1"/>
        <pt x="439" y="760" on="1"/>
        <pt x="697" y="760" on="1"/>
      </contour>
    </TTGlyph>
    <TTGlyph name="P.smcp" xMin="95" yMin="0" xMax="1080" yMax="1165">
      <contour>
        <pt x="743" y="1165" on="0"/>
        <pt x="962" y="1060" on="0"/>
        <pt x="1080" y="875" on="0"/>
        <pt x="1080" y="757" on="1"/>
        <pt x="1080" y="645" on="0"/>
        <pt x="963" y="473" on="0"/>
        <pt x="743" y="377" on="0"/>
        <pt x="595" y="377" on="1"/>
        <pt x="398" y="377" on="1"/>
        <pt x="398" y="0" on="1"/>
        <pt x="95" y="0" on="1"/>
        <pt x="95" y="1165" on="1"/>
        <pt x="595" y="1165" on="1"/>
      </contour>
      <contour>
        <pt x="686" y="620" on="0"/>
        <pt x="779" y="694" on="0"/>
        <pt x="779" y="755" on="1"/>
        <pt x="779" y="827" on="0"/>
        <pt x="685" y="922" on="0"/>
        <pt x="595" y="922" on="1"/>
        <pt x="398" y="922" on="1"/>
        <pt x="398" y="620" on="1"/>
        <pt x="595" y="620" on="1"/>
      </contour>
    </TTGlyph>
    <TTGlyph name="Q" xMin="81" yMin="-263" xMax="1330" yMax="1476">
      <contour>
        <pt x="1330" y="498" on="0"/>
        <pt x="1200" y="193" on="0"/>
        <pt x="1082" y="101" on="1"/>
        <pt x="1320" y="-88" on="1"/>
        <pt x="1123" y="-263" on="1"/>
        <pt x="813" y="-12" on="1"/>
        <pt x="759" y="-20" on="0"/>
        <pt x="707" y="-20" on="1"/>
        <pt x="524" y="-20" on="0"/>
        <pt x="240" y="154" on="0"/>
        <pt x="81" y="478" on="0"/>
        <pt x="81" y="696" on="1"/>
        <pt x="81" y="759" on="1"/>
        <pt x="81" y="977" on="0"/>
        <pt x="239" y="1302" on="0"/>
        <pt x="522" y="1476" on="0"/>
        <pt x="705" y="1476" on="1"/>
        <pt x="889" y="1476" on="0"/>
        <pt x="1172" y="1302" on="0"/>
        <pt x="1330" y="977" on="0"/>
        <pt x="1330" y="759" on="1"/>
        <pt x="1330" y="696" on="1"/>
      </contour>
      <contour>
        <pt x="399" y="475" on="0"/>
        <pt x="559" y="237" on="0"/>
        <pt x="707" y="237" on="1"/>
        <pt x="854" y="237" on="0"/>
        <pt x="1013" y="475" on="0"/>
        <pt x="1013" y="696" on="1"/>
        <pt x="1013" y="761" on="1"/>
        <pt x="1013" y="983" on="0"/>
        <pt x="853" y="1218" on="0"/>
        <pt x="705" y="1218" on="1"/>
        <pt x="557" y="1218" on="0"/>
        <pt x="399" y="984" on="0"/>
        <pt x="399" y="761" on="1"/>
        <pt x="399" y="696" on="1"/>
      </contour>
    </TTGlyph>
    <TTGlyph name="Q.smcp" xMin="63" yMin="-218" xMax="1157" yMax="1181">
      <contour>
        <pt x="1157" y="407" on="0"/>
        <pt x="1048" y="166" on="0"/>
        <pt x="949" y="91" on="1"/>
        <pt x="1143" y="-56" on="1"/>
        <pt x="955" y="-218" on="1"/>
        <pt x="688" y="-11" on="1"/>
        <pt x="645" y="-16" on="0"/>
        <pt x="610" y="-16" on="1"/>
        <pt x="449" y="-16" on="0"/>
        <pt x="201" y="125" on="0"/>
        <pt x="63" y="386" on="0"/>
        <pt x="63" y="561" on="1"/>
        <pt x="63" y="604" on="1"/>
        <pt x="63" y="779" on="0"/>
        <pt x="201" y="1040" on="0"/>
        <pt x="448" y="1181" on="0"/>
        <pt x="609" y="1181" on="1"/>
        <pt x="768" y="1181" on="0"/>
        <pt x="1017" y="1040" on="0"/>
        <pt x="1157" y="778" on="0"/>
        <pt x="1157" y="604" on="1"/>
        <pt x="1157" y="561" on="1"/>
      </contour>
      <contour>
        <pt x="364" y="402" on="0"/>
        <pt x="492" y="225" on="0"/>
        <pt x="610" y="225" on="1"/>
        <pt x="726" y="225" on="0"/>
        <pt x="855" y="402" on="0"/>
        <pt x="855" y="561" on="1"/>
        <pt x="855" y="605" on="1"/>
        <pt x="855" y="764" on="0"/>
        <pt x="725" y="940" on="0"/>
        <pt x="609" y="940" on="1"/>
        <pt x="490" y="940" on="0"/>
        <pt x="364" y="766" on="0"/>
        <pt x="364" y="605" on="1"/>
        <pt x="364" y="561" on="1"/>
      </contour>
    </TTGlyph>
    <TTGlyph name="Q.ss06" xMin="83" yMin="-253" xMax="1408" yMax="1477">
      <contour>
        <pt x="1408" y="528" on="0"/>
        <pt x="1276" y="220" on="0"/>
        <pt x="1157" y="121" on="1"/>
        <pt x="1390" y="-78" on="1"/>
        <pt x="1192" y="-253" on="1"/>
        <pt x="905" y="-3" on="1"/>
        <pt x="830" y="-21" on="0"/>
        <pt x="746" y="-21" on="1"/>
        <pt x="554" y="-21" on="0"/>
        <pt x="252" y="167" on="0"/>
        <pt x="83" y="503" on="0"/>
        <pt x="83" y="716" on="1"/>
        <pt x="83" y="739" on="1"/>
        <pt x="83" y="953" on="0"/>
        <pt x="251" y="1289" on="0"/>
        <pt x="552" y="1477" on="0"/>
        <pt x="744" y="1477" on="1"/>
        <pt x="937" y="1477" on="0"/>
        <pt x="1239" y="1289" on="0"/>
        <pt x="1408" y="953" on="0"/>
        <pt x="1408" y="739" on="1"/>
        <pt x="1408" y="716" on="1"/>
      </contour>
      <contour>
        <pt x="396" y="574" on="0"/>
        <pt x="480" y="355" on="0"/>
        <pt x="638" y="232" on="0"/>
        <pt x="746" y="232" on="1"/>
        <pt x="854" y="232" on="0"/>
        <pt x="1012" y="355" on="0"/>
        <pt x="1095" y="574" on="0"/>
        <pt x="1095" y="716" on="1"/>
        <pt x="1095" y="741" on="1"/>
        <pt x="1095" y="884" on="0"/>
        <pt x="1011" y="1102" on="0"/>
        <pt x="852" y="1223" on="0"/>
        <pt x="744" y="1223" on="1"/>
        <pt x="636" y="1223" on="0"/>
        <pt x="479" y="1102" on="0"/>
        <pt x="396" y="884" on="0"/>
        <pt x="396" y="741" on="1"/>
        <pt x="396" y="716" on="1"/>
      </contour>
    </TTGlyph>
    <TTGlyph name="R" xMin="125" yMin="0" xMax="1270" yMax="1456">
      <contour>
        <pt x="1270" y="15" on="1"/>
        <pt x="1270" y="0" on="1"/>
        <pt x="934" y="0" on="1"/>
        <pt x="667" y="526" on="1"/>
        <pt x="439" y="526" on="1"/>
        <pt x="439" y="0" on="1"/>
        <pt x="125" y="0" on="1"/>
        <pt x="125" y="1456" on="1"/>
        <pt x="675" y="1456" on="1"/>
        <pt x="844" y="1456" on="0"/>
        <pt x="1087" y="1355" on="0"/>
        <pt x="1217" y="1158" on="0"/>
        <pt x="1217" y="1016" on="1"/>
        <pt x="1217" y="861" on="0"/>
        <pt x="1084" y="664" on="0"/>
        <pt x="959" y="608" on="1"/>
      </contour>
      <contour>
        <pt x="439" y="780" on="1"/>
        <pt x="675" y="780" on="1"/>
        <pt x="787" y="780" on="0"/>
        <pt x="903" y="892" on="0"/>
        <pt x="903" y="990" on="1"/>
        <pt x="903" y="1090" on="0"/>
        <pt x="788" y="1202" on="0"/>
        <pt x="675" y="1202" on="1"/>
        <pt x="439" y="1202" on="1"/>
      </contour>
    </TTGlyph>
    <TTGlyph name="R.alt" xMin="126" yMin="0" xMax="1279" yMax="1456">
      <contour>
        <pt x="1204" y="197" on="0"/>
        <pt x="1239" y="61" on="0"/>
        <pt x="1279" y="29" on="1"/>
        <pt x="1279" y="0" on="1"/>
        <pt x="956" y="0" on="1"/>
        <pt x="917" y="31" on="0"/>
        <pt x="891" y="188" on="0"/>
        <pt x="891" y="254" on="1"/>
        <pt x="891" y="345" on="1"/>
        <pt x="891" y="562" on="0"/>
        <pt x="680" y="562" on="1"/>
        <pt x="440" y="562" on="1"/>
        <pt x="440" y="0" on="1"/>
        <pt x="126" y="0" on="1"/>
        <pt x="126" y="1456" on="1"/>
        <pt x="708" y="1456" on="1"/>
        <pt x="956" y="1456" on="0"/>
        <pt x="1219" y="1233" on="0"/>
        <pt x="1219" y="1027" on="1"/>
        <pt x="1219" y="905" on="0"/>
        <pt x="1085" y="748" on="0"/>
        <pt x="957" y="698" on="1"/>
        <pt x="1090" y="660" on="0"/>
        <pt x="1204" y="482" on="0"/>
        <pt x="1204" y="347" on="1"/>
        <pt x="1204" y="252" on="1"/>
      </contour>
      <contour>
        <pt x="791" y="815" on="0"/>
        <pt x="906" y="911" on="0"/>
        <pt x="906" y="1001" on="1"/>
        <pt x="906" y="1094" on="0"/>
        <pt x="798" y="1202" on="0"/>
        <pt x="689" y="1202" on="1"/>
        <pt x="440" y="1202" on="1"/>
        <pt x="440" y="815" on="1"/>
        <pt x="678" y="815" on="1"/>
      </contour>
    </TTGlyph>
    <TTGlyph name="R.smcp" xMin="95" yMin="0" xMax="1105" yMax="1165">
      <contour>
        <pt x="1105" y="13" on="1"/>
        <pt x="1105" y="0" on="1"/>
        <pt x="780" y="0" on="1"/>
        <pt x="567" y="396" on="1"/>
        <pt x="398" y="396" on="1"/>
        <pt x="398" y="0" on="1"/>
        <pt x="95" y="0" on="1"/>
        <pt x="95" y="1165" on="1"/>
        <pt x="588" y="1165" on="1"/>
        <pt x="734" y="1165" on="0"/>
        <pt x="947" y="1086" on="0"/>
        <pt x="1062" y="930" on="0"/>
        <pt x="1062" y="817" on="1"/>
        <pt x="1062" y="683" on="0"/>
        <pt x="952" y="527" on="0"/>
        <pt x="845" y="478" on="1"/>
      </contour>
      <contour>
        <pt x="398" y="639" on="1"/>
        <pt x="588" y="639" on="1"/>
        <pt x="673" y="639" on="0"/>
        <pt x="760" y="712" on="0"/>
        <pt x="760" y="782" on="1"/>
        <pt x="760" y="850" on="0"/>
        <pt x="671" y="922" on="0"/>
        <pt x="588" y="922" on="1"/>
        <pt x="398" y="922" on="1"/>
      </contour>
    </TTGlyph>
    <TTGlyph name="S" xMin="68" yMin="-20" xMax="1193" yMax="1476">
      <contour>
        <pt x="454" y="655" on="0"/>
        <pt x="241" y="772" on="0"/>
        <pt x="113" y="948" on="0"/>
        <pt x="113" y="1069" on="1"/>
        <pt x="113" y="1190" on="0"/>
        <pt x="252" y="1375" on="0"/>
        <pt x="498" y="1476" on="0"/>
        <pt x="656" y="1476" on="1"/>
        <pt x="815" y="1476" on="0"/>
        <pt x="1059" y="1363" on="0"/>
        <pt x="1193" y="1158" on="0"/>
        <pt x="1193" y="1026" on="1"/>
        <pt x="880" y="1026" on="1"/>
        <pt x="880" y="1118" on="0"/>
        <pt x="763" y="1227" on="0"/>
        <pt x="650" y="1227" on="1"/>
        <pt x="578" y="1227" on="0"/>
        <pt x="477" y="1185" on="0"/>
        <pt x="426" y="1112" on="0"/>
        <pt x="426" y="1067" on="1"/>
        <pt x="426" y="1000" on="0"/>
        <pt x="564" y="907" on="0"/>
        <pt x="709" y="862" on="1"/>
        <pt x="954" y="787" on="0"/>
        <pt x="1193" y="562" on="0"/>
        <pt x="1193" y="386" on="1"/>
        <pt x="1193" y="259" on="0"/>
        <pt x="1063" y="76" on="0"/>
        <pt x="824" y="-20" on="0"/>
        <pt x="663" y="-20" on="1"/>
        <pt x="509" y="-20" on="0"/>
        <pt x="238" y="86" on="0"/>
        <pt x="68" y="305" on="0"/>
        <pt x="68" y="464" on="1"/>
        <pt x="383" y="464" on="1"/>
        <pt x="383" y="339" on="0"/>
        <pt x="528" y="228" on="0"/>
        <pt x="663" y="228" on="1"/>
        <pt x="770" y="228" on="0"/>
        <pt x="879" y="314" on="0"/>
        <pt x="879" y="384" on="1"/>
        <pt x="879" y="436" on="0"/>
        <pt x="835" y="506" on="0"/>
        <pt x="717" y="570" on="0"/>
        <pt x="602" y="607" on="1"/>
      </contour>
    </TTGlyph>
    <TTGlyph name="S.smcp" xMin="58" yMin="-16" xMax="1031" yMax="1181">
      <contour>
        <pt x="372" y="503" on="0"/>
        <pt x="187" y="593" on="0"/>
        <pt x="98" y="730" on="0"/>
        <pt x="98" y="835" on="1"/>
        <pt x="98" y="936" on="0"/>
        <pt x="213" y="1093" on="0"/>
        <pt x="418" y="1181" on="0"/>
        <pt x="546" y="1181" on="1"/>
        <pt x="689" y="1181" on="0"/>
        <pt x="908" y="1095" on="0"/>
        <pt x="1031" y="931" on="0"/>
        <pt x="1031" y="817" on="1"/>
        <pt x="729" y="817" on="1"/>
        <pt x="729" y="855" on="0"/>
        <pt x="686" y="921" on="0"/>
        <pt x="604" y="960" on="0"/>
        <pt x="548" y="960" on="1"/>
        <pt x="494" y="960" on="0"/>
        <pt x="419" y="926" on="0"/>
        <pt x="383" y="874" on="0"/>
        <pt x="383" y="847" on="1"/>
        <pt x="383" y="815" on="0"/>
        <pt x="423" y="769" on="0"/>
        <pt x="512" y="730" on="0"/>
        <pt x="589" y="711" on="1"/>
        <pt x="741" y="678" on="0"/>
        <pt x="933" y="582" on="0"/>
        <pt x="1028" y="434" on="0"/>
        <pt x="1028" y="325" on="1"/>
        <pt x="1028" y="218" on="0"/>
        <pt x="914" y="64" on="0"/>
        <pt x="706" y="-16" on="0"/>
        <pt x="566" y="-16" on="1"/>
        <pt x="434" y="-16" on="0"/>
        <pt x="202" y="66" on="0"/>
        <pt x="58" y="242" on="0"/>
        <pt x="58" y="374" on="1"/>
        <pt x="360" y="374" on="1"/>
        <pt x="360" y="285" on="0"/>
        <pt x="468" y="205" on="0"/>
        <pt x="583" y="205" on="1"/>
        <pt x="666" y="205" on="0"/>
        <pt x="742" y="272" on="0"/>
        <pt x="742" y="315" on="1"/>
        <pt x="742" y="352" on="0"/>
        <pt x="703" y="405" on="0"/>
        <pt x="609" y="448" on="0"/>
        <pt x="527" y="467" on="1"/>
      </contour>
    </TTGlyph>
    <TTGlyph name="T" xMin="40" yMin="0" xMax="1234" yMax="1456">
      <contour>
        <pt x="1234" y="1202" on="1"/>
        <pt x="790" y="1202" on="1"/>
        <pt x="790" y="0" on="1"/>
        <pt x="477" y="0" on="1"/>
        <pt x="477" y="1202" on="1"/>
        <pt x="40" y="1202" on="1"/>
        <pt x="40" y="1456" on="1"/>
        <pt x="1234" y="1456" on="1"/>
      </contour>
    </TTGlyph>
    <TTGlyph name="T.smcp" xMin="32" yMin="0" xMax="1079" yMax="1165">
      <contour>
        <pt x="1079" y="922" on="1"/>
        <pt x="703" y="922" on="1"/>
        <pt x="703" y="0" on="1"/>
        <pt x="399" y="0" on="1"/>
        <pt x="399" y="922" on="1"/>
        <pt x="32" y="922" on="1"/>
        <pt x="32" y="1165" on="1"/>
        <pt x="1079" y="1165" on="1"/>
      </contour>
    </TTGlyph>
    <TTGlyph name="Thorn" xMin="129" yMin="0" xMax="1190" yMax="1456">
      <contour>
        <pt x="820" y="1193" on="0"/>
        <pt x="1064" y="1077" on="0"/>
        <pt x="1190" y="872" on="0"/>
        <pt x="1190" y="738" on="1"/>
        <pt x="1190" y="605" on="0"/>
        <pt x="1064" y="399" on="0"/>
        <pt x="820" y="284" on="0"/>
        <pt x="648" y="284" on="1"/>
        <pt x="431" y="284" on="1"/>
        <pt x="431" y="0" on="1"/>
        <pt x="129" y="0" on="1"/>
        <pt x="129" y="1456" on="1"/>
        <pt x="431" y="1456" on="1"/>
        <pt x="431" y="1193" on="1"/>
        <pt x="648" y="1193" on="1"/>
      </contour>
      <contour>
        <pt x="730" y="527" on="0"/>
        <pt x="838" y="584" on="0"/>
        <pt x="888" y="679" on="0"/>
        <pt x="888" y="736" on="1"/>
        <pt x="888" y="795" on="0"/>
        <pt x="838" y="891" on="0"/>
        <pt x="730" y="949" on="0"/>
        <pt x="648" y="949" on="1"/>
        <pt x="431" y="949" on="1"/>
        <pt x="431" y="527" on="1"/>
        <pt x="648" y="527" on="1"/>
      </contour>
    </TTGlyph>
    <TTGlyph name="Thorn.smcp" xMin="95" yMin="0" xMax="1005" yMax="1165">
      <contour>
        <pt x="667" y="1007" on="0"/>
        <pt x="887" y="906" on="0"/>
        <pt x="1005" y="728" on="0"/>
        <pt x="1005" y="615" on="1"/>
        <pt x="1005" y="498" on="0"/>
        <pt x="888" y="318" on="0"/>
        <pt x="668" y="218" on="0"/>
        <pt x="520" y="218" on="1"/>
        <pt x="398" y="218" on="1"/>
        <pt x="398" y="0" on="1"/>
        <pt x="95" y="0" on="1"/>
        <pt x="95" y="1165" on="1"/>
        <pt x="398" y="1165" on="1"/>
        <pt x="398" y="1007" on="1"/>
        <pt x="520" y="1007" on="1"/>
      </contour>
      <contour>
        <pt x="611" y="462" on="0"/>
        <pt x="704" y="545" on="0"/>
        <pt x="704" y="613" on="1"/>
        <pt x="704" y="677" on="0"/>
        <pt x="610" y="763" on="0"/>
        <pt x="520" y="763" on="1"/>
        <pt x="398" y="763" on="1"/>
        <pt x="398" y="462" on="1"/>
        <pt x="520" y="462" on="1"/>
      </contour>
    </TTGlyph>
    <TTGlyph name="U" xMin="113" yMin="-20" xMax="1238" yMax="1456">
      <contour>
        <pt x="1238" y="499" on="1"/>
        <pt x="1238" y="334" on="0"/>
        <pt x="1096" y="100" on="0"/>
        <pt x="843" y="-20" on="0"/>
        <pt x="677" y="-20" on="1"/>
        <pt x="510" y="-20" on="0"/>
        <pt x="255" y="100" on="0"/>
        <pt x="113" y="334" on="0"/>
        <pt x="113" y="499" on="1"/>
        <pt x="113" y="1456" on="1"/>
        <pt x="428" y="1456" on="1"/>
        <pt x="428" y="499" on="1"/>
        <pt x="428" y="233" on="0"/>
        <pt x="677" y="233" on="1"/>
        <pt x="798" y="233" on="0"/>
        <pt x="924" y="362" on="0"/>
        <pt x="924" y="499" on="1"/>
        <pt x="924" y="1456" on="1"/>
        <pt x="1238" y="1456" on="1"/>
      </contour>
    </TTGlyph>
    <TTGlyph name="U.smcp" xMin="91" yMin="-16" xMax="1078" yMax="1165">
      <contour>
        <pt x="1078" y="413" on="1"/>
        <pt x="1078" y="277" on="0"/>
        <pt x="957" y="84" on="0"/>
        <pt x="735" y="-16" on="0"/>
        <pt x="586" y="-16" on="1"/>
        <pt x="438" y="-16" on="0"/>
        <pt x="215" y="84" on="0"/>
        <pt x="91" y="277" on="0"/>
        <pt x="91" y="413" on="1"/>
        <pt x="91" y="1165" on="1"/>
        <pt x="393" y="1165" on="1"/>
        <pt x="393" y="413" on="1"/>
        <pt x="393" y="316" on="0"/>
        <pt x="491" y="227" on="0"/>
        <pt x="586" y="227" on="1"/>
        <pt x="681" y="227" on="0"/>
        <pt x="775" y="316" on="0"/>
        <pt x="775" y="413" on="1"/>
        <pt x="775" y="1165" on="1"/>
        <pt x="1078" y="1165" on="1"/>
      </contour>
    </TTGlyph>
    <TTGlyph name="Uacute" xMin="113" yMin="-20" xMax="1238" yMax="1846">
      <component glyphName=".ttfautohint" x="113" y="0" flags="0x0"/>
      <component glyphName="U" x="0" y="0" flags="0x0"/>
      <component glyphName="acutecomb" x="1207" y="310" flags="0x4"/>
    </TTGlyph>
    <TTGlyph name="Uacute.smcp" xMin="91" yMin="-16" xMax="1078" yMax="1566">
      <component glyphName=".ttfautohint" x="91" y="0" flags="0x0"/>
      <component glyphName="U.smcp" x="0" y="0" flags="0x0"/>
      <component glyphName="acutecomb" x="1115" y="30" flags="0x4"/>
    </TTGlyph>
    <TTGlyph name="Ucircumflex" xMin="113" yMin="-20" xMax="1238" yMax="1846">
      <component glyphName=".ttfautohint" x="113" y="0" flags="0x0"/>
      <component glyphName="U" x="0" y="0" flags="0x0"/>
      <component glyphName="circumflex" x="166" y="310" flags="0x4"/>
    </TTGlyph>
    <TTGlyph name="Ucircumflex.smcp" xMin="91" yMin="-16" xMax="1078" yMax="1566">
      <component glyphName=".ttfautohint" x="91" y="0" flags="0x0"/>
      <component glyphName="U.smcp" x="0" y="0" flags="0x0"/>
      <component glyphName="circumflex" x="74" y="30" flags="0x4"/>
    </TTGlyph>
    <TTGlyph name="Udieresis" xMin="113" yMin="-20" xMax="1238" yMax="1805">
      <component glyphName=".ttfautohint" x="113" y="0" flags="0x0"/>
      <component glyphName="U" x="0" y="0" flags="0x0"/>
      <component glyphName="dieresis" x="187" y="310" flags="0x4"/>
    </TTGlyph>
    <TTGlyph name="Udieresis.smcp" xMin="91" yMin="-16" xMax="1078" yMax="1525">
      <component glyphName=".ttfautohint" x="91" y="0" flags="0x0"/>
      <component glyphName="U.smcp" x="0" y="0" flags="0x0"/>
      <component glyphName="dieresis" x="95" y="30" flags="0x4"/>
    </TTGlyph>
    <TTGlyph name="Ugrave" xMin="113" yMin="-20" xMax="1238" yMax="1846">
      <component glyphName=".ttfautohint" x="113" y="0" flags="0x0"/>
      <component glyphName="U" x="0" y="0" flags="0x0"/>
      <component glyphName="gravecomb" x="1215" y="310" flags="0x4"/>
    </TTGlyph>
    <TTGlyph name="Ugrave.smcp" xMin="91" yMin="-16" xMax="1078" yMax="1566">
      <component glyphName=".ttfautohint" x="91" y="0" flags="0x0"/>
      <component glyphName="U.smcp" x="0" y="0" flags="0x0"/>
      <component glyphName="gravecomb" x="1123" y="30" flags="0x4"/>
    </TTGlyph>
    <TTGlyph name="V" xMin="5" yMin="0" xMax="1340" yMax="1456">
      <contour>
        <pt x="1340" y="1456" on="1"/>
        <pt x="836" y="0" on="1"/>
        <pt x="505" y="0" on="1"/>
        <pt x="5" y="1456" on="1"/>
        <pt x="352" y="1456" on="1"/>
        <pt x="671" y="373" on="1"/>
        <pt x="990" y="1456" on="1"/>
      </contour>
    </TTGlyph>
    <TTGlyph name="V.smcp" xMin="-4" yMin="0" xMax="1168" yMax="1165">
      <contour>
        <pt x="1168" y="1165" on="1"/>
        <pt x="746" y="0" on="1"/>
        <pt x="416" y="0" on="1"/>
        <pt x="-4" y="1165" on="1"/>
        <pt x="312" y="1165" on="1"/>
        <pt x="571" y="323" on="1"/>
        <pt x="581" y="276" on="1"/>
        <pt x="589" y="319" on="1"/>
        <pt x="851" y="1165" on="1"/>
      </contour>
    </TTGlyph>
    <TTGlyph name="W" xMin="32" yMin="0" xMax="1758" yMax="1456">
      <contour>
        <pt x="1758" y="1456" on="1"/>
        <pt x="1439" y="0" on="1"/>
        <pt x="1121" y="0" on="1"/>
        <pt x="895" y="945" on="1"/>
        <pt x="670" y="0" on="1"/>
        <pt x="352" y="0" on="1"/>
        <pt x="32" y="1456" on="1"/>
        <pt x="344" y="1456" on="1"/>
        <pt x="534" y="444" on="1"/>
        <pt x="762" y="1456" on="1"/>
        <pt x="1028" y="1456" on="1"/>
        <pt x="1258" y="445" on="1"/>
        <pt x="1446" y="1456" on="1"/>
      </contour>
    </TTGlyph>
    <TTGlyph name="W.smcp" xMin="29" yMin="0" xMax="1497" yMax="1165">
      <contour>
        <pt x="1497" y="1165" on="1"/>
        <pt x="1232" y="0" on="1"/>
        <pt x="929" y="0" on="1"/>
        <pt x="761" y="706" on="1"/>
        <pt x="598" y="0" on="1"/>
        <pt x="295" y="0" on="1"/>
        <pt x="29" y="1165" on="1"/>
        <pt x="319" y="1165" on="1"/>
        <pt x="460" y="393" on="1"/>
        <pt x="630" y="1165" on="1"/>
        <pt x="895" y="1165" on="1"/>
        <pt x="1067" y="397" on="1"/>
        <pt x="1208" y="1165" on="1"/>
      </contour>
    </TTGlyph>
    <TTGlyph name="X" xMin="18" yMin="0" xMax="1286" yMax="1456">
      <contour>
        <pt x="916" y="1456" on="1"/>
        <pt x="1275" y="1456" on="1"/>
        <pt x="856" y="734" on="1"/>
        <pt x="1286" y="0" on="1"/>
        <pt x="923" y="0" on="1"/>
        <pt x="652" y="504" on="1"/>
        <pt x="381" y="0" on="1"/>
        <pt x="18" y="0" on="1"/>
        <pt x="448" y="734" on="1"/>
        <pt x="29" y="1456" on="1"/>
        <pt x="389" y="1456" on="1"/>
        <pt x="652" y="961" on="1"/>
      </contour>
    </TTGlyph>
    <TTGlyph name="X.smcp" xMin="-1" yMin="0" xMax="1122" yMax="1165">
      <contour>
        <pt x="744" y="1165" on="1"/>
        <pt x="1091" y="1165" on="1"/>
        <pt x="739" y="587" on="1"/>
        <pt x="1122" y="0" on="1"/>
        <pt x="765" y="0" on="1"/>
        <pt x="551" y="375" on="1"/>
        <pt x="347" y="0" on="1"/>
        <pt x="-1" y="0" on="1"/>
        <pt x="362" y="587" on="1"/>
        <pt x="8" y="1165" on="1"/>
        <pt x="354" y="1165" on="1"/>
        <pt x="548" y="797" on="1"/>
      </contour>
    </TTGlyph>
    <TTGlyph name="Y" xMin="0" yMin="0" xMax="1271" yMax="1456">
      <contour>
        <pt x="929" y="1456" on="1"/>
        <pt x="1271" y="1456" on="1"/>
        <pt x="795" y="526" on="1"/>
        <pt x="795" y="0" on="1"/>
        <pt x="477" y="0" on="1"/>
        <pt x="477" y="526" on="1"/>
        <pt x="0" y="1456" on="1"/>
        <pt x="343" y="1456" on="1"/>
        <pt x="636" y="809" on="1"/>
      </contour>
    </TTGlyph>
    <TTGlyph name="Y.smcp" xMin="-4" yMin="0" xMax="1110" yMax="1165">
      <contour>
        <pt x="701" y="407" on="1"/>
        <pt x="701" y="0" on="1"/>
        <pt x="399" y="0" on="1"/>
        <pt x="399" y="419" on="1"/>
        <pt x="-4" y="1165" on="1"/>
        <pt x="323" y="1165" on="1"/>
        <pt x="553" y="681" on="1"/>
        <pt x="784" y="1165" on="1"/>
        <pt x="1110" y="1165" on="1"/>
      </contour>
    </TTGlyph>
    <TTGlyph name="Yacute" xMin="0" yMin="0" xMax="1271" yMax="1846">
      <component glyphName=".ttfautohint" x="0" y="0" flags="0x0"/>
      <component glyphName="Y" x="0" y="0" flags="0x0"/>
      <component glyphName="acutecomb" x="1172" y="310" flags="0x4"/>
    </TTGlyph>
    <TTGlyph name="Yacute.smcp" xMin="-4" yMin="0" xMax="1110" yMax="1566">
      <component glyphName=".ttfautohint" x="0" y="0" flags="0x0"/>
      <component glyphName="Y.smcp" x="0" y="0" flags="0x0"/>
      <component glyphName="acutecomb" x="1076" y="30" flags="0x4"/>
    </TTGlyph>
    <TTGlyph name="Z" xMin="71" yMin="0" xMax="1187" yMax="1456">
      <contour>
        <pt x="1187" y="253" on="1"/>
        <pt x="1187" y="0" on="1"/>
        <pt x="72" y="0" on="1"/>
        <pt x="72" y="180" on="1"/>
        <pt x="783" y="1202" on="1"/>
        <pt x="71" y="1202" on="1"/>
        <pt x="71" y="1456" on="1"/>
        <pt x="1174" y="1456" on="1"/>
        <pt x="1174" y="1281" on="1"/>
        <pt x="467" y="253" on="1"/>
      </contour>
    </TTGlyph>
    <TTGlyph name="Z.smcp" xMin="53" yMin="0" xMax="1033" yMax="1165">
      <contour>
        <pt x="1033" y="243" on="1"/>
        <pt x="1033" y="0" on="1"/>
        <pt x="57" y="0" on="1"/>
        <pt x="57" y="156" on="1"/>
        <pt x="634" y="922" on="1"/>
        <pt x="53" y="922" on="1"/>
        <pt x="53" y="1165" on="1"/>
        <pt x="1027" y="1165" on="1"/>
        <pt x="1027" y="1013" on="1"/>
        <pt x="457" y="243" on="1"/>
      </contour>
    </TTGlyph>
    <TTGlyph name="a" xMin="63" yMin="-20" xMax="1033" yMax="1102">
      <contour>
        <pt x="989" y="175" on="0"/>
        <pt x="1011" y="61" on="0"/>
        <pt x="1033" y="17" on="1"/>
        <pt x="1033" y="0" on="1"/>
        <pt x="730" y="0" on="1"/>
        <pt x="710" y="39" on="0"/>
        <pt x="701" y="97" on="1"/>
        <pt x="598" y="-20" on="0"/>
        <pt x="430" y="-20" on="1"/>
        <pt x="328" y="-20" on="0"/>
        <pt x="160" y="64" on="0"/>
        <pt x="63" y="212" on="0"/>
        <pt x="63" y="305" on="1"/>
        <pt x="63" y="476" on="0"/>
        <pt x="317" y="661" on="0"/>
        <pt x="564" y="661" on="1"/>
        <pt x="687" y="661" on="1"/>
        <pt x="687" y="722" on="1"/>
        <pt x="687" y="797" on="0"/>
        <pt x="611" y="880" on="0"/>
        <pt x="535" y="880" on="1"/>
        <pt x="466" y="880" on="0"/>
        <pt x="389" y="815" on="0"/>
        <pt x="389" y="755" on="1"/>
        <pt x="87" y="755" on="1"/>
        <pt x="87" y="852" on="0"/>
        <pt x="202" y="1010" on="0"/>
        <pt x="413" y="1102" on="0"/>
        <pt x="551" y="1102" on="1"/>
        <pt x="679" y="1102" on="0"/>
        <pt x="877" y="1016" on="0"/>
        <pt x="989" y="844" on="0"/>
        <pt x="989" y="720" on="1"/>
        <pt x="989" y="267" on="1"/>
      </contour>
      <contour>
        <pt x="564" y="209" on="0"/>
        <pt x="664" y="266" on="0"/>
        <pt x="687" y="307" on="1"/>
        <pt x="687" y="488" on="1"/>
        <pt x="572" y="488" on="1"/>
        <pt x="467" y="488" on="0"/>
        <pt x="364" y="397" on="0"/>
        <pt x="364" y="324" on="1"/>
        <pt x="364" y="273" on="0"/>
        <pt x="437" y="209" on="0"/>
        <pt x="498" y="209" on="1"/>
      </contour>
    </TTGlyph>
    <TTGlyph name="aacute" xMin="63" yMin="-20" xMax="1033" yMax="1536">
      <component glyphName=".ttfautohint" x="63" y="0" flags="0x0"/>
      <component glyphName="a" x="0" y="0" flags="0x0"/>
      <component glyphName="acutecomb" x="1082" y="0" flags="0x0"/>
    </TTGlyph>
    <TTGlyph name="acircumflex" xMin="63" yMin="-20" xMax="1033" yMax="1536">
      <component glyphName=".ttfautohint" x="63" y="0" flags="0x0"/>
      <component glyphName="a" x="0" y="0" flags="0x0"/>
      <component glyphName="circumflex" x="41" y="0" flags="0x0"/>
    </TTGlyph>
    <TTGlyph name="acute" xMin="99" yMin="1225" xMax="621" yMax="1536">
      <contour>
        <pt x="621" y="1536" on="1"/>
        <pt x="344" y="1225" on="1"/>
        <pt x="99" y="1225" on="1"/>
        <pt x="295" y="1536" on="1"/>
      </contour>
    </TTGlyph>
    <TTGlyph name="acutecomb" xMin="-685" yMin="1225" xMax="-162" yMax="1536">
      <contour>
        <pt x="-162" y="1536" on="1"/>
        <pt x="-440" y="1225" on="1"/>
        <pt x="-685" y="1225" on="1"/>
        <pt x="-488" y="1536" on="1"/>
      </contour>
    </TTGlyph>
    <TTGlyph name="adieresis" xMin="63" yMin="-20" xMax="1033" yMax="1495">
      <component glyphName=".ttfautohint" x="63" y="0" flags="0x0"/>
      <component glyphName="a" x="0" y="0" flags="0x0"/>
      <component glyphName="dieresis" x="62" y="0" flags="0x0"/>
    </TTGlyph>
    <TTGlyph name="ae" xMin="65" yMin="-20" xMax="1679" yMax="1103">
      <contour>
        <pt x="1679" y="444" on="1"/>
        <pt x="1020" y="444" on="1"/>
        <pt x="1031" y="342" on="0"/>
        <pt x="1159" y="223" on="0"/>
        <pt x="1279" y="223" on="1"/>
        <pt x="1371" y="223" on="0"/>
        <pt x="1498" y="260" on="0"/>
        <pt x="1571" y="297" on="1"/>
        <pt x="1649" y="101" on="1"/>
        <pt x="1588" y="52" on="0"/>
        <pt x="1372" y="-20" on="0"/>
        <pt x="1245" y="-20" on="1"/>
        <pt x="1122" y="-20" on="0"/>
        <pt x="927" y="54" on="0"/>
        <pt x="860" y="124" on="1"/>
        <pt x="799" y="60" on="0"/>
        <pt x="603" y="-20" on="0"/>
        <pt x="471" y="-20" on="1"/>
        <pt x="342" y="-20" on="0"/>
        <pt x="159" y="64" on="0"/>
        <pt x="65" y="217" on="0"/>
        <pt x="65" y="321" on="1"/>
        <pt x="65" y="480" on="0"/>
        <pt x="322" y="652" on="0"/>
        <pt x="567" y="652" on="1"/>
        <pt x="724" y="652" on="1"/>
        <pt x="724" y="704" on="1"/>
        <pt x="724" y="777" on="0"/>
        <pt x="645" y="859" on="0"/>
        <pt x="572" y="859" on="1"/>
        <pt x="493" y="859" on="0"/>
        <pt x="402" y="793" on="0"/>
        <pt x="402" y="743" on="1"/>
        <pt x="101" y="762" on="1"/>
        <pt x="101" y="860" on="0"/>
        <pt x="219" y="1015" on="0"/>
        <pt x="434" y="1102" on="0"/>
        <pt x="575" y="1102" on="1"/>
        <pt x="677" y="1102" on="0"/>
        <pt x="843" y="1050" on="0"/>
        <pt x="900" y="998" on="1"/>
        <pt x="1029" y="1103" on="0"/>
        <pt x="1224" y="1102" on="1"/>
        <pt x="1365" y="1102" on="0"/>
        <pt x="1570" y="983" on="0"/>
        <pt x="1679" y="762" on="0"/>
        <pt x="1679" y="612" on="1"/>
      </contour>
      <contour>
        <pt x="1384" y="672" on="1"/>
        <pt x="1384" y="759" on="0"/>
        <pt x="1304" y="859" on="0"/>
        <pt x="1224" y="859" on="1"/>
        <pt x="1133" y="859" on="0"/>
        <pt x="1035" y="746" on="0"/>
        <pt x="1022" y="645" on="1"/>
        <pt x="1384" y="645" on="1"/>
      </contour>
      <contour>
        <pt x="367" y="262" on="0"/>
        <pt x="448" y="200" on="0"/>
        <pt x="529" y="200" on="1"/>
        <pt x="578" y="200" on="0"/>
        <pt x="685" y="242" on="0"/>
        <pt x="724" y="274" on="1"/>
        <pt x="724" y="457" on="1"/>
        <pt x="569" y="457" on="1"/>
        <pt x="506" y="457" on="0"/>
        <pt x="414" y="418" on="0"/>
        <pt x="367" y="354" on="0"/>
        <pt x="367" y="317" on="1"/>
      </contour>
    </TTGlyph>
    <TTGlyph name="agrave" xMin="63" yMin="-20" xMax="1033" yMax="1536">
      <component glyphName=".ttfautohint" x="63" y="0" flags="0x0"/>
      <component glyphName="a" x="0" y="0" flags="0x0"/>
      <component glyphName="gravecomb" x="1090" y="0" flags="0x0"/>
    </TTGlyph>
    <TTGlyph name="alpha" xMin="71" yMin="-21" xMax="1150" yMax="1102">
      <contour>
        <pt x="1150" y="2" on="1"/>
        <pt x="1119" y="-12" on="0"/>
        <pt x="1063" y="-21" on="0"/>
        <pt x="1024" y="-21" on="1"/>
        <pt x="837" y="-21" on="0"/>
        <pt x="767" y="147" on="1"/>
        <pt x="668" y="-20" on="0"/>
        <pt x="492" y="-20" on="1"/>
        <pt x="358" y="-20" on="0"/>
        <pt x="169" y="115" on="0"/>
        <pt x="71" y="357" on="0"/>
        <pt x="71" y="515" on="1"/>
        <pt x="71" y="536" on="1"/>
        <pt x="71" y="703" on="0"/>
        <pt x="169" y="959" on="0"/>
        <pt x="360" y="1102" on="0"/>
        <pt x="494" y="1102" on="1"/>
        <pt x="655" y="1102" on="0"/>
        <pt x="750" y="954" on="1"/>
        <pt x="772" y="1082" on="1"/>
        <pt x="1034" y="1082" on="1"/>
        <pt x="1034" y="358" on="1"/>
        <pt x="1034" y="287" on="0"/>
        <pt x="1070" y="227" on="0"/>
        <pt x="1105" y="227" on="1"/>
        <pt x="1118" y="227" on="0"/>
        <pt x="1125" y="230" on="1"/>
      </contour>
      <contour>
        <pt x="678" y="223" on="0"/>
        <pt x="732" y="308" on="1"/>
        <pt x="732" y="764" on="1"/>
        <pt x="679" y="859" on="0"/>
        <pt x="570" y="859" on="1"/>
        <pt x="468" y="859" on="0"/>
        <pt x="373" y="681" on="0"/>
        <pt x="373" y="536" on="1"/>
        <pt x="373" y="515" on="1"/>
        <pt x="373" y="223" on="0"/>
        <pt x="568" y="223" on="1"/>
      </contour>
    </TTGlyph>
    <TTGlyph name="alpha.alt" xMin="71" yMin="-21" xMax="1117" yMax="1102">
      <contour>
        <pt x="853" y="0" on="1"/>
        <pt x="828" y="160" on="1"/>
        <pt x="718" y="-21" on="0"/>
        <pt x="508" y="-21" on="1"/>
        <pt x="370" y="-21" on="0"/>
        <pt x="173" y="115" on="0"/>
        <pt x="71" y="357" on="0"/>
        <pt x="71" y="515" on="1"/>
        <pt x="71" y="536" on="1"/>
        <pt x="71" y="703" on="0"/>
        <pt x="173" y="959" on="0"/>
        <pt x="371" y="1102" on="0"/>
        <pt x="510" y="1102" on="1"/>
        <pt x="713" y="1102" on="0"/>
        <pt x="823" y="920" on="1"/>
        <pt x="846" y="1082" on="1"/>
        <pt x="1110" y="1082" on="1"/>
        <pt x="1002" y="540" on="1"/>
        <pt x="1117" y="0" on="1"/>
      </contour>
      <contour>
        <pt x="768" y="561" on="1"/>
        <pt x="764" y="691" on="0"/>
        <pt x="667" y="859" on="0"/>
        <pt x="570" y="859" on="1"/>
        <pt x="468" y="859" on="0"/>
        <pt x="373" y="681" on="0"/>
        <pt x="373" y="536" on="1"/>
        <pt x="373" y="515" on="1"/>
        <pt x="373" y="222" on="0"/>
        <pt x="568" y="222" on="1"/>
        <pt x="666" y="222" on="0"/>
        <pt x="762" y="373" on="0"/>
        <pt x="768" y="490" on="1"/>
      </contour>
    </TTGlyph>
    <TTGlyph name="ampersand" xMin="68" yMin="-21" xMax="1328" yMax="1477">
      <contour>
        <pt x="987" y="0" on="1"/>
        <pt x="914" y="84" on="1"/>
        <pt x="830" y="30" on="0"/>
        <pt x="650" y="-21" on="0"/>
        <pt x="543" y="-21" on="1"/>
        <pt x="399" y="-21" on="0"/>
        <pt x="184" y="84" on="0"/>
        <pt x="68" y="272" on="0"/>
        <pt x="68" y="392" on="1"/>
        <pt x="68" y="473" on="0"/>
        <pt x="131" y="601" on="0"/>
        <pt x="242" y="706" on="0"/>
        <pt x="329" y="768" on="1"/>
        <pt x="261" y="861" on="0"/>
        <pt x="194" y="1012" on="0"/>
        <pt x="194" y="1090" on="1"/>
        <pt x="194" y="1204" on="0"/>
        <pt x="293" y="1380" on="0"/>
        <pt x="475" y="1477" on="0"/>
        <pt x="595" y="1477" on="1"/>
        <pt x="706" y="1477" on="0"/>
        <pt x="876" y="1384" on="0"/>
        <pt x="969" y="1226" on="0"/>
        <pt x="969" y="1133" on="1"/>
        <pt x="969" y="952" on="0"/>
        <pt x="774" y="812" on="1"/>
        <pt x="683" y="747" on="1"/>
        <pt x="926" y="466" on="1"/>
        <pt x="985" y="581" on="0"/>
        <pt x="985" y="719" on="1"/>
        <pt x="1240" y="719" on="1"/>
        <pt x="1240" y="430" on="0"/>
        <pt x="1109" y="254" on="1"/>
        <pt x="1328" y="0" on="1"/>
      </contour>
      <contour>
        <pt x="531" y="1234" on="0"/>
        <pt x="461" y="1155" on="0"/>
        <pt x="461" y="1094" on="1"/>
        <pt x="461" y="1053" on="0"/>
        <pt x="504" y="965" on="0"/>
        <pt x="546" y="911" on="1"/>
        <pt x="620" y="959" on="1"/>
        <pt x="678" y="996" on="0"/>
        <pt x="720" y="1068" on="0"/>
        <pt x="720" y="1113" on="1"/>
        <pt x="720" y="1143" on="0"/>
        <pt x="690" y="1199" on="0"/>
        <pt x="632" y="1234" on="0"/>
        <pt x="594" y="1234" on="1"/>
      </contour>
      <contour>
        <pt x="658" y="223" on="0"/>
        <pt x="747" y="275" on="1"/>
        <pt x="469" y="595" on="1"/>
        <pt x="451" y="582" on="1"/>
        <pt x="404" y="540" on="0"/>
        <pt x="370" y="458" on="0"/>
        <pt x="370" y="411" on="1"/>
        <pt x="370" y="357" on="0"/>
        <pt x="418" y="271" on="0"/>
        <pt x="505" y="223" on="0"/>
        <pt x="560" y="223" on="1"/>
      </contour>
    </TTGlyph>
    <TTGlyph name="ampersand.smcp" xMin="84" yMin="-20" xMax="1256" yMax="1181">
      <contour>
        <pt x="930" y="0" on="1"/>
        <pt x="875" y="55" on="1"/>
        <pt x="726" y="-20" on="0"/>
        <pt x="537" y="-20" on="1"/>
        <pt x="400" y="-20" on="0"/>
        <pt x="195" y="61" on="0"/>
        <pt x="84" y="205" on="0"/>
        <pt x="84" y="297" on="1"/>
        <pt x="84" y="392" on="0"/>
        <pt x="189" y="526" on="0"/>
        <pt x="296" y="593" on="1"/>
        <pt x="320" y="608" on="1"/>
        <pt x="247" y="684" on="0"/>
        <pt x="179" y="810" on="0"/>
        <pt x="179" y="892" on="1"/>
        <pt x="179" y="969" on="0"/>
        <pt x="265" y="1101" on="0"/>
        <pt x="428" y="1181" on="0"/>
        <pt x="539" y="1181" on="1"/>
        <pt x="652" y="1181" on="0"/>
        <pt x="819" y="1106" on="0"/>
        <pt x="910" y="967" on="0"/>
        <pt x="910" y="874" on="1"/>
        <pt x="910" y="795" on="0"/>
        <pt x="814" y="661" on="0"/>
        <pt x="732" y="608" on="1"/>
        <pt x="678" y="573" on="1"/>
        <pt x="878" y="375" on="1"/>
        <pt x="928" y="454" on="0"/>
        <pt x="928" y="561" on="1"/>
        <pt x="1184" y="561" on="1"/>
        <pt x="1184" y="343" on="0"/>
        <pt x="1058" y="197" on="1"/>
        <pt x="1256" y="0" on="1"/>
      </contour>
      <contour>
        <pt x="436" y="832" on="0"/>
        <pt x="476" y="773" on="0"/>
        <pt x="517" y="732" on="1"/>
        <pt x="555" y="756" on="1"/>
        <pt x="613" y="791" on="0"/>
        <pt x="650" y="841" on="0"/>
        <pt x="650" y="873" on="1"/>
        <pt x="650" y="905" on="0"/>
        <pt x="591" y="954" on="0"/>
        <pt x="543" y="954" on="1"/>
        <pt x="492" y="954" on="0"/>
        <pt x="436" y="901" on="0"/>
        <pt x="436" y="861" on="1"/>
      </contour>
      <contour>
        <pt x="619" y="221" on="0"/>
        <pt x="689" y="240" on="1"/>
        <pt x="480" y="448" on="1"/>
        <pt x="455" y="432" on="1"/>
        <pt x="386" y="388" on="0"/>
        <pt x="386" y="329" on="1"/>
        <pt x="386" y="279" on="0"/>
        <pt x="468" y="221" on="0"/>
        <pt x="540" y="221" on="1"/>
      </contour>
    </TTGlyph>
    <TTGlyph name="aring" xMin="63" yMin="-20" xMax="1033" yMax="1624">
      <component glyphName=".ttfautohint" x="63" y="0" flags="0x0"/>
      <component glyphName="a" x="0" y="0" flags="0x0"/>
      <component glyphName="ring" x="206" y="106" flags="0x4"/>
    </TTGlyph>
    <TTGlyph name="asciicircum" xMin="43" yMin="729" xMax="861" yMax="1456">
      <contour>
        <pt x="625" y="729" on="1"/>
        <pt x="452" y="1184" on="1"/>
        <pt x="279" y="729" on="1"/>
        <pt x="43" y="729" on="1"/>
        <pt x="342" y="1456" on="1"/>
        <pt x="562" y="1456" on="1"/>
        <pt x="861" y="729" on="1"/>
      </contour>
    </TTGlyph>
    <TTGlyph name="asciitilde" xMin="103" yMin="372" xMax="1215" yMax="831">
      <contour>
        <pt x="1215" y="669" on="0"/>
        <pt x="1130" y="476" on="0"/>
        <pt x="979" y="372" on="0"/>
        <pt x="882" y="372" on="1"/>
        <pt x="804" y="372" on="0"/>
        <pt x="678" y="434" on="0"/>
        <pt x="605" y="504" on="1"/>
        <pt x="561" y="546" on="0"/>
        <pt x="490" y="586" on="0"/>
        <pt x="451" y="586" on="1"/>
        <pt x="395" y="586" on="0"/>
        <pt x="324" y="486" on="0"/>
        <pt x="324" y="410" on="1"/>
        <pt x="103" y="413" on="1"/>
        <pt x="103" y="542" on="0"/>
        <pt x="187" y="731" on="0"/>
        <pt x="337" y="831" on="0"/>
        <pt x="435" y="831" on="1"/>
        <pt x="513" y="831" on="0"/>
        <pt x="645" y="767" on="0"/>
        <pt x="713" y="700" on="1"/>
        <pt x="755" y="658" on="0"/>
        <pt x="828" y="619" on="0"/>
        <pt x="865" y="619" on="1"/>
        <pt x="903" y="619" on="0"/>
        <pt x="962" y="666" on="0"/>
        <pt x="995" y="747" on="0"/>
        <pt x="995" y="797" on="1"/>
        <pt x="1215" y="796" on="1"/>
      </contour>
    </TTGlyph>
    <TTGlyph name="asterisk" xMin="27" yMin="568" xMax="924" yMax="1456">
      <contour>
        <pt x="27" y="1050" on="1"/>
        <pt x="88" y="1234" on="1"/>
        <pt x="401" y="1106" on="1"/>
        <pt x="380" y="1456" on="1"/>
        <pt x="580" y="1456" on="1"/>
        <pt x="559" y="1099" on="1"/>
        <pt x="864" y="1224" on="1"/>
        <pt x="924" y="1038" on="1"/>
        <pt x="602" y="949" on="1"/>
        <pt x="814" y="683" on="1"/>
        <pt x="652" y="568" on="1"/>
        <pt x="469" y="861" on="1"/>
        <pt x="288" y="578" on="1"/>
        <pt x="125" y="688" on="1"/>
        <pt x="345" y="960" on="1"/>
      </contour>
    </TTGlyph>
    <TTGlyph name="at" xMin="79" yMin="-453" xMax="1750" yMax="1414">
      <contour>
        <pt x="1212" y="1414" on="0"/>
        <pt x="1566" y="1212" on="0"/>
        <pt x="1750" y="844" on="0"/>
        <pt x="1750" y="598" on="1"/>
        <pt x="1750" y="561" on="0"/>
        <pt x="1749" y="542" on="1"/>
        <pt x="1744" y="394" on="0"/>
        <pt x="1648" y="138" on="0"/>
        <pt x="1454" y="-21" on="0"/>
        <pt x="1308" y="-21" on="1"/>
        <pt x="1224" y="-21" on="0"/>
        <pt x="1098" y="53" on="0"/>
        <pt x="1066" y="121" on="1"/>
        <pt x="1017" y="52" on="0"/>
        <pt x="884" y="-18" on="0"/>
        <pt x="804" y="-18" on="1"/>
        <pt x="716" y="-18" on="0"/>
        <pt x="584" y="76" on="0"/>
        <pt x="512" y="248" on="0"/>
        <pt x="512" y="363" on="1"/>
        <pt x="512" y="397" on="0"/>
        <pt x="515" y="433" on="1"/>
        <pt x="534" y="600" on="0"/>
        <pt x="666" y="852" on="0"/>
        <pt x="866" y="990" on="0"/>
        <pt x="985" y="990" on="1"/>
        <pt x="1058" y="990" on="0"/>
        <pt x="1166" y="961" on="0"/>
        <pt x="1242" y="918" on="0"/>
        <pt x="1295" y="881" on="1"/>
        <pt x="1243" y="300" on="1"/>
        <pt x="1241" y="276" on="0"/>
        <pt x="1241" y="266" on="1"/>
        <pt x="1241" y="200" on="0"/>
        <pt x="1301" y="146" on="0"/>
        <pt x="1346" y="146" on="1"/>
        <pt x="1408" y="146" on="0"/>
        <pt x="1504" y="247" on="0"/>
        <pt x="1561" y="424" on="0"/>
        <pt x="1564" y="534" on="1"/>
        <pt x="1566" y="576" on="0"/>
        <pt x="1566" y="597" on="1"/>
        <pt x="1566" y="797" on="0"/>
        <pt x="1433" y="1089" on="0"/>
        <pt x="1162" y="1248" on="0"/>
        <pt x="960" y="1248" on="1"/>
        <pt x="761" y="1248" on="0"/>
        <pt x="461" y="1045" on="0"/>
        <pt x="293" y="688" on="0"/>
        <pt x="282" y="461" on="1"/>
        <pt x="281" y="440" on="0"/>
        <pt x="281" y="398" on="1"/>
        <pt x="281" y="179" on="0"/>
        <pt x="425" y="-121" on="0"/>
        <pt x="699" y="-273" on="0"/>
        <pt x="895" y="-273" on="1"/>
        <pt x="980" y="-273" on="0"/>
        <pt x="1161" y="-235" on="0"/>
        <pt x="1226" y="-206" on="1"/>
        <pt x="1264" y="-364" on="1"/>
        <pt x="1198" y="-407" on="0"/>
        <pt x="990" y="-453" on="0"/>
        <pt x="891" y="-453" on="1"/>
        <pt x="634" y="-453" on="0"/>
        <pt x="270" y="-257" on="0"/>
        <pt x="79" y="125" on="0"/>
        <pt x="79" y="401" on="1"/>
        <pt x="79" y="441" on="0"/>
        <pt x="80" y="461" on="1"/>
        <pt x="92" y="735" on="0"/>
        <pt x="316" y="1168" on="0"/>
        <pt x="708" y="1414" on="0"/>
        <pt x="964" y="1414" on="1"/>
      </contour>
      <contour>
        <pt x="918" y="166" on="0"/>
        <pt x="1008" y="242" on="0"/>
        <pt x="1039" y="333" on="1"/>
        <pt x="1080" y="797" on="1"/>
        <pt x="1044" y="808" on="0"/>
        <pt x="1004" y="808" on="1"/>
        <pt x="890" y="808" on="0"/>
        <pt x="764" y="620" on="0"/>
        <pt x="745" y="433" on="1"/>
        <pt x="742" y="400" on="0"/>
        <pt x="742" y="372" on="1"/>
        <pt x="742" y="271" on="0"/>
        <pt x="810" y="166" on="0"/>
        <pt x="875" y="166" on="1"/>
      </contour>
    </TTGlyph>
    <TTGlyph name="atilde" xMin="63" yMin="-20" xMax="1033" yMax="1535">
      <component glyphName=".ttfautohint" x="63" y="0" flags="0x0"/>
      <component glyphName="a" x="0" y="0" flags="0x0"/>
      <component glyphName="tilde" x="52" y="-4" flags="0x4"/>
    </TTGlyph>
    <TTGlyph name="b" xMin="108" yMin="-20" xMax="1090" yMax="1536">
      <contour>
        <pt x="806" y="1102" on="0"/>
        <pt x="996" y="963" on="0"/>
        <pt x="1090" y="716" on="0"/>
        <pt x="1090" y="553" on="1"/>
        <pt x="1090" y="532" on="1"/>
        <pt x="1090" y="367" on="0"/>
        <pt x="996" y="118" on="0"/>
        <pt x="808" y="-20" on="0"/>
        <pt x="669" y="-20" on="1"/>
        <pt x="496" y="-20" on="0"/>
        <pt x="393" y="115" on="1"/>
        <pt x="379" y="0" on="1"/>
        <pt x="108" y="0" on="1"/>
        <pt x="108" y="1536" on="1"/>
        <pt x="410" y="1536" on="1"/>
        <pt x="410" y="989" on="1"/>
        <pt x="510" y="1102" on="0"/>
        <pt x="667" y="1102" on="1"/>
      </contour>
      <contour>
        <pt x="788" y="553" on="1"/>
        <pt x="788" y="694" on="0"/>
        <pt x="701" y="858" on="0"/>
        <pt x="591" y="858" on="1"/>
        <pt x="461" y="858" on="0"/>
        <pt x="410" y="753" on="1"/>
        <pt x="410" y="329" on="1"/>
        <pt x="460" y="224" on="0"/>
        <pt x="593" y="224" on="1"/>
        <pt x="704" y="224" on="0"/>
        <pt x="788" y="382" on="0"/>
        <pt x="788" y="532" on="1"/>
      </contour>
    </TTGlyph>
    <TTGlyph name="b.ss06" xMin="108" yMin="-20" xMax="1110" yMax="1536">
      <contour>
        <pt x="807" y="1102" on="0"/>
        <pt x="1007" y="965" on="0"/>
        <pt x="1110" y="715" on="0"/>
        <pt x="1110" y="550" on="1"/>
        <pt x="1110" y="529" on="1"/>
        <pt x="1110" y="370" on="0"/>
        <pt x="1007" y="121" on="0"/>
        <pt x="808" y="-20" on="0"/>
        <pt x="669" y="-20" on="1"/>
        <pt x="492" y="-20" on="0"/>
        <pt x="388" y="121" on="1"/>
        <pt x="369" y="0" on="1"/>
        <pt x="108" y="0" on="1"/>
        <pt x="108" y="1536" on="1"/>
        <pt x="410" y="1536" on="1"/>
        <pt x="410" y="989" on="1"/>
        <pt x="510" y="1102" on="0"/>
        <pt x="667" y="1102" on="1"/>
      </contour>
      <contour>
        <pt x="808" y="550" on="1"/>
        <pt x="808" y="691" on="0"/>
        <pt x="703" y="858" on="0"/>
        <pt x="591" y="858" on="1"/>
        <pt x="464" y="858" on="0"/>
        <pt x="410" y="764" on="1"/>
        <pt x="410" y="319" on="1"/>
        <pt x="466" y="224" on="0"/>
        <pt x="593" y="224" on="1"/>
        <pt x="705" y="224" on="0"/>
        <pt x="808" y="390" on="0"/>
        <pt x="808" y="529" on="1"/>
      </contour>
    </TTGlyph>
    <TTGlyph name="backslash" xMin="-5" yMin="-125" xMax="913" yMax="1456">
      <contour>
        <pt x="305" y="1456" on="1"/>
        <pt x="913" y="-125" on="1"/>
        <pt x="602" y="-125" on="1"/>
        <pt x="-5" y="1456" on="1"/>
      </contour>
    </TTGlyph>
    <TTGlyph name="bar" xMin="173" yMin="-270" xMax="351" yMax="1456">
      <contour>
        <pt x="173" y="-270" on="1"/>
        <pt x="173" y="1456" on="1"/>
        <pt x="351" y="1456" on="1"/>
        <pt x="351" y="-270" on="1"/>
      </contour>
    </TTGlyph>
    <TTGlyph name="braceleft" xMin="46" yMin="-360" xMax="638" yMax="1597">
      <contour>
        <pt x="489" y="-10" on="0"/>
        <pt x="556" y="-162" on="0"/>
        <pt x="638" y="-192" on="1"/>
        <pt x="580" y="-360" on="1"/>
        <pt x="386" y="-306" on="0"/>
        <pt x="220" y="-65" on="0"/>
        <pt x="220" y="106" on="1"/>
        <pt x="220" y="309" on="1"/>
        <pt x="220" y="405" on="0"/>
        <pt x="135" y="511" on="0"/>
        <pt x="46" y="511" on="1"/>
        <pt x="46" y="726" on="1"/>
        <pt x="135" y="726" on="0"/>
        <pt x="220" y="832" on="0"/>
        <pt x="220" y="929" on="1"/>
        <pt x="220" y="1132" on="1"/>
        <pt x="220" y="1303" on="0"/>
        <pt x="386" y="1543" on="0"/>
        <pt x="580" y="1597" on="1"/>
        <pt x="638" y="1430" on="1"/>
        <pt x="556" y="1400" on="0"/>
        <pt x="489" y="1248" on="0"/>
        <pt x="489" y="1132" on="1"/>
        <pt x="489" y="929" on="1"/>
        <pt x="489" y="826" on="0"/>
        <pt x="400" y="665" on="0"/>
        <pt x="309" y="619" on="1"/>
        <pt x="400" y="573" on="0"/>
        <pt x="489" y="412" on="0"/>
        <pt x="489" y="309" on="1"/>
        <pt x="489" y="106" on="1"/>
      </contour>
    </TTGlyph>
    <TTGlyph name="braceright" xMin="36" yMin="-360" xMax="628" yMax="1597">
      <contour>
        <pt x="454" y="832" on="0"/>
        <pt x="539" y="726" on="0"/>
        <pt x="628" y="726" on="1"/>
        <pt x="628" y="511" on="1"/>
        <pt x="539" y="511" on="0"/>
        <pt x="454" y="405" on="0"/>
        <pt x="454" y="309" on="1"/>
        <pt x="454" y="106" on="1"/>
        <pt x="454" y="-65" on="0"/>
        <pt x="288" y="-306" on="0"/>
        <pt x="94" y="-360" on="1"/>
        <pt x="36" y="-192" on="1"/>
        <pt x="118" y="-162" on="0"/>
        <pt x="186" y="-9" on="0"/>
        <pt x="186" y="106" on="1"/>
        <pt x="186" y="309" on="1"/>
        <pt x="186" y="413" on="0"/>
        <pt x="277" y="574" on="0"/>
        <pt x="371" y="619" on="1"/>
        <pt x="277" y="664" on="0"/>
        <pt x="186" y="825" on="0"/>
        <pt x="186" y="929" on="1"/>
        <pt x="186" y="1132" on="1"/>
        <pt x="186" y="1247" on="0"/>
        <pt x="118" y="1400" on="0"/>
        <pt x="36" y="1430" on="1"/>
        <pt x="94" y="1597" on="1"/>
        <pt x="288" y="1543" on="0"/>
        <pt x="454" y="1303" on="0"/>
        <pt x="454" y="1132" on="1"/>
        <pt x="454" y="929" on="1"/>
      </contour>
    </TTGlyph>
    <TTGlyph name="bracketleft" xMin="117" yMin="-343" xMax="556" yMax="1699">
      <contour>
        <pt x="420" y="1467" on="1"/>
        <pt x="420" y="-112" on="1"/>
        <pt x="556" y="-112" on="1"/>
        <pt x="556" y="-343" on="1"/>
        <pt x="117" y="-343" on="1"/>
        <pt x="117" y="1699" on="1"/>
        <pt x="556" y="1699" on="1"/>
        <pt x="556" y="1467" on="1"/>
      </contour>
    </TTGlyph>
    <TTGlyph name="bracketright" xMin="14" yMin="-343" xMax="453" yMax="1699">
      <contour>
        <pt x="453" y="1699" on="1"/>
        <pt x="453" y="-343" on="1"/>
        <pt x="14" y="-343" on="1"/>
        <pt x="14" y="-112" on="1"/>
        <pt x="151" y="-112" on="1"/>
        <pt x="151" y="1467" on="1"/>
        <pt x="14" y="1467" on="1"/>
        <pt x="14" y="1699" on="1"/>
      </contour>
    </TTGlyph>
    <TTGlyph name="brokenbar" xMin="126" yMin="-270" xMax="394" yMax="1456">
      <contour>
        <pt x="126" y="698" on="1"/>
        <pt x="126" y="1456" on="1"/>
        <pt x="394" y="1456" on="1"/>
        <pt x="394" y="698" on="1"/>
      </contour>
      <contour>
        <pt x="126" y="525" on="1"/>
        <pt x="394" y="525" on="1"/>
        <pt x="394" y="-270" on="1"/>
        <pt x="126" y="-270" on="1"/>
      </contour>
    </TTGlyph>
    <TTGlyph name="bullet" xMin="135" yMin="496" xMax="619" yMax="1000">
      <contour>
        <pt x="135" y="833" on="0"/>
        <pt x="195" y="940" on="0"/>
        <pt x="304" y="1000" on="0"/>
        <pt x="376" y="1000" on="1"/>
        <pt x="450" y="1000" on="0"/>
        <pt x="560" y="940" on="0"/>
        <pt x="619" y="833" on="0"/>
        <pt x="619" y="765" on="1"/>
        <pt x="619" y="728" on="1"/>
        <pt x="619" y="660" on="0"/>
        <pt x="560" y="555" on="0"/>
        <pt x="451" y="496" on="0"/>
        <pt x="378" y="496" on="1"/>
        <pt x="305" y="496" on="0"/>
        <pt x="195" y="555" on="0"/>
        <pt x="135" y="660" on="0"/>
        <pt x="135" y="728" on="1"/>
        <pt x="135" y="765" on="1"/>
      </contour>
    </TTGlyph>
    <TTGlyph name="c" xMin="63" yMin="-20" xMax="1015" yMax="1102">
      <contour>
        <pt x="1015" y="379" on="1"/>
        <pt x="1015" y="264" on="0"/>
        <pt x="895" y="82" on="0"/>
        <pt x="690" y="-20" on="0"/>
        <pt x="565" y="-20" on="1"/>
        <pt x="402" y="-20" on="0"/>
        <pt x="176" y="122" on="0"/>
        <pt x="63" y="370" on="0"/>
        <pt x="63" y="528" on="1"/>
        <pt x="63" y="554" on="1"/>
        <pt x="63" y="712" on="0"/>
        <pt x="176" y="960" on="0"/>
        <pt x="401" y="1102" on="0"/>
        <pt x="563" y="1102" on="1"/>
        <pt x="696" y="1102" on="0"/>
        <pt x="901" y="999" on="0"/>
        <pt x="1015" y="806" on="0"/>
        <pt x="1015" y="675" on="1"/>
        <pt x="732" y="675" on="1"/>
        <pt x="731" y="755" on="0"/>
        <pt x="639" y="859" on="0"/>
        <pt x="557" y="859" on="1"/>
        <pt x="447" y="859" on="0"/>
        <pt x="365" y="694" on="0"/>
        <pt x="365" y="554" on="1"/>
        <pt x="365" y="528" on="1"/>
        <pt x="365" y="385" on="0"/>
        <pt x="446" y="223" on="0"/>
        <pt x="559" y="223" on="1"/>
        <pt x="637" y="223" on="0"/>
        <pt x="731" y="307" on="0"/>
        <pt x="732" y="379" on="1"/>
      </contour>
    </TTGlyph>
    <TTGlyph name="c.ss06" xMin="65" yMin="-20" xMax="1043" yMax="1102">
      <contour>
        <pt x="1043" y="379" on="1"/>
        <pt x="1039" y="264" on="0"/>
        <pt x="916" y="82" on="0"/>
        <pt x="709" y="-20" on="0"/>
        <pt x="584" y="-20" on="1"/>
        <pt x="421" y="-20" on="0"/>
        <pt x="186" y="123" on="0"/>
        <pt x="65" y="372" on="0"/>
        <pt x="65" y="528" on="1"/>
        <pt x="65" y="554" on="1"/>
        <pt x="65" y="710" on="0"/>
        <pt x="186" y="959" on="0"/>
        <pt x="420" y="1102" on="0"/>
        <pt x="582" y="1102" on="1"/>
        <pt x="715" y="1102" on="0"/>
        <pt x="921" y="999" on="0"/>
        <pt x="1039" y="806" on="0"/>
        <pt x="1043" y="675" on="1"/>
        <pt x="760" y="675" on="1"/>
        <pt x="757" y="755" on="0"/>
        <pt x="659" y="859" on="0"/>
        <pt x="576" y="859" on="1"/>
        <pt x="465" y="859" on="0"/>
        <pt x="367" y="689" on="0"/>
        <pt x="367" y="554" on="1"/>
        <pt x="367" y="528" on="1"/>
        <pt x="367" y="390" on="0"/>
        <pt x="464" y="223" on="0"/>
        <pt x="578" y="223" on="1"/>
        <pt x="656" y="223" on="0"/>
        <pt x="757" y="308" on="0"/>
        <pt x="760" y="379" on="1"/>
      </contour>
    </TTGlyph>
    <TTGlyph name="ccedilla" xMin="63" yMin="-468" xMax="1015" yMax="1102">
      <component glyphName=".ttfautohint" x="63" y="0" flags="0x0"/>
      <component glyphName="c" x="0" y="0" flags="0x0"/>
      <component glyphName="cedilla" x="322" y="-2" flags="0x4"/>
    </TTGlyph>
    <TTGlyph name="cedilla" xMin="95" yMin="-466" xMax="492" yMax="8">
      <contour>
        <pt x="342" y="-51" on="1"/>
        <pt x="406" y="-62" on="0"/>
        <pt x="492" y="-145" on="0"/>
        <pt x="492" y="-224" on="1"/>
        <pt x="492" y="-297" on="0"/>
        <pt x="411" y="-406" on="0"/>
        <pt x="251" y="-466" on="0"/>
        <pt x="136" y="-466" on="1"/>
        <pt x="129" y="-292" on="1"/>
        <pt x="178" y="-292" on="0"/>
        <pt x="236" y="-253" on="0"/>
        <pt x="236" y="-212" on="1"/>
        <pt x="236" y="-174" on="0"/>
        <pt x="172" y="-141" on="0"/>
        <pt x="95" y="-136" on="1"/>
        <pt x="126" y="8" on="1"/>
        <pt x="353" y="8" on="1"/>
      </contour>
    </TTGlyph>
    <TTGlyph name="cent" xMin="100" yMin="-245" xMax="1052" yMax="1318">
      <contour>
        <pt x="674" y="223" on="0"/>
        <pt x="768" y="307" on="0"/>
        <pt x="769" y="379" on="1"/>
        <pt x="1052" y="379" on="1"/>
        <pt x="1052" y="279" on="0"/>
        <pt x="962" y="115" on="0"/>
        <pt x="803" y="8" on="0"/>
        <pt x="702" y="-11" on="1"/>
        <pt x="702" y="-245" on="1"/>
        <pt x="502" y="-245" on="1"/>
        <pt x="502" y="-12" on="1"/>
        <pt x="371" y="9" on="0"/>
        <pt x="190" y="158" on="0"/>
        <pt x="100" y="387" on="0"/>
        <pt x="100" y="528" on="1"/>
        <pt x="100" y="554" on="1"/>
        <pt x="100" y="695" on="0"/>
        <pt x="191" y="924" on="0"/>
        <pt x="371" y="1074" on="0"/>
        <pt x="502" y="1095" on="1"/>
        <pt x="502" y="1318" on="1"/>
        <pt x="702" y="1318" on="1"/>
        <pt x="702" y="1094" on="1"/>
        <pt x="808" y="1075" on="0"/>
        <pt x="965" y="965" on="0"/>
        <pt x="1052" y="789" on="0"/>
        <pt x="1052" y="675" on="1"/>
        <pt x="769" y="675" on="1"/>
        <pt x="768" y="755" on="0"/>
        <pt x="676" y="859" on="0"/>
        <pt x="594" y="859" on="1"/>
        <pt x="484" y="859" on="0"/>
        <pt x="402" y="694" on="0"/>
        <pt x="402" y="554" on="1"/>
        <pt x="402" y="528" on="1"/>
        <pt x="402" y="385" on="0"/>
        <pt x="483" y="223" on="0"/>
        <pt x="596" y="223" on="1"/>
      </contour>
    </TTGlyph>
    <TTGlyph name="circumflex" xMin="117" yMin="1244" xMax="901" yMax="1536">
      <contour>
        <pt x="901" y="1244" on="1"/>
        <pt x="663" y="1244" on="1"/>
        <pt x="507" y="1385" on="1"/>
        <pt x="352" y="1244" on="1"/>
        <pt x="117" y="1244" on="1"/>
        <pt x="117" y="1260" on="1"/>
        <pt x="420" y="1536" on="1"/>
        <pt x="594" y="1536" on="1"/>
        <pt x="901" y="1256" on="1"/>
      </contour>
    </TTGlyph>
    <TTGlyph name="colon" xMin="123" yMin="-11" xMax="462" yMax="1120">
      <component glyphName=".ttfautohint" x="123" y="0" flags="0x0"/>
      <component glyphName="period" x="-1" y="0" flags="0x0"/>
      <component glyphName="period" x="-1" y="811" flags="0x4"/>
    </TTGlyph>
    <TTGlyph name="comma" xMin="38" yMin="-376" xMax="394" yMax="249">
      <contour>
        <pt x="393" y="-69" on="0"/>
        <pt x="281" y="-301" on="0"/>
        <pt x="193" y="-376" on="1"/>
        <pt x="38" y="-296" on="1"/>
        <pt x="56" y="-262" on="1"/>
        <pt x="84" y="-210" on="0"/>
        <pt x="119" y="-133" on="0"/>
        <pt x="143" y="-32" on="0"/>
        <pt x="143" y="29" on="1"/>
        <pt x="143" y="249" on="1"/>
        <pt x="394" y="249" on="1"/>
        <pt x="393" y="46" on="1"/>
      </contour>
    </TTGlyph>
    <TTGlyph name="copyright" xMin="86" yMin="-20" xMax="1506" yMax="1476">
      <contour>
        <pt x="989" y="1476" on="0"/>
        <pt x="1315" y="1279" on="0"/>
        <pt x="1506" y="936" on="0"/>
        <pt x="1506" y="729" on="1"/>
        <pt x="1506" y="521" on="0"/>
        <pt x="1315" y="178" on="0"/>
        <pt x="989" y="-20" on="0"/>
        <pt x="796" y="-20" on="1"/>
        <pt x="602" y="-20" on="0"/>
        <pt x="277" y="178" on="0"/>
        <pt x="86" y="521" on="0"/>
        <pt x="86" y="729" on="1"/>
        <pt x="86" y="937" on="0"/>
        <pt x="277" y="1279" on="0"/>
        <pt x="602" y="1476" on="0"/>
        <pt x="796" y="1476" on="1"/>
      </contour>
      <contour>
        <pt x="956" y="105" on="0"/>
        <pt x="1225" y="270" on="0"/>
        <pt x="1383" y="556" on="0"/>
        <pt x="1383" y="729" on="1"/>
        <pt x="1383" y="902" on="0"/>
        <pt x="1225" y="1187" on="0"/>
        <pt x="956" y="1351" on="0"/>
        <pt x="796" y="1351" on="1"/>
        <pt x="635" y="1351" on="0"/>
        <pt x="366" y="1187" on="0"/>
        <pt x="208" y="902" on="0"/>
        <pt x="208" y="729" on="1"/>
        <pt x="208" y="556" on="0"/>
        <pt x="366" y="270" on="0"/>
        <pt x="636" y="105" on="0"/>
        <pt x="796" y="105" on="1"/>
      </contour>
      <contour>
        <pt x="1117" y="442" on="0"/>
        <pt x="940" y="282" on="0"/>
        <pt x="782" y="282" on="1"/>
        <pt x="676" y="282" on="0"/>
        <pt x="518" y="379" on="0"/>
        <pt x="433" y="554" on="0"/>
        <pt x="433" y="669" on="1"/>
        <pt x="433" y="788" on="1"/>
        <pt x="433" y="902" on="0"/>
        <pt x="518" y="1078" on="0"/>
        <pt x="676" y="1175" on="0"/>
        <pt x="782" y="1175" on="1"/>
        <pt x="940" y="1175" on="0"/>
        <pt x="1118" y="1015" on="0"/>
        <pt x="1118" y="861" on="1"/>
        <pt x="962" y="861" on="1"/>
        <pt x="962" y="955" on="0"/>
        <pt x="873" y="1040" on="0"/>
        <pt x="782" y="1040" on="1"/>
        <pt x="689" y="1040" on="0"/>
        <pt x="588" y="903" on="0"/>
        <pt x="588" y="789" on="1"/>
        <pt x="588" y="669" on="1"/>
        <pt x="588" y="554" on="0"/>
        <pt x="688" y="417" on="0"/>
        <pt x="782" y="417" on="1"/>
        <pt x="873" y="417" on="0"/>
        <pt x="961" y="501" on="0"/>
        <pt x="961" y="596" on="1"/>
        <pt x="1117" y="596" on="1"/>
      </contour>
    </TTGlyph>
    <TTGlyph name="crossbar" xMin="140" yMin="650" xMax="848" yMax="836">
      <contour>
        <pt x="140" y="650" on="1"/>
        <pt x="140" y="836" on="1"/>
        <pt x="848" y="836" on="1"/>
        <pt x="848" y="650" on="1"/>
      </contour>
    </TTGlyph>
    <TTGlyph name="currency" xMin="78" yMin="-27" xMax="1344" yMax="1265">
      <contour>
        <pt x="1303" y="512" on="0"/>
        <pt x="1252" y="335" on="0"/>
        <pt x="1205" y="259" on="1"/>
        <pt x="1344" y="118" on="1"/>
        <pt x="1202" y="-27" on="1"/>
        <pt x="1071" y="108" on="1"/>
        <pt x="994" y="46" on="0"/>
        <pt x="810" y="-20" on="0"/>
        <pt x="709" y="-20" on="1"/>
        <pt x="608" y="-20" on="0"/>
        <pt x="424" y="45" on="0"/>
        <pt x="348" y="106" on="1"/>
        <pt x="219" y="-26" on="1"/>
        <pt x="78" y="118" on="1"/>
        <pt x="214" y="256" on="1"/>
        <pt x="165" y="331" on="0"/>
        <pt x="113" y="510" on="0"/>
        <pt x="113" y="608" on="1"/>
        <pt x="113" y="710" on="0"/>
        <pt x="169" y="895" on="0"/>
        <pt x="222" y="973" on="1"/>
        <pt x="78" y="1120" on="1"/>
        <pt x="219" y="1264" on="1"/>
        <pt x="361" y="1119" on="1"/>
        <pt x="436" y="1175" on="0"/>
        <pt x="613" y="1234" on="0"/>
        <pt x="709" y="1234" on="1"/>
        <pt x="805" y="1234" on="0"/>
        <pt x="983" y="1173" on="0"/>
        <pt x="1058" y="1117" on="1"/>
        <pt x="1202" y="1265" on="1"/>
        <pt x="1344" y="1120" on="1"/>
        <pt x="1197" y="970" on="1"/>
        <pt x="1248" y="893" on="0"/>
        <pt x="1303" y="709" on="0"/>
        <pt x="1303" y="608" on="1"/>
      </contour>
      <contour>
        <pt x="821" y="171" on="0"/>
        <pt x="1008" y="287" on="0"/>
        <pt x="1118" y="487" on="0"/>
        <pt x="1118" y="608" on="1"/>
        <pt x="1118" y="729" on="0"/>
        <pt x="1008" y="929" on="0"/>
        <pt x="821" y="1044" on="0"/>
        <pt x="709" y="1044" on="1"/>
        <pt x="597" y="1044" on="0"/>
        <pt x="409" y="929" on="0"/>
        <pt x="299" y="729" on="0"/>
        <pt x="299" y="608" on="1"/>
        <pt x="299" y="487" on="0"/>
        <pt x="409" y="287" on="0"/>
        <pt x="597" y="171" on="0"/>
        <pt x="709" y="171" on="1"/>
      </contour>
    </TTGlyph>
    <TTGlyph name="d" xMin="63" yMin="-20" xMax="1045" yMax="1536">
      <contour>
        <pt x="1045" y="1536" on="1"/>
        <pt x="1045" y="0" on="1"/>
        <pt x="773" y="0" on="1"/>
        <pt x="759" y="116" on="1"/>
        <pt x="652" y="-20" on="0"/>
        <pt x="484" y="-20" on="1"/>
        <pt x="353" y="-20" on="0"/>
        <pt x="162" y="121" on="0"/>
        <pt x="63" y="369" on="0"/>
        <pt x="63" y="528" on="1"/>
        <pt x="63" y="549" on="1"/>
        <pt x="63" y="714" on="0"/>
        <pt x="162" y="964" on="0"/>
        <pt x="353" y="1102" on="0"/>
        <pt x="486" y="1102" on="1"/>
        <pt x="642" y="1102" on="0"/>
        <pt x="743" y="985" on="1"/>
        <pt x="743" y="1536" on="1"/>
      </contour>
      <contour>
        <pt x="689" y="224" on="0"/>
        <pt x="743" y="333" on="1"/>
        <pt x="743" y="750" on="1"/>
        <pt x="691" y="858" on="0"/>
        <pt x="563" y="858" on="1"/>
        <pt x="460" y="858" on="0"/>
        <pt x="365" y="690" on="0"/>
        <pt x="365" y="549" on="1"/>
        <pt x="365" y="528" on="1"/>
        <pt x="365" y="389" on="0"/>
        <pt x="458" y="224" on="0"/>
        <pt x="561" y="224" on="1"/>
      </contour>
    </TTGlyph>
    <TTGlyph name="d.ss06" xMin="65" yMin="-20" xMax="1067" yMax="1536">
      <contour>
        <pt x="1067" y="1536" on="1"/>
        <pt x="1067" y="0" on="1"/>
        <pt x="805" y="0" on="1"/>
        <pt x="785" y="122" on="1"/>
        <pt x="677" y="-20" on="0"/>
        <pt x="506" y="-20" on="1"/>
        <pt x="374" y="-20" on="0"/>
        <pt x="174" y="122" on="0"/>
        <pt x="65" y="373" on="0"/>
        <pt x="65" y="530" on="1"/>
        <pt x="65" y="551" on="1"/>
        <pt x="65" y="715" on="0"/>
        <pt x="174" y="964" on="0"/>
        <pt x="374" y="1102" on="0"/>
        <pt x="508" y="1102" on="1"/>
        <pt x="664" y="1102" on="0"/>
        <pt x="765" y="985" on="1"/>
        <pt x="765" y="1536" on="1"/>
      </contour>
      <contour>
        <pt x="706" y="224" on="0"/>
        <pt x="765" y="324" on="1"/>
        <pt x="765" y="761" on="1"/>
        <pt x="708" y="858" on="0"/>
        <pt x="585" y="858" on="1"/>
        <pt x="480" y="858" on="0"/>
        <pt x="367" y="688" on="0"/>
        <pt x="367" y="551" on="1"/>
        <pt x="367" y="530" on="1"/>
        <pt x="367" y="396" on="0"/>
        <pt x="478" y="224" on="0"/>
        <pt x="583" y="224" on="1"/>
      </contour>
    </TTGlyph>
    <TTGlyph name="degree" xMin="126" yMin="925" xMax="671" yMax="1476">
      <contour>
        <pt x="474" y="1476" on="0"/>
        <pt x="598" y="1401" on="0"/>
        <pt x="671" y="1273" on="0"/>
        <pt x="671" y="1198" on="1"/>
        <pt x="671" y="1123" on="0"/>
        <pt x="598" y="998" on="0"/>
        <pt x="474" y="925" on="0"/>
        <pt x="401" y="925" on="1"/>
        <pt x="327" y="925" on="0"/>
        <pt x="201" y="998" on="0"/>
        <pt x="126" y="1123" on="0"/>
        <pt x="126" y="1198" on="1"/>
        <pt x="126" y="1273" on="0"/>
        <pt x="201" y="1401" on="0"/>
        <pt x="327" y="1476" on="0"/>
        <pt x="401" y="1476" on="1"/>
      </contour>
      <contour>
        <pt x="452" y="1074" on="0"/>
        <pt x="522" y="1145" on="0"/>
        <pt x="522" y="1198" on="1"/>
        <pt x="522" y="1253" on="0"/>
        <pt x="452" y="1326" on="0"/>
        <pt x="401" y="1326" on="1"/>
        <pt x="367" y="1326" on="0"/>
        <pt x="309" y="1292" on="0"/>
        <pt x="275" y="1234" on="0"/>
        <pt x="275" y="1198" on="1"/>
        <pt x="275" y="1163" on="0"/>
        <pt x="309" y="1107" on="0"/>
        <pt x="367" y="1074" on="0"/>
        <pt x="401" y="1074" on="1"/>
      </contour>
    </TTGlyph>
    <TTGlyph name="dieresis" xMin="95" yMin="1236" xMax="874" yMax="1495">
      <contour>
        <pt x="276" y="1495" on="0"/>
        <pt x="341" y="1461" on="0"/>
        <pt x="378" y="1401" on="0"/>
        <pt x="378" y="1365" on="1"/>
        <pt x="378" y="1329" on="0"/>
        <pt x="341" y="1270" on="0"/>
        <pt x="276" y="1236" on="0"/>
        <pt x="236" y="1236" on="1"/>
        <pt x="196" y="1236" on="0"/>
        <pt x="132" y="1270" on="0"/>
        <pt x="95" y="1329" on="0"/>
        <pt x="95" y="1365" on="1"/>
        <pt x="95" y="1420" on="0"/>
        <pt x="176" y="1495" on="0"/>
        <pt x="236" y="1495" on="1"/>
      </contour>
      <contour>
        <pt x="793" y="1494" on="0"/>
        <pt x="874" y="1420" on="0"/>
        <pt x="874" y="1365" on="1"/>
        <pt x="874" y="1310" on="0"/>
        <pt x="793" y="1236" on="0"/>
        <pt x="732" y="1236" on="1"/>
        <pt x="671" y="1236" on="0"/>
        <pt x="590" y="1310" on="0"/>
        <pt x="590" y="1365" on="1"/>
        <pt x="590" y="1420" on="0"/>
        <pt x="671" y="1494" on="0"/>
        <pt x="732" y="1494" on="1"/>
      </contour>
    </TTGlyph>
    <TTGlyph name="divide" xMin="63" yMin="122" xMax="1095" yMax="1245">
      <contour>
        <pt x="655" y="1245" on="0"/>
        <pt x="749" y="1157" on="0"/>
        <pt x="749" y="1088" on="1"/>
        <pt x="749" y="1020" on="0"/>
        <pt x="655" y="933" on="0"/>
        <pt x="579" y="933" on="1"/>
        <pt x="503" y="933" on="0"/>
        <pt x="410" y="1020" on="0"/>
        <pt x="410" y="1088" on="1"/>
        <pt x="410" y="1157" on="0"/>
        <pt x="503" y="1245" on="0"/>
        <pt x="579" y="1245" on="1"/>
      </contour>
      <contour>
        <pt x="63" y="568" on="1"/>
        <pt x="63" y="804" on="1"/>
        <pt x="1095" y="804" on="1"/>
        <pt x="1095" y="568" on="1"/>
      </contour>
      <contour>
        <pt x="656" y="434" on="0"/>
        <pt x="749" y="347" on="0"/>
        <pt x="749" y="278" on="1"/>
        <pt x="749" y="209" on="0"/>
        <pt x="656" y="122" on="0"/>
        <pt x="579" y="122" on="1"/>
        <pt x="503" y="122" on="0"/>
        <pt x="410" y="209" on="0"/>
        <pt x="410" y="278" on="1"/>
        <pt x="410" y="347" on="0"/>
        <pt x="503" y="434" on="0"/>
        <pt x="579" y="434" on="1"/>
      </contour>
    </TTGlyph>
    <TTGlyph name="dollar" xMin="90" yMin="-216" xMax="1086" yMax="1687">
      <contour>
        <pt x="795" y="798" on="0"/>
        <pt x="978" y="683" on="0"/>
        <pt x="1084" y="513" on="0"/>
        <pt x="1084" y="387" on="1"/>
        <pt x="1084" y="271" on="0"/>
        <pt x="986" y="99" on="0"/>
        <pt x="806" y="-4" on="0"/>
        <pt x="685" y="-17" on="1"/>
        <pt x="685" y="-216" on="1"/>
        <pt x="526" y="-216" on="1"/>
        <pt x="526" y="-17" on="1"/>
        <pt x="406" y="-4" on="0"/>
        <pt x="210" y="102" on="0"/>
        <pt x="90" y="308" on="0"/>
        <pt x="90" y="461" on="1"/>
        <pt x="392" y="461" on="1"/>
        <pt x="392" y="333" on="0"/>
        <pt x="512" y="220" on="0"/>
        <pt x="604" y="220" on="1"/>
        <pt x="691" y="220" on="0"/>
        <pt x="783" y="311" on="0"/>
        <pt x="783" y="385" on="1"/>
        <pt x="783" y="440" on="0"/>
        <pt x="744" y="515" on="0"/>
        <pt x="659" y="573" on="0"/>
        <pt x="584" y="602" on="1"/>
        <pt x="434" y="660" on="0"/>
        <pt x="250" y="773" on="0"/>
        <pt x="144" y="943" on="0"/>
        <pt x="144" y="1070" on="1"/>
        <pt x="144" y="1182" on="0"/>
        <pt x="244" y="1356" on="0"/>
        <pt x="425" y="1462" on="0"/>
        <pt x="546" y="1474" on="1"/>
        <pt x="546" y="1687" on="1"/>
        <pt x="705" y="1687" on="1"/>
        <pt x="705" y="1471" on="1"/>
        <pt x="821" y="1454" on="0"/>
        <pt x="993" y="1334" on="0"/>
        <pt x="1086" y="1136" on="0"/>
        <pt x="1086" y="1006" on="1"/>
        <pt x="785" y="1006" on="1"/>
        <pt x="785" y="1120" on="0"/>
        <pt x="691" y="1236" on="0"/>
        <pt x="610" y="1236" on="1"/>
        <pt x="528" y="1236" on="0"/>
        <pt x="446" y="1143" on="0"/>
        <pt x="446" y="1068" on="1"/>
        <pt x="446" y="1019" on="0"/>
        <pt x="483" y="949" on="0"/>
        <pt x="569" y="889" on="0"/>
        <pt x="647" y="858" on="1"/>
      </contour>
    </TTGlyph>
    <TTGlyph name="dollar.smcp" xMin="58" yMin="-237" xMax="1031" yMax="1395">
      <contour>
        <pt x="741" y="678" on="0"/>
        <pt x="933" y="582" on="0"/>
        <pt x="1028" y="434" on="0"/>
        <pt x="1028" y="325" on="1"/>
        <pt x="1028" y="181" on="0"/>
        <pt x="825" y="5" on="0"/>
        <pt x="648" y="-12" on="1"/>
        <pt x="648" y="-237" on="1"/>
        <pt x="488" y="-237" on="1"/>
        <pt x="488" y="-12" on="1"/>
        <pt x="370" y="-1" on="0"/>
        <pt x="176" y="89" on="0"/>
        <pt x="58" y="255" on="0"/>
        <pt x="58" y="374" on="1"/>
        <pt x="360" y="374" on="1"/>
        <pt x="360" y="285" on="0"/>
        <pt x="468" y="205" on="0"/>
        <pt x="583" y="205" on="1"/>
        <pt x="666" y="205" on="0"/>
        <pt x="742" y="272" on="0"/>
        <pt x="742" y="315" on="1"/>
        <pt x="742" y="352" on="0"/>
        <pt x="703" y="405" on="0"/>
        <pt x="609" y="448" on="0"/>
        <pt x="527" y="467" on="1"/>
        <pt x="372" y="503" on="0"/>
        <pt x="187" y="593" on="0"/>
        <pt x="98" y="730" on="0"/>
        <pt x="98" y="835" on="1"/>
        <pt x="98" y="928" on="0"/>
        <pt x="197" y="1077" on="0"/>
        <pt x="374" y="1169" on="0"/>
        <pt x="488" y="1179" on="1"/>
        <pt x="488" y="1395" on="1"/>
        <pt x="648" y="1395" on="1"/>
        <pt x="648" y="1175" on="1"/>
        <pt x="763" y="1161" on="0"/>
        <pt x="936" y="1069" on="0"/>
        <pt x="1031" y="917" on="0"/>
        <pt x="1031" y="817" on="1"/>
        <pt x="729" y="817" on="1"/>
        <pt x="729" y="855" on="0"/>
        <pt x="686" y="921" on="0"/>
        <pt x="604" y="960" on="0"/>
        <pt x="548" y="960" on="1"/>
        <pt x="494" y="960" on="0"/>
        <pt x="419" y="926" on="0"/>
        <pt x="383" y="874" on="0"/>
        <pt x="383" y="847" on="1"/>
        <pt x="383" y="815" on="0"/>
        <pt x="423" y="769" on="0"/>
        <pt x="512" y="730" on="0"/>
        <pt x="589" y="711" on="1"/>
      </contour>
    </TTGlyph>
    <TTGlyph name="dotlessi" xMin="131" yMin="0" xMax="434" yMax="1082">
      <contour>
        <pt x="131" y="0" on="1"/>
        <pt x="131" y="1082" on="1"/>
        <pt x="434" y="1082" on="1"/>
        <pt x="434" y="0" on="1"/>
      </contour>
    </TTGlyph>
    <TTGlyph name="e" xMin="70" yMin="-20" xMax="1060" yMax="1102">
      <contour>
        <pt x="1060" y="443" on="1"/>
        <pt x="377" y="443" on="1"/>
        <pt x="393" y="342" on="0"/>
        <pt x="527" y="223" on="0"/>
        <pt x="632" y="223" on="1"/>
        <pt x="710" y="223" on="0"/>
        <pt x="843" y="282" on="0"/>
        <pt x="890" y="341" on="1"/>
        <pt x="1035" y="174" on="1"/>
        <pt x="978" y="92" on="0"/>
        <pt x="759" y="-20" on="0"/>
        <pt x="612" y="-20" on="1"/>
        <pt x="446" y="-20" on="0"/>
        <pt x="201" y="120" on="0"/>
        <pt x="70" y="360" on="0"/>
        <pt x="70" y="505" on="1"/>
        <pt x="70" y="543" on="1"/>
        <pt x="70" y="705" on="0"/>
        <pt x="192" y="959" on="0"/>
        <pt x="422" y="1102" on="0"/>
        <pt x="579" y="1102" on="1"/>
        <pt x="732" y="1102" on="0"/>
        <pt x="948" y="972" on="0"/>
        <pt x="1060" y="733" on="0"/>
        <pt x="1060" y="571" on="1"/>
      </contour>
      <contour>
        <pt x="764" y="669" on="1"/>
        <pt x="762" y="757" on="0"/>
        <pt x="669" y="859" on="0"/>
        <pt x="577" y="859" on="1"/>
        <pt x="490" y="859" on="0"/>
        <pt x="394" y="745" on="0"/>
        <pt x="379" y="645" on="1"/>
        <pt x="764" y="645" on="1"/>
      </contour>
    </TTGlyph>
    <TTGlyph name="e.ss07" xMin="70" yMin="-20" xMax="1060" yMax="1102">
      <contour>
        <pt x="1060" y="443" on="1"/>
        <pt x="377" y="443" on="1"/>
        <pt x="393" y="339" on="0"/>
        <pt x="540" y="223" on="0"/>
        <pt x="671" y="223" on="1"/>
        <pt x="743" y="223" on="0"/>
        <pt x="902" y="262" on="0"/>
        <pt x="958" y="293" on="1"/>
        <pt x="1013" y="82" on="1"/>
        <pt x="948" y="39" on="0"/>
        <pt x="749" y="-20" on="0"/>
        <pt x="627" y="-20" on="1"/>
        <pt x="459" y="-20" on="0"/>
        <pt x="206" y="119" on="0"/>
        <pt x="70" y="359" on="0"/>
        <pt x="70" y="508" on="1"/>
        <pt x="70" y="547" on="1"/>
        <pt x="70" y="708" on="0"/>
        <pt x="192" y="959" on="0"/>
        <pt x="422" y="1102" on="0"/>
        <pt x="579" y="1102" on="1"/>
        <pt x="732" y="1102" on="0"/>
        <pt x="948" y="974" on="0"/>
        <pt x="1060" y="738" on="0"/>
        <pt x="1060" y="578" on="1"/>
      </contour>
      <contour>
        <pt x="764" y="671" on="1"/>
        <pt x="764" y="759" on="0"/>
        <pt x="674" y="859" on="0"/>
        <pt x="579" y="859" on="1"/>
        <pt x="492" y="859" on="0"/>
        <pt x="394" y="745" on="0"/>
        <pt x="379" y="645" on="1"/>
        <pt x="764" y="645" on="1"/>
      </contour>
    </TTGlyph>
    <TTGlyph name="eacute" xMin="70" yMin="-20" xMax="1060" yMax="1537">
      <component glyphName=".ttfautohint" x="70" y="0" flags="0x0"/>
      <component glyphName="e" x="0" y="0" flags="0x0"/>
      <component glyphName="acutecomb" x="1077" y="1" flags="0x4"/>
    </TTGlyph>
    <TTGlyph name="ecircumflex" xMin="70" yMin="-20" xMax="1060" yMax="1537">
      <component glyphName=".ttfautohint" x="70" y="0" flags="0x0"/>
      <component glyphName="e" x="0" y="0" flags="0x0"/>
      <component glyphName="circumflex" x="36" y="1" flags="0x4"/>
    </TTGlyph>
    <TTGlyph name="edieresis" xMin="70" yMin="-20" xMax="1060" yMax="1496">
      <component glyphName=".ttfautohint" x="70" y="0" flags="0x0"/>
      <component glyphName="e" x="0" y="0" flags="0x0"/>
      <component glyphName="dieresis" x="57" y="1" flags="0x4"/>
    </TTGlyph>
    <TTGlyph name="egrave" xMin="70" yMin="-20" xMax="1060" yMax="1537">
      <component glyphName=".ttfautohint" x="70" y="0" flags="0x0"/>
      <component glyphName="e" x="0" y="0" flags="0x0"/>
      <component glyphName="gravecomb" x="1085" y="1" flags="0x4"/>
    </TTGlyph>
    <TTGlyph name="eight" xMin="92" yMin="-20" xMax="1085" yMax="1477">
      <contour>
        <pt x="965" y="699" on="0"/>
        <pt x="1085" y="518" on="0"/>
        <pt x="1085" y="400" on="1"/>
        <pt x="1085" y="265" on="0"/>
        <pt x="958" y="76" on="0"/>
        <pt x="735" y="-20" on="0"/>
        <pt x="590" y="-20" on="1"/>
        <pt x="446" y="-20" on="0"/>
        <pt x="221" y="76" on="0"/>
        <pt x="92" y="265" on="0"/>
        <pt x="92" y="400" on="1"/>
        <pt x="92" y="518" on="0"/>
        <pt x="214" y="700" on="0"/>
        <pt x="321" y="751" on="1"/>
        <pt x="228" y="800" on="0"/>
        <pt x="124" y="965" on="0"/>
        <pt x="124" y="1069" on="1"/>
        <pt x="124" y="1198" on="0"/>
        <pt x="242" y="1382" on="0"/>
        <pt x="453" y="1477" on="0"/>
        <pt x="589" y="1477" on="1"/>
        <pt x="726" y="1477" on="0"/>
        <pt x="937" y="1382" on="0"/>
        <pt x="1055" y="1198" on="0"/>
        <pt x="1055" y="1069" on="1"/>
        <pt x="1055" y="965" on="0"/>
        <pt x="951" y="800" on="0"/>
        <pt x="858" y="750" on="1"/>
      </contour>
      <contour>
        <pt x="512" y="1234" on="0"/>
        <pt x="426" y="1137" on="0"/>
        <pt x="426" y="1053" on="1"/>
        <pt x="426" y="969" on="0"/>
        <pt x="513" y="868" on="0"/>
        <pt x="590" y="868" on="1"/>
        <pt x="667" y="868" on="0"/>
        <pt x="753" y="968" on="0"/>
        <pt x="753" y="1053" on="1"/>
        <pt x="753" y="1136" on="0"/>
        <pt x="666" y="1234" on="0"/>
        <pt x="589" y="1234" on="1"/>
      </contour>
      <contour>
        <pt x="679" y="223" on="0"/>
        <pt x="783" y="330" on="0"/>
        <pt x="783" y="423" on="1"/>
        <pt x="783" y="517" on="0"/>
        <pt x="677" y="624" on="0"/>
        <pt x="588" y="624" on="1"/>
        <pt x="500" y="624" on="0"/>
        <pt x="395" y="517" on="0"/>
        <pt x="395" y="423" on="1"/>
        <pt x="395" y="331" on="0"/>
        <pt x="501" y="223" on="0"/>
        <pt x="590" y="223" on="1"/>
      </contour>
    </TTGlyph>
    <TTGlyph name="eight.frac" xMin="71" yMin="653" xMax="693" yMax="1465">
      <component glyphName=".ttfautohint" x="71" y="653" flags="0x0"/>
      <component glyphName="eight.sup" x="0" y="664" flags="0x4"/>
    </TTGlyph>
    <TTGlyph name="eight.smcp" xMin="76" yMin="-16" xMax="991" yMax="1182">
      <contour>
        <pt x="890" y="558" on="0"/>
        <pt x="991" y="417" on="0"/>
        <pt x="991" y="322" on="1"/>
        <pt x="991" y="212" on="0"/>
        <pt x="875" y="60" on="0"/>
        <pt x="669" y="-16" on="0"/>
        <pt x="534" y="-16" on="1"/>
        <pt x="401" y="-16" on="0"/>
        <pt x="194" y="60" on="0"/>
        <pt x="76" y="212" on="0"/>
        <pt x="76" y="322" on="1"/>
        <pt x="76" y="417" on="0"/>
        <pt x="178" y="559" on="0"/>
        <pt x="269" y="601" on="1"/>
        <pt x="190" y="641" on="0"/>
        <pt x="104" y="769" on="0"/>
        <pt x="104" y="851" on="1"/>
        <pt x="104" y="957" on="0"/>
        <pt x="213" y="1106" on="0"/>
        <pt x="406" y="1182" on="0"/>
        <pt x="532" y="1182" on="1"/>
        <pt x="660" y="1182" on="0"/>
        <pt x="854" y="1106" on="0"/>
        <pt x="963" y="957" on="0"/>
        <pt x="963" y="851" on="1"/>
        <pt x="963" y="768" on="0"/>
        <pt x="878" y="640" on="0"/>
        <pt x="799" y="600" on="1"/>
      </contour>
      <contour>
        <pt x="472" y="939" on="0"/>
        <pt x="406" y="882" on="0"/>
        <pt x="406" y="831" on="1"/>
        <pt x="406" y="779" on="0"/>
        <pt x="473" y="716" on="0"/>
        <pt x="534" y="716" on="1"/>
        <pt x="597" y="716" on="0"/>
        <pt x="661" y="778" on="0"/>
        <pt x="661" y="831" on="1"/>
        <pt x="661" y="883" on="0"/>
        <pt x="596" y="939" on="0"/>
        <pt x="532" y="939" on="1"/>
      </contour>
      <contour>
        <pt x="604" y="227" on="0"/>
        <pt x="689" y="295" on="0"/>
        <pt x="689" y="352" on="1"/>
        <pt x="689" y="411" on="0"/>
        <pt x="604" y="472" on="0"/>
        <pt x="532" y="472" on="1"/>
        <pt x="462" y="472" on="0"/>
        <pt x="379" y="411" on="0"/>
        <pt x="379" y="352" on="1"/>
        <pt x="379" y="295" on="0"/>
        <pt x="464" y="227" on="0"/>
        <pt x="534" y="227" on="1"/>
      </contour>
    </TTGlyph>
    <TTGlyph name="eight.sup" xMin="71" yMin="-11" xMax="693" yMax="801">
      <contour>
        <pt x="626" y="379" on="0"/>
        <pt x="693" y="283" on="0"/>
        <pt x="693" y="219" on="1"/>
        <pt x="693" y="107" on="0"/>
        <pt x="523" y="-11" on="0"/>
        <pt x="383" y="-11" on="1"/>
        <pt x="243" y="-11" on="0"/>
        <pt x="71" y="107" on="0"/>
        <pt x="71" y="219" on="1"/>
        <pt x="71" y="283" on="0"/>
        <pt x="139" y="379" on="0"/>
        <pt x="201" y="407" on="1"/>
        <pt x="148" y="434" on="0"/>
        <pt x="89" y="521" on="0"/>
        <pt x="89" y="576" on="1"/>
        <pt x="89" y="684" on="0"/>
        <pt x="250" y="801" on="0"/>
        <pt x="381" y="801" on="1"/>
        <pt x="515" y="801" on="0"/>
        <pt x="675" y="684" on="0"/>
        <pt x="675" y="576" on="1"/>
        <pt x="675" y="520" on="0"/>
        <pt x="617" y="434" on="0"/>
        <pt x="565" y="407" on="1"/>
      </contour>
      <contour>
        <pt x="341" y="632" on="0"/>
        <pt x="300" y="596" on="0"/>
        <pt x="300" y="562" on="1"/>
        <pt x="300" y="528" on="0"/>
        <pt x="343" y="487" on="0"/>
        <pt x="383" y="487" on="1"/>
        <pt x="424" y="487" on="0"/>
        <pt x="464" y="528" on="0"/>
        <pt x="464" y="562" on="1"/>
        <pt x="464" y="632" on="0"/>
        <pt x="381" y="632" on="1"/>
      </contour>
      <contour>
        <pt x="429" y="158" on="0"/>
        <pt x="484" y="202" on="0"/>
        <pt x="484" y="240" on="1"/>
        <pt x="484" y="278" on="0"/>
        <pt x="428" y="318" on="0"/>
        <pt x="381" y="318" on="1"/>
        <pt x="336" y="318" on="0"/>
        <pt x="281" y="278" on="0"/>
        <pt x="281" y="240" on="1"/>
        <pt x="281" y="202" on="0"/>
        <pt x="337" y="158" on="0"/>
        <pt x="383" y="158" on="1"/>
      </contour>
    </TTGlyph>
    <TTGlyph name="eight.tnum" xMin="92" yMin="-20" xMax="1085" yMax="1477">
      <component glyphName=".ttfautohint" x="92" y="0" flags="0x0"/>
      <component glyphName="eight" x="0" y="0" flags="0x0"/>
    </TTGlyph>
    <TTGlyph name="ellipsis" xMin="132" yMin="-11" xMax="1419" yMax="309">
      <component glyphName=".ttfautohint" x="132" y="0" flags="0x0"/>
      <component glyphName="period" x="8" y="0" flags="0x0"/>
      <component glyphName="period" x="486" y="0" flags="0x0"/>
      <component glyphName="period" x="956" y="0" flags="0x0"/>
    </TTGlyph>
    <TTGlyph name="emdash" xMin="102" yMin="589" xMax="1491" yMax="836">
      <component glyphName=".ttfautohint" x="102" y="589" flags="0x0"/>
      <component glyphName="minus" x="-128" y="0" scalex="1.6" scaley="1.0" flags="0x0"/>
    </TTGlyph>
    <TTGlyph name="endash" xMin="150" yMin="589" xMax="1191" yMax="836">
      <component glyphName=".ttfautohint" x="150" y="589" flags="0x0"/>
      <component glyphName="minus" x="-23" y="0" scalex="1.2" scaley="1.0" flags="0x0"/>
    </TTGlyph>
    <TTGlyph name="equal" xMin="135" yMin="302" xMax="1037" yMax="982">
      <contour>
        <pt x="135" y="737" on="1"/>
        <pt x="135" y="982" on="1"/>
        <pt x="1037" y="982" on="1"/>
        <pt x="1037" y="737" on="1"/>
      </contour>
      <contour>
        <pt x="135" y="302" on="1"/>
        <pt x="135" y="547" on="1"/>
        <pt x="1037" y="547" on="1"/>
        <pt x="1037" y="302" on="1"/>
      </contour>
    </TTGlyph>
    <TTGlyph name="eth" xMin="79" yMin="-20" xMax="1111" yMax="1579">
      <contour>
        <pt x="977" y="1181" on="0"/>
        <pt x="1111" y="849" on="0"/>
        <pt x="1111" y="653" on="1"/>
        <pt x="1111" y="583" on="1"/>
        <pt x="1111" y="407" on="0"/>
        <pt x="975" y="132" on="0"/>
        <pt x="736" y="-20" on="0"/>
        <pt x="586" y="-20" on="1"/>
        <pt x="438" y="-20" on="0"/>
        <pt x="207" y="109" on="0"/>
        <pt x="79" y="332" on="0"/>
        <pt x="79" y="468" on="1"/>
        <pt x="79" y="617" on="0"/>
        <pt x="186" y="841" on="0"/>
        <pt x="390" y="964" on="0"/>
        <pt x="532" y="964" on="1"/>
        <pt x="666" y="964" on="0"/>
        <pt x="772" y="893" on="1"/>
        <pt x="722" y="1043" on="0"/>
        <pt x="608" y="1150" on="1"/>
        <pt x="421" y="1032" on="1"/>
        <pt x="343" y="1148" on="1"/>
        <pt x="490" y="1241" on="1"/>
        <pt x="375" y="1311" on="0"/>
        <pt x="232" y="1348" on="1"/>
        <pt x="327" y="1579" on="1"/>
        <pt x="565" y="1531" on="0"/>
        <pt x="743" y="1401" on="1"/>
        <pt x="912" y="1507" on="1"/>
        <pt x="989" y="1391" on="1"/>
        <pt x="854" y="1306" on="1"/>
      </contour>
      <contour>
        <pt x="808" y="655" on="1"/>
        <pt x="808" y="660" on="1"/>
        <pt x="778" y="694" on="0"/>
        <pt x="672" y="737" on="0"/>
        <pt x="599" y="737" on="1"/>
        <pt x="492" y="737" on="0"/>
        <pt x="381" y="595" on="0"/>
        <pt x="381" y="468" on="1"/>
        <pt x="381" y="399" on="0"/>
        <pt x="431" y="287" on="0"/>
        <pt x="526" y="223" on="0"/>
        <pt x="590" y="223" on="1"/>
        <pt x="660" y="223" on="0"/>
        <pt x="758" y="307" on="0"/>
        <pt x="808" y="455" on="0"/>
        <pt x="808" y="550" on="1"/>
      </contour>
    </TTGlyph>
    <TTGlyph name="exclam" xMin="119" yMin="-17" xMax="456" yMax="1456">
      <contour>
        <pt x="163" y="453" on="1"/>
        <pt x="127" y="1456" on="1"/>
        <pt x="448" y="1456" on="1"/>
        <pt x="412" y="453" on="1"/>
      </contour>
      <contour>
        <pt x="337" y="301" on="0"/>
        <pt x="414" y="259" on="0"/>
        <pt x="456" y="187" on="0"/>
        <pt x="456" y="142" on="1"/>
        <pt x="456" y="97" on="0"/>
        <pt x="414" y="25" on="0"/>
        <pt x="337" y="-17" on="0"/>
        <pt x="287" y="-17" on="1"/>
        <pt x="237" y="-17" on="0"/>
        <pt x="161" y="25" on="0"/>
        <pt x="119" y="97" on="0"/>
        <pt x="119" y="142" on="1"/>
        <pt x="119" y="187" on="0"/>
        <pt x="161" y="259" on="0"/>
        <pt x="237" y="301" on="0"/>
        <pt x="287" y="301" on="1"/>
      </contour>
    </TTGlyph>
    <TTGlyph name="exclamdown" xMin="127" yMin="-370" xMax="464" yMax="1102">
      <contour>
        <pt x="246" y="784" on="0"/>
        <pt x="169" y="826" on="0"/>
        <pt x="127" y="898" on="0"/>
        <pt x="127" y="943" on="1"/>
        <pt x="127" y="988" on="0"/>
        <pt x="169" y="1060" on="0"/>
        <pt x="246" y="1102" on="0"/>
        <pt x="296" y="1102" on="1"/>
        <pt x="346" y="1102" on="0"/>
        <pt x="422" y="1060" on="0"/>
        <pt x="464" y="988" on="0"/>
        <pt x="464" y="943" on="1"/>
        <pt x="464" y="898" on="0"/>
        <pt x="422" y="826" on="0"/>
        <pt x="346" y="784" on="0"/>
        <pt x="296" y="784" on="1"/>
      </contour>
      <contour>
        <pt x="420" y="633" on="1"/>
        <pt x="456" y="-370" on="1"/>
        <pt x="135" y="-370" on="1"/>
        <pt x="171" y="633" on="1"/>
      </contour>
    </TTGlyph>
    <TTGlyph name="f" xMin="25" yMin="0" xMax="737" yMax="1557">
      <contour>
        <pt x="571" y="1313" on="0"/>
        <pt x="487" y="1241" on="0"/>
        <pt x="487" y="1174" on="1"/>
        <pt x="487" y="1082" on="1"/>
        <pt x="701" y="1082" on="1"/>
        <pt x="701" y="862" on="1"/>
        <pt x="487" y="862" on="1"/>
        <pt x="487" y="0" on="1"/>
        <pt x="185" y="0" on="1"/>
        <pt x="185" y="862" on="1"/>
        <pt x="25" y="862" on="1"/>
        <pt x="25" y="1082" on="1"/>
        <pt x="185" y="1082" on="1"/>
        <pt x="185" y="1174" on="1"/>
        <pt x="185" y="1296" on="0"/>
        <pt x="282" y="1468" on="0"/>
        <pt x="463" y="1557" on="0"/>
        <pt x="586" y="1557" on="1"/>
        <pt x="659" y="1557" on="0"/>
        <pt x="737" y="1537" on="1"/>
        <pt x="735" y="1304" on="1"/>
        <pt x="699" y="1313" on="0"/>
        <pt x="648" y="1313" on="1"/>
      </contour>
    </TTGlyph>
    <TTGlyph name="f_f" xMin="25" yMin="0" xMax="1474" yMax="1557">
      <component glyphName=".ttfautohint" x="25" y="0" flags="0x0"/>
      <component glyphName="f" x="0" y="0" flags="0x0"/>
      <component glyphName="f" x="737" y="0" flags="0x0"/>
    </TTGlyph>
    <TTGlyph name="f_f_i" xMin="25" yMin="0" xMax="1798" yMax="1557">
      <contour>
        <pt x="1143" y="1082" on="1"/>
        <pt x="1355" y="1082" on="1"/>
        <pt x="1355" y="862" on="1"/>
        <pt x="1143" y="862" on="1"/>
        <pt x="1143" y="0" on="1"/>
        <pt x="840" y="0" on="1"/>
        <pt x="840" y="862" on="1"/>
        <pt x="487" y="862" on="1"/>
        <pt x="487" y="0" on="1"/>
        <pt x="185" y="0" on="1"/>
        <pt x="185" y="862" on="1"/>
        <pt x="25" y="862" on="1"/>
        <pt x="25" y="1082" on="1"/>
        <pt x="185" y="1082" on="1"/>
        <pt x="185" y="1174" on="1"/>
        <pt x="185" y="1296" on="0"/>
        <pt x="282" y="1468" on="0"/>
        <pt x="463" y="1557" on="0"/>
        <pt x="586" y="1557" on="1"/>
        <pt x="659" y="1557" on="0"/>
        <pt x="737" y="1537" on="1"/>
        <pt x="735" y="1304" on="1"/>
        <pt x="699" y="1313" on="0"/>
        <pt x="648" y="1313" on="1"/>
        <pt x="571" y="1313" on="0"/>
        <pt x="487" y="1241" on="0"/>
        <pt x="487" y="1174" on="1"/>
        <pt x="487" y="1082" on="1"/>
        <pt x="840" y="1082" on="1"/>
        <pt x="840" y="1121" on="1"/>
        <pt x="840" y="1332" on="0"/>
        <pt x="1093" y="1557" on="0"/>
        <pt x="1323" y="1557" on="1"/>
        <pt x="1404" y="1557" on="0"/>
        <pt x="1561" y="1528" on="0"/>
        <pt x="1658" y="1499" on="1"/>
        <pt x="1615" y="1249" on="1"/>
        <pt x="1541" y="1271" on="0"/>
        <pt x="1422" y="1294" on="0"/>
        <pt x="1342" y="1294" on="1"/>
        <pt x="1244" y="1294" on="0"/>
        <pt x="1143" y="1206" on="0"/>
        <pt x="1143" y="1121" on="1"/>
      </contour>
      <contour>
        <pt x="1798" y="1082" on="1"/>
        <pt x="1798" y="0" on="1"/>
        <pt x="1495" y="0" on="1"/>
        <pt x="1495" y="1082" on="1"/>
      </contour>
    </TTGlyph>
    <TTGlyph name="f_f_l" xMin="25" yMin="0" xMax="1798" yMax="1557">
      <contour>
        <pt x="1381" y="1557" on="0"/>
        <pt x="1683" y="1539" on="0"/>
        <pt x="1798" y="1529" on="1"/>
        <pt x="1798" y="0" on="1"/>
        <pt x="1495" y="0" on="1"/>
        <pt x="1495" y="1304" on="1"/>
        <pt x="1414" y="1313" on="0"/>
        <pt x="1339" y="1313" on="1"/>
        <pt x="1244" y="1313" on="0"/>
        <pt x="1143" y="1233" on="0"/>
        <pt x="1143" y="1157" on="1"/>
        <pt x="1143" y="1082" on="1"/>
        <pt x="1357" y="1082" on="1"/>
        <pt x="1357" y="862" on="1"/>
        <pt x="1143" y="862" on="1"/>
        <pt x="1143" y="0" on="1"/>
        <pt x="840" y="0" on="1"/>
        <pt x="840" y="862" on="1"/>
        <pt x="487" y="862" on="1"/>
        <pt x="487" y="0" on="1"/>
        <pt x="185" y="0" on="1"/>
        <pt x="185" y="862" on="1"/>
        <pt x="25" y="862" on="1"/>
        <pt x="25" y="1082" on="1"/>
        <pt x="185" y="1082" on="1"/>
        <pt x="185" y="1174" on="1"/>
        <pt x="185" y="1296" on="0"/>
        <pt x="282" y="1468" on="0"/>
        <pt x="463" y="1557" on="0"/>
        <pt x="586" y="1557" on="1"/>
        <pt x="659" y="1557" on="0"/>
        <pt x="737" y="1537" on="1"/>
        <pt x="735" y="1304" on="1"/>
        <pt x="699" y="1313" on="0"/>
        <pt x="648" y="1313" on="1"/>
        <pt x="571" y="1313" on="0"/>
        <pt x="487" y="1241" on="0"/>
        <pt x="487" y="1174" on="1"/>
        <pt x="487" y="1082" on="1"/>
        <pt x="840" y="1082" on="1"/>
        <pt x="840" y="1157" on="1"/>
        <pt x="840" y="1350" on="0"/>
        <pt x="1078" y="1557" on="0"/>
        <pt x="1296" y="1557" on="1"/>
      </contour>
    </TTGlyph>
    <TTGlyph name="f_l" xMin="25" yMin="0" xMax="1143" yMax="1557">
      <contour>
        <pt x="726" y="1557" on="0"/>
        <pt x="1028" y="1539" on="0"/>
        <pt x="1143" y="1529" on="1"/>
        <pt x="1143" y="0" on="1"/>
        <pt x="840" y="0" on="1"/>
        <pt x="840" y="1304" on="1"/>
        <pt x="757" y="1313" on="0"/>
        <pt x="683" y="1313" on="1"/>
        <pt x="588" y="1313" on="0"/>
        <pt x="487" y="1233" on="0"/>
        <pt x="487" y="1157" on="1"/>
        <pt x="487" y="1082" on="1"/>
        <pt x="701" y="1082" on="1"/>
        <pt x="701" y="862" on="1"/>
        <pt x="487" y="862" on="1"/>
        <pt x="487" y="0" on="1"/>
        <pt x="185" y="0" on="1"/>
        <pt x="185" y="862" on="1"/>
        <pt x="25" y="862" on="1"/>
        <pt x="25" y="1082" on="1"/>
        <pt x="185" y="1082" on="1"/>
        <pt x="185" y="1157" on="1"/>
        <pt x="185" y="1350" on="0"/>
        <pt x="423" y="1557" on="0"/>
        <pt x="641" y="1557" on="1"/>
      </contour>
    </TTGlyph>
    <TTGlyph name="fi" xMin="20" yMin="0" xMax="1137" yMax="1557">
      <contour>
        <pt x="482" y="1082" on="1"/>
        <pt x="694" y="1082" on="1"/>
        <pt x="694" y="862" on="1"/>
        <pt x="482" y="862" on="1"/>
        <pt x="482" y="0" on="1"/>
        <pt x="180" y="0" on="1"/>
        <pt x="180" y="862" on="1"/>
        <pt x="20" y="862" on="1"/>
        <pt x="20" y="1082" on="1"/>
        <pt x="180" y="1082" on="1"/>
        <pt x="180" y="1121" on="1"/>
        <pt x="180" y="1332" on="0"/>
        <pt x="433" y="1557" on="0"/>
        <pt x="663" y="1557" on="1"/>
        <pt x="743" y="1557" on="0"/>
        <pt x="900" y="1528" on="0"/>
        <pt x="998" y="1499" on="1"/>
        <pt x="955" y="1249" on="1"/>
        <pt x="881" y="1271" on="0"/>
        <pt x="762" y="1294" on="0"/>
        <pt x="682" y="1294" on="1"/>
        <pt x="584" y="1294" on="0"/>
        <pt x="482" y="1206" on="0"/>
        <pt x="482" y="1121" on="1"/>
      </contour>
      <contour>
        <pt x="1137" y="1082" on="1"/>
        <pt x="1137" y="0" on="1"/>
        <pt x="835" y="0" on="1"/>
        <pt x="835" y="1082" on="1"/>
      </contour>
    </TTGlyph>
    <TTGlyph name="five" xMin="99" yMin="-20" xMax="1093" yMax="1456">
      <contour>
        <pt x="219" y="1456" on="1"/>
        <pt x="1044" y="1456" on="1"/>
        <pt x="1044" y="1208" on="1"/>
        <pt x="466" y="1208" on="1"/>
        <pt x="431" y="903" on="1"/>
        <pt x="467" y="924" on="0"/>
        <pt x="583" y="958" on="0"/>
        <pt x="647" y="958" on="1"/>
        <pt x="788" y="958" on="0"/>
        <pt x="988" y="842" on="0"/>
        <pt x="1093" y="622" on="0"/>
        <pt x="1093" y="468" on="1"/>
        <pt x="1093" y="336" on="0"/>
        <pt x="982" y="114" on="0"/>
        <pt x="759" y="-20" on="0"/>
        <pt x="597" y="-20" on="1"/>
        <pt x="468" y="-20" on="0"/>
        <pt x="242" y="84" on="0"/>
        <pt x="101" y="279" on="0"/>
        <pt x="99" y="409" on="1"/>
        <pt x="399" y="409" on="1"/>
        <pt x="407" y="322" on="0"/>
        <pt x="512" y="223" on="0"/>
        <pt x="596" y="223" on="1"/>
        <pt x="697" y="223" on="0"/>
        <pt x="791" y="368" on="0"/>
        <pt x="791" y="487" on="1"/>
        <pt x="791" y="603" on="0"/>
        <pt x="678" y="734" on="0"/>
        <pt x="564" y="734" on="1"/>
        <pt x="494" y="734" on="0"/>
        <pt x="409" y="692" on="0"/>
        <pt x="374" y="656" on="1"/>
        <pt x="134" y="715" on="1"/>
      </contour>
    </TTGlyph>
    <TTGlyph name="five.frac" xMin="67" yMin="653" xMax="691" yMax="1453">
      <component glyphName=".ttfautohint" x="67" y="653" flags="0x0"/>
      <component glyphName="five.sup" x="0" y="664" flags="0x4"/>
    </TTGlyph>
    <TTGlyph name="five.smcp" xMin="73" yMin="-16" xMax="988" yMax="1165">
      <contour>
        <pt x="180" y="1165" on="1"/>
        <pt x="922" y="1165" on="1"/>
        <pt x="922" y="927" on="1"/>
        <pt x="426" y="927" on="1"/>
        <pt x="396" y="727" on="1"/>
        <pt x="432" y="741" on="0"/>
        <pt x="535" y="767" on="0"/>
        <pt x="589" y="767" on="1"/>
        <pt x="783" y="767" on="0"/>
        <pt x="988" y="572" on="0"/>
        <pt x="988" y="392" on="1"/>
        <pt x="988" y="285" on="0"/>
        <pt x="887" y="98" on="0"/>
        <pt x="681" y="-16" on="0"/>
        <pt x="533" y="-16" on="1"/>
        <pt x="415" y="-16" on="0"/>
        <pt x="205" y="69" on="0"/>
        <pt x="75" y="227" on="0"/>
        <pt x="73" y="331" on="1"/>
        <pt x="376" y="331" on="1"/>
        <pt x="378" y="275" on="0"/>
        <pt x="459" y="227" on="0"/>
        <pt x="533" y="227" on="1"/>
        <pt x="687" y="227" on="0"/>
        <pt x="687" y="393" on="1"/>
        <pt x="687" y="471" on="0"/>
        <pt x="596" y="560" on="0"/>
        <pt x="509" y="560" on="1"/>
        <pt x="464" y="560" on="0"/>
        <pt x="399" y="542" on="0"/>
        <pt x="365" y="523" on="0"/>
        <pt x="340" y="505" on="1"/>
        <pt x="100" y="564" on="1"/>
      </contour>
    </TTGlyph>
    <TTGlyph name="five.sup" xMin="67" yMin="-11" xMax="691" yMax="789">
      <contour>
        <pt x="139" y="789" on="1"/>
        <pt x="645" y="789" on="1"/>
        <pt x="645" y="624" on="1"/>
        <pt x="310" y="624" on="1"/>
        <pt x="290" y="493" on="1"/>
        <pt x="359" y="520" on="0"/>
        <pt x="420" y="520" on="1"/>
        <pt x="552" y="520" on="0"/>
        <pt x="691" y="389" on="0"/>
        <pt x="691" y="267" on="1"/>
        <pt x="691" y="194" on="0"/>
        <pt x="622" y="67" on="0"/>
        <pt x="481" y="-11" on="0"/>
        <pt x="380" y="-11" on="1"/>
        <pt x="300" y="-11" on="0"/>
        <pt x="156" y="48" on="0"/>
        <pt x="67" y="155" on="0"/>
        <pt x="67" y="225" on="1"/>
        <pt x="278" y="225" on="1"/>
        <pt x="279" y="189" on="0"/>
        <pt x="331" y="158" on="0"/>
        <pt x="380" y="158" on="1"/>
        <pt x="481" y="158" on="0"/>
        <pt x="481" y="267" on="1"/>
        <pt x="481" y="319" on="0"/>
        <pt x="422" y="377" on="0"/>
        <pt x="364" y="377" on="1"/>
        <pt x="321" y="377" on="0"/>
        <pt x="273" y="356" on="0"/>
        <pt x="252" y="340" on="1"/>
        <pt x="85" y="381" on="1"/>
      </contour>
    </TTGlyph>
    <TTGlyph name="four" xMin="57" yMin="0" xMax="1122" yMax="1456">
      <contour>
        <pt x="1122" y="313" on="1"/>
        <pt x="962" y="313" on="1"/>
        <pt x="962" y="0" on="1"/>
        <pt x="660" y="0" on="1"/>
        <pt x="660" y="313" on="1"/>
        <pt x="72" y="313" on="1"/>
        <pt x="57" y="504" on="1"/>
        <pt x="658" y="1456" on="1"/>
        <pt x="962" y="1456" on="1"/>
        <pt x="962" y="556" on="1"/>
        <pt x="1122" y="556" on="1"/>
      </contour>
      <contour>
        <pt x="660" y="556" on="1"/>
        <pt x="660" y="1047" on="1"/>
        <pt x="640" y="1012" on="1"/>
        <pt x="353" y="556" on="1"/>
      </contour>
    </TTGlyph>
    <TTGlyph name="four.frac" xMin="54" yMin="664" xMax="705" yMax="1453">
      <component glyphName=".ttfautohint" x="54" y="664" flags="0x0"/>
      <component glyphName="four.sup" x="0" y="664" flags="0x4"/>
    </TTGlyph>
    <TTGlyph name="four.smcp" xMin="53" yMin="0" xMax="1014" yMax="1165">
      <contour>
        <pt x="1014" y="236" on="1"/>
        <pt x="881" y="236" on="1"/>
        <pt x="881" y="0" on="1"/>
        <pt x="579" y="0" on="1"/>
        <pt x="579" y="236" on="1"/>
        <pt x="71" y="236" on="1"/>
        <pt x="53" y="435" on="1"/>
        <pt x="579" y="1164" on="1"/>
        <pt x="579" y="1165" on="1"/>
        <pt x="881" y="1165" on="1"/>
        <pt x="881" y="481" on="1"/>
        <pt x="1014" y="481" on="1"/>
      </contour>
      <contour>
        <pt x="579" y="481" on="1"/>
        <pt x="579" y="793" on="1"/>
        <pt x="560" y="763" on="1"/>
        <pt x="341" y="481" on="1"/>
      </contour>
    </TTGlyph>
    <TTGlyph name="four.sup" xMin="54" yMin="0" xMax="705" yMax="789">
      <contour>
        <pt x="705" y="159" on="1"/>
        <pt x="620" y="159" on="1"/>
        <pt x="620" y="0" on="1"/>
        <pt x="409" y="0" on="1"/>
        <pt x="409" y="159" on="1"/>
        <pt x="67" y="159" on="1"/>
        <pt x="54" y="298" on="1"/>
        <pt x="409" y="789" on="1"/>
        <pt x="620" y="789" on="1"/>
        <pt x="620" y="330" on="1"/>
        <pt x="705" y="330" on="1"/>
      </contour>
      <contour>
        <pt x="409" y="330" on="1"/>
        <pt x="409" y="534" on="1"/>
        <pt x="394" y="511" on="1"/>
        <pt x="254" y="330" on="1"/>
      </contour>
    </TTGlyph>
    <TTGlyph name="fraction" xMin="27" yMin="109" xMax="883" yMax="1324">
      <contour>
        <pt x="27" y="186" on="1"/>
        <pt x="738" y="1324" on="1"/>
        <pt x="883" y="1247" on="1"/>
        <pt x="172" y="109" on="1"/>
      </contour>
    </TTGlyph>
    <TTGlyph name="g" xMin="66" yMin="-426" xMax="1065" yMax="1102">
      <contour>
        <pt x="1065" y="1082" on="1"/>
        <pt x="1065" y="39" on="1"/>
        <pt x="1065" y="-107" on="0"/>
        <pt x="933" y="-317" on="0"/>
        <pt x="694" y="-426" on="0"/>
        <pt x="536" y="-426" on="1"/>
        <pt x="426" y="-426" on="0"/>
        <pt x="198" y="-339" on="0"/>
        <pt x="134" y="-260" on="1"/>
        <pt x="265" y="-75" on="1"/>
        <pt x="315" y="-130" on="0"/>
        <pt x="447" y="-192" on="0"/>
        <pt x="524" y="-192" on="1"/>
        <pt x="637" y="-192" on="0"/>
        <pt x="762" y="-71" on="0"/>
        <pt x="762" y="39" on="1"/>
        <pt x="762" y="93" on="1"/>
        <pt x="662" y="-20" on="0"/>
        <pt x="504" y="-20" on="1"/>
        <pt x="372" y="-20" on="0"/>
        <pt x="173" y="121" on="0"/>
        <pt x="66" y="371" on="0"/>
        <pt x="66" y="528" on="1"/>
        <pt x="66" y="549" on="1"/>
        <pt x="66" y="713" on="0"/>
        <pt x="173" y="963" on="0"/>
        <pt x="372" y="1102" on="0"/>
        <pt x="506" y="1102" on="1"/>
        <pt x="682" y="1102" on="0"/>
        <pt x="780" y="982" on="1"/>
        <pt x="791" y="1082" on="1"/>
      </contour>
      <contour>
        <pt x="707" y="224" on="0"/>
        <pt x="762" y="317" on="1"/>
        <pt x="762" y="766" on="1"/>
        <pt x="707" y="858" on="0"/>
        <pt x="582" y="858" on="1"/>
        <pt x="478" y="858" on="0"/>
        <pt x="367" y="686" on="0"/>
        <pt x="367" y="549" on="1"/>
        <pt x="367" y="528" on="1"/>
        <pt x="367" y="393" on="0"/>
        <pt x="475" y="224" on="0"/>
        <pt x="580" y="224" on="1"/>
      </contour>
    </TTGlyph>
    <TTGlyph name="g.alt" xMin="-9" yMin="-438" xMax="1056" yMax="1102">
      <contour>
        <pt x="850" y="231" on="0"/>
        <pt x="1052" y="72" on="0"/>
        <pt x="1052" y="-72" on="1"/>
        <pt x="1052" y="-159" on="0"/>
        <pt x="917" y="-329" on="0"/>
        <pt x="663" y="-438" on="0"/>
        <pt x="494" y="-438" on="1"/>
        <pt x="336" y="-438" on="0"/>
        <pt x="109" y="-363" on="0"/>
        <pt x="-9" y="-237" on="0"/>
        <pt x="-9" y="-162" on="1"/>
        <pt x="-9" y="-78" on="0"/>
        <pt x="100" y="48" on="0"/>
        <pt x="187" y="85" on="1"/>
        <pt x="142" y="135" on="0"/>
        <pt x="142" y="210" on="1"/>
        <pt x="142" y="321" on="0"/>
        <pt x="258" y="398" on="1"/>
        <pt x="157" y="447" on="0"/>
        <pt x="45" y="612" on="0"/>
        <pt x="45" y="712" on="1"/>
        <pt x="45" y="734" on="1"/>
        <pt x="45" y="843" on="0"/>
        <pt x="163" y="1010" on="0"/>
        <pt x="379" y="1102" on="0"/>
        <pt x="520" y="1102" on="1"/>
        <pt x="612" y="1102" on="0"/>
        <pt x="692" y="1082" on="1"/>
        <pt x="1054" y="1082" on="1"/>
        <pt x="1056" y="928" on="1"/>
        <pt x="936" y="928" on="1"/>
        <pt x="996" y="843" on="0"/>
        <pt x="996" y="734" on="1"/>
        <pt x="996" y="712" on="1"/>
        <pt x="996" y="609" on="0"/>
        <pt x="878" y="440" on="0"/>
        <pt x="662" y="342" on="0"/>
        <pt x="522" y="342" on="1"/>
        <pt x="443" y="342" on="0"/>
        <pt x="376" y="357" on="1"/>
        <pt x="355" y="333" on="0"/>
        <pt x="355" y="303" on="1"/>
        <pt x="355" y="261" on="0"/>
        <pt x="421" y="231" on="0"/>
        <pt x="482" y="231" on="1"/>
        <pt x="668" y="231" on="1"/>
      </contour>
      <contour>
        <pt x="345" y="712" on="1"/>
        <pt x="345" y="673" on="0"/>
        <pt x="388" y="608" on="0"/>
        <pt x="468" y="569" on="0"/>
        <pt x="522" y="569" on="1"/>
        <pt x="575" y="569" on="0"/>
        <pt x="654" y="608" on="0"/>
        <pt x="696" y="673" on="0"/>
        <pt x="696" y="712" on="1"/>
        <pt x="696" y="734" on="1"/>
        <pt x="696" y="795" on="0"/>
        <pt x="601" y="875" on="0"/>
        <pt x="520" y="875" on="1"/>
        <pt x="440" y="875" on="0"/>
        <pt x="345" y="795" on="0"/>
        <pt x="345" y="734" on="1"/>
      </contour>
      <contour>
        <pt x="580" y="-212" on="0"/>
        <pt x="696" y="-176" on="0"/>
        <pt x="752" y="-119" on="0"/>
        <pt x="752" y="-89" on="1"/>
        <pt x="752" y="-49" on="0"/>
        <pt x="690" y="5" on="0"/>
        <pt x="619" y="5" on="1"/>
        <pt x="426" y="5" on="1"/>
        <pt x="381" y="5" on="0"/>
        <pt x="333" y="13" on="1"/>
        <pt x="306" y="-3" on="0"/>
        <pt x="274" y="-56" on="0"/>
        <pt x="274" y="-89" on="1"/>
        <pt x="274" y="-142" on="0"/>
        <pt x="387" y="-212" on="0"/>
        <pt x="494" y="-212" on="1"/>
      </contour>
    </TTGlyph>
    <TTGlyph name="g.ss06" xMin="65" yMin="-426" xMax="1067" yMax="1102">
      <contour>
        <pt x="1067" y="1082" on="1"/>
        <pt x="1067" y="82" on="1"/>
        <pt x="1067" y="-79" on="0"/>
        <pt x="940" y="-308" on="0"/>
        <pt x="702" y="-426" on="0"/>
        <pt x="537" y="-426" on="1"/>
        <pt x="457" y="-426" on="0"/>
        <pt x="289" y="-392" on="0"/>
        <pt x="221" y="-356" on="1"/>
        <pt x="265" y="-140" on="1"/>
        <pt x="328" y="-166" on="0"/>
        <pt x="436" y="-192" on="0"/>
        <pt x="502" y="-192" on="1"/>
        <pt x="636" y="-192" on="0"/>
        <pt x="765" y="-57" on="0"/>
        <pt x="765" y="82" on="1"/>
        <pt x="765" y="94" on="1"/>
        <pt x="664" y="-20" on="0"/>
        <pt x="506" y="-20" on="1"/>
        <pt x="374" y="-20" on="0"/>
        <pt x="174" y="123" on="0"/>
        <pt x="65" y="374" on="0"/>
        <pt x="65" y="531" on="1"/>
        <pt x="65" y="552" on="1"/>
        <pt x="65" y="716" on="0"/>
        <pt x="173" y="965" on="0"/>
        <pt x="374" y="1102" on="0"/>
        <pt x="508" y="1102" on="1"/>
        <pt x="689" y="1102" on="0"/>
        <pt x="788" y="976" on="1"/>
        <pt x="804" y="1082" on="1"/>
      </contour>
      <contour>
        <pt x="709" y="224" on="0"/>
        <pt x="765" y="318" on="1"/>
        <pt x="765" y="767" on="1"/>
        <pt x="711" y="858" on="0"/>
        <pt x="585" y="858" on="1"/>
        <pt x="480" y="858" on="0"/>
        <pt x="367" y="689" on="0"/>
        <pt x="367" y="552" on="1"/>
        <pt x="367" y="531" on="1"/>
        <pt x="367" y="396" on="0"/>
        <pt x="478" y="224" on="0"/>
        <pt x="583" y="224" on="1"/>
      </contour>
    </TTGlyph>
    <TTGlyph name="g.ss07" xMin="63" yMin="-426" xMax="1045" yMax="1102">
      <contour>
        <pt x="1045" y="1082" on="1"/>
        <pt x="1045" y="79" on="1"/>
        <pt x="1045" y="-81" on="0"/>
        <pt x="918" y="-308" on="0"/>
        <pt x="680" y="-426" on="0"/>
        <pt x="515" y="-426" on="1"/>
        <pt x="437" y="-426" on="0"/>
        <pt x="272" y="-394" on="0"/>
        <pt x="206" y="-360" on="1"/>
        <pt x="250" y="-144" on="1"/>
        <pt x="313" y="-168" on="0"/>
        <pt x="416" y="-192" on="0"/>
        <pt x="480" y="-192" on="1"/>
        <pt x="615" y="-192" on="0"/>
        <pt x="743" y="-59" on="0"/>
        <pt x="743" y="79" on="1"/>
        <pt x="743" y="94" on="1"/>
        <pt x="642" y="-20" on="0"/>
        <pt x="484" y="-20" on="1"/>
        <pt x="352" y="-20" on="0"/>
        <pt x="162" y="122" on="0"/>
        <pt x="63" y="372" on="0"/>
        <pt x="63" y="531" on="1"/>
        <pt x="63" y="552" on="1"/>
        <pt x="63" y="717" on="0"/>
        <pt x="162" y="965" on="0"/>
        <pt x="352" y="1102" on="0"/>
        <pt x="486" y="1102" on="1"/>
        <pt x="581" y="1102" on="0"/>
        <pt x="718" y="1038" on="0"/>
        <pt x="766" y="976" on="1"/>
        <pt x="782" y="1082" on="1"/>
      </contour>
      <contour>
        <pt x="692" y="224" on="0"/>
        <pt x="743" y="328" on="1"/>
        <pt x="743" y="758" on="1"/>
        <pt x="694" y="858" on="0"/>
        <pt x="563" y="858" on="1"/>
        <pt x="460" y="858" on="0"/>
        <pt x="365" y="693" on="0"/>
        <pt x="365" y="552" on="1"/>
        <pt x="365" y="531" on="1"/>
        <pt x="365" y="392" on="0"/>
        <pt x="458" y="224" on="0"/>
        <pt x="561" y="224" on="1"/>
      </contour>
    </TTGlyph>
    <TTGlyph name="germandbls" xMin="135" yMin="-20" xMax="1237" yMax="1560">
      <contour>
        <pt x="135" y="0" on="1"/>
        <pt x="135" y="1101" on="1"/>
        <pt x="135" y="1250" on="0"/>
        <pt x="252" y="1456" on="0"/>
        <pt x="469" y="1560" on="0"/>
        <pt x="620" y="1560" on="1"/>
        <pt x="740" y="1560" on="0"/>
        <pt x="933" y="1474" on="0"/>
        <pt x="1047" y="1305" on="0"/>
        <pt x="1047" y="1186" on="1"/>
        <pt x="1047" y="1118" on="0"/>
        <pt x="1019" y="1036" on="0"/>
        <pt x="991" y="989" on="1"/>
        <pt x="967" y="950" on="0"/>
        <pt x="943" y="883" on="0"/>
        <pt x="943" y="832" on="1"/>
        <pt x="943" y="796" on="0"/>
        <pt x="997" y="728" on="0"/>
        <pt x="1054" y="676" on="1"/>
        <pt x="1112" y="621" on="0"/>
        <pt x="1184" y="540" on="0"/>
        <pt x="1237" y="428" on="0"/>
        <pt x="1237" y="360" on="1"/>
        <pt x="1237" y="241" on="0"/>
        <pt x="1132" y="70" on="0"/>
        <pt x="929" y="-20" on="0"/>
        <pt x="784" y="-20" on="1"/>
        <pt x="706" y="-20" on="0"/>
        <pt x="548" y="10" on="0"/>
        <pt x="507" y="34" on="1"/>
        <pt x="563" y="273" on="1"/>
        <pt x="600" y="253" on="0"/>
        <pt x="713" y="223" on="0"/>
        <pt x="779" y="223" on="1"/>
        <pt x="853" y="223" on="0"/>
        <pt x="936" y="294" on="0"/>
        <pt x="936" y="356" on="1"/>
        <pt x="936" y="389" on="0"/>
        <pt x="904" y="447" on="0"/>
        <pt x="856" y="494" on="0"/>
        <pt x="814" y="529" on="1"/>
        <pt x="759" y="575" on="0"/>
        <pt x="690" y="647" on="0"/>
        <pt x="641" y="751" on="0"/>
        <pt x="641" y="818" on="1"/>
        <pt x="641" y="880" on="0"/>
        <pt x="669" y="960" on="0"/>
        <pt x="697" y="1010" on="1"/>
        <pt x="722" y="1054" on="0"/>
        <pt x="747" y="1122" on="0"/>
        <pt x="747" y="1172" on="1"/>
        <pt x="747" y="1237" on="0"/>
        <pt x="661" y="1318" on="0"/>
        <pt x="595" y="1318" on="1"/>
        <pt x="518" y="1318" on="0"/>
        <pt x="437" y="1216" on="0"/>
        <pt x="437" y="1096" on="1"/>
        <pt x="437" y="0" on="1"/>
      </contour>
    </TTGlyph>
    <TTGlyph name="grave" xMin="53" yMin="1225" xMax="577" yMax="1536">
      <contour>
        <pt x="330" y="1225" on="1"/>
        <pt x="53" y="1536" on="1"/>
        <pt x="379" y="1536" on="1"/>
        <pt x="577" y="1225" on="1"/>
      </contour>
    </TTGlyph>
    <TTGlyph name="gravecomb" xMin="-900" yMin="1225" xMax="-376" yMax="1536">
      <contour>
        <pt x="-623" y="1225" on="1"/>
        <pt x="-900" y="1536" on="1"/>
        <pt x="-574" y="1536" on="1"/>
        <pt x="-376" y="1225" on="1"/>
      </contour>
    </TTGlyph>
    <TTGlyph name="greater" xMin="118" yMin="129" xMax="991" yMax="1103">
      <contour>
        <pt x="991" y="740" on="1"/>
        <pt x="991" y="493" on="1"/>
        <pt x="118" y="129" on="1"/>
        <pt x="118" y="418" on="1"/>
        <pt x="689" y="619" on="1"/>
        <pt x="118" y="814" on="1"/>
        <pt x="118" y="1103" on="1"/>
      </contour>
    </TTGlyph>
    <TTGlyph name="guillemotleft" xMin="73" yMin="122" xMax="936" yMax="921">
      <component glyphName=".ttfautohint" x="73" y="122" flags="0x0"/>
      <component glyphName="guilsinglleft" x="-35" y="0" flags="0x0"/>
      <component glyphName="guilsinglleft" x="358" y="0" flags="0x0"/>
    </TTGlyph>
    <TTGlyph name="guillemotright" xMin="84" yMin="121" xMax="952" yMax="920">
      <component glyphName=".ttfautohint" x="84" y="121" flags="0x0"/>
      <component glyphName="guilsinglright" x="4" y="0" flags="0x0"/>
      <component glyphName="guilsinglright" x="402" y="0" flags="0x0"/>
    </TTGlyph>
    <TTGlyph name="guilsinglleft" xMin="108" yMin="122" xMax="578" yMax="921">
      <contour>
        <pt x="341" y="522" on="1"/>
        <pt x="578" y="122" on="1"/>
        <pt x="386" y="122" on="1"/>
        <pt x="108" y="512" on="1"/>
        <pt x="108" y="531" on="1"/>
        <pt x="386" y="921" on="1"/>
        <pt x="578" y="921" on="1"/>
      </contour>
    </TTGlyph>
    <TTGlyph name="guilsinglright" xMin="80" yMin="121" xMax="550" yMax="920">
      <contour>
        <pt x="550" y="530" on="1"/>
        <pt x="550" y="511" on="1"/>
        <pt x="271" y="121" on="1"/>
        <pt x="80" y="121" on="1"/>
        <pt x="317" y="521" on="1"/>
        <pt x="80" y="920" on="1"/>
        <pt x="271" y="920" on="1"/>
      </contour>
    </TTGlyph>
    <TTGlyph name="h" xMin="100" yMin="0" xMax="1046" yMax="1536">
      <contour>
        <pt x="857" y="1102" on="0"/>
        <pt x="1046" y="900" on="0"/>
        <pt x="1046" y="678" on="1"/>
        <pt x="1046" y="0" on="1"/>
        <pt x="744" y="0" on="1"/>
        <pt x="744" y="680" on="1"/>
        <pt x="744" y="778" on="0"/>
        <pt x="661" y="858" on="0"/>
        <pt x="576" y="858" on="1"/>
        <pt x="455" y="858" on="0"/>
        <pt x="402" y="770" on="1"/>
        <pt x="402" y="0" on="1"/>
        <pt x="100" y="0" on="1"/>
        <pt x="100" y="1536" on="1"/>
        <pt x="402" y="1536" on="1"/>
        <pt x="402" y="966" on="1"/>
        <pt x="455" y="1031" on="0"/>
        <pt x="600" y="1102" on="0"/>
        <pt x="687" y="1102" on="1"/>
      </contour>
    </TTGlyph>
    <TTGlyph name="hyphen" xMin="122" yMin="503" xMax="694" yMax="748">
      <contour>
        <pt x="122" y="503" on="1"/>
        <pt x="122" y="748" on="1"/>
        <pt x="694" y="748" on="1"/>
        <pt x="694" y="503" on="1"/>
      </contour>
    </TTGlyph>
    <TTGlyph name="i" xMin="105" yMin="0" xMax="442" yMax="1517">
      <contour>
        <pt x="349" y="1517" on="0"/>
        <pt x="442" y="1430" on="0"/>
        <pt x="442" y="1362" on="1"/>
        <pt x="442" y="1294" on="0"/>
        <pt x="349" y="1207" on="0"/>
        <pt x="273" y="1207" on="1"/>
        <pt x="198" y="1207" on="0"/>
        <pt x="105" y="1294" on="0"/>
        <pt x="105" y="1362" on="1"/>
        <pt x="105" y="1430" on="0"/>
        <pt x="198" y="1517" on="0"/>
        <pt x="273" y="1517" on="1"/>
      </contour>
      <contour>
        <pt x="123" y="0" on="1"/>
        <pt x="123" y="1082" on="1"/>
        <pt x="426" y="1082" on="1"/>
        <pt x="426" y="0" on="1"/>
      </contour>
    </TTGlyph>
    <TTGlyph name="iacute" xMin="131" yMin="0" xMax="657" yMax="1519">
      <component glyphName=".ttfautohint" x="131" y="0" flags="0x0"/>
      <component glyphName="dotlessi" x="0" y="0" flags="0x0"/>
      <component glyphName="acutecomb" x="819" y="-17" flags="0x4"/>
    </TTGlyph>
    <TTGlyph name="icircumflex" xMin="-106" yMin="0" xMax="678" yMax="1519">
      <component glyphName=".ttfautohint" x="0" y="0" flags="0x0"/>
      <component glyphName="dotlessi" x="0" y="0" flags="0x0"/>
      <component glyphName="circumflex" x="-223" y="-17" flags="0x4"/>
    </TTGlyph>
    <TTGlyph name="idieresis" xMin="-106" yMin="0" xMax="673" yMax="1478">
      <component glyphName=".ttfautohint" x="0" y="0" flags="0x0"/>
      <component glyphName="dotlessi" x="0" y="0" flags="0x0"/>
      <component glyphName="dieresis" x="-201" y="-17" flags="0x4"/>
    </TTGlyph>
    <TTGlyph name="igrave" xMin="-73" yMin="0" xMax="451" yMax="1519">
      <component glyphName=".ttfautohint" x="0" y="0" flags="0x0"/>
      <component glyphName="dotlessi" x="0" y="0" flags="0x0"/>
      <component glyphName="gravecomb" x="827" y="-17" flags="0x4"/>
    </TTGlyph>
    <TTGlyph name="j" xMin="-101" yMin="-437" xMax="439" yMax="1517">
      <contour>
        <pt x="346" y="1517" on="0"/>
        <pt x="439" y="1430" on="0"/>
        <pt x="439" y="1362" on="1"/>
        <pt x="439" y="1294" on="0"/>
        <pt x="346" y="1207" on="0"/>
        <pt x="271" y="1207" on="1"/>
        <pt x="195" y="1207" on="0"/>
        <pt x="102" y="1294" on="0"/>
        <pt x="102" y="1362" on="1"/>
        <pt x="102" y="1430" on="0"/>
        <pt x="195" y="1517" on="0"/>
        <pt x="271" y="1517" on="1"/>
      </contour>
      <contour>
        <pt x="428" y="-51" on="1"/>
        <pt x="428" y="-237" on="0"/>
        <pt x="228" y="-437" on="0"/>
        <pt x="47" y="-437" on="1"/>
        <pt x="-34" y="-437" on="0"/>
        <pt x="-101" y="-420" on="1"/>
        <pt x="-101" y="-181" on="1"/>
        <pt x="-53" y="-190" on="0"/>
        <pt x="-9" y="-190" on="1"/>
        <pt x="125" y="-190" on="0"/>
        <pt x="125" y="-51" on="1"/>
        <pt x="125" y="1082" on="1"/>
        <pt x="428" y="1082" on="1"/>
      </contour>
    </TTGlyph>
    <TTGlyph name="k" xMin="108" yMin="0" xMax="1124" yMax="1537">
      <contour>
        <pt x="511" y="426" on="1"/>
        <pt x="410" y="325" on="1"/>
        <pt x="410" y="0" on="1"/>
        <pt x="108" y="0" on="1"/>
        <pt x="108" y="1537" on="1"/>
        <pt x="410" y="1537" on="1"/>
        <pt x="410" y="696" on="1"/>
        <pt x="460" y="761" on="1"/>
        <pt x="731" y="1082" on="1"/>
        <pt x="1093" y="1082" on="1"/>
        <pt x="705" y="633" on="1"/>
        <pt x="1124" y="0" on="1"/>
        <pt x="778" y="0" on="1"/>
      </contour>
    </TTGlyph>
    <TTGlyph name="k.alt" xMin="109" yMin="0" xMax="1109" yMax="1536">
      <contour>
        <pt x="496" y="441" on="1"/>
        <pt x="411" y="441" on="1"/>
        <pt x="411" y="0" on="1"/>
        <pt x="109" y="0" on="1"/>
        <pt x="109" y="1536" on="1"/>
        <pt x="411" y="1536" on="1"/>
        <pt x="411" y="681" on="1"/>
        <pt x="485" y="681" on="1"/>
        <pt x="724" y="1082" on="1"/>
        <pt x="1073" y="1082" on="1"/>
        <pt x="737" y="587" on="1"/>
        <pt x="1109" y="0" on="1"/>
        <pt x="762" y="0" on="1"/>
      </contour>
    </TTGlyph>
    <TTGlyph name="k.alt2" xMin="109" yMin="0" xMax="1104" yMax="1560">
      <contour>
        <pt x="747" y="0" on="1"/>
        <pt x="411" y="468" on="1"/>
        <pt x="411" y="0" on="1"/>
        <pt x="109" y="0" on="1"/>
        <pt x="109" y="1560" on="1"/>
        <pt x="411" y="1560" on="1"/>
        <pt x="411" y="681" on="1"/>
        <pt x="709" y="1082" on="1"/>
        <pt x="1061" y="1082" on="1"/>
        <pt x="670" y="578" on="1"/>
        <pt x="1104" y="0" on="1"/>
      </contour>
    </TTGlyph>
    <TTGlyph name="l" xMin="123" yMin="0" xMax="426" yMax="1536">
      <contour>
        <pt x="123" y="0" on="1"/>
        <pt x="123" y="1536" on="1"/>
        <pt x="426" y="1536" on="1"/>
        <pt x="426" y="0" on="1"/>
      </contour>
    </TTGlyph>
    <TTGlyph name="less" xMin="53" yMin="130" xMax="920" yMax="1104">
      <contour>
        <pt x="920" y="814" on="1"/>
        <pt x="356" y="616" on="1"/>
        <pt x="920" y="421" on="1"/>
        <pt x="920" y="130" on="1"/>
        <pt x="53" y="493" on="1"/>
        <pt x="53" y="741" on="1"/>
        <pt x="920" y="1104" on="1"/>
      </contour>
    </TTGlyph>
    <TTGlyph name="logicalnot" xMin="126" yMin="374" xMax="961" yMax="805">
      <contour>
        <pt x="961" y="805" on="1"/>
        <pt x="961" y="374" on="1"/>
        <pt x="761" y="374" on="1"/>
        <pt x="761" y="634" on="1"/>
        <pt x="126" y="634" on="1"/>
        <pt x="126" y="805" on="1"/>
      </contour>
    </TTGlyph>
    <TTGlyph name="longs" xMin="112" yMin="0" xMax="679" yMax="1557">
      <contour>
        <pt x="112" y="1174" on="1"/>
        <pt x="112" y="1359" on="0"/>
        <pt x="325" y="1557" on="0"/>
        <pt x="517" y="1557" on="1"/>
        <pt x="583" y="1557" on="0"/>
        <pt x="679" y="1536" on="1"/>
        <pt x="655" y="1304" on="1"/>
        <pt x="605" y="1314" on="0"/>
        <pt x="557" y="1314" on="1"/>
        <pt x="488" y="1314" on="0"/>
        <pt x="413" y="1241" on="0"/>
        <pt x="413" y="1174" on="1"/>
        <pt x="413" y="0" on="1"/>
        <pt x="112" y="0" on="1"/>
      </contour>
    </TTGlyph>
    <TTGlyph name="longst" xMin="25" yMin="-20" xMax="1295" yMax="1557">
      <contour>
        <pt x="1260" y="228" on="0"/>
        <pt x="1295" y="235" on="1"/>
        <pt x="1295" y="8" on="1"/>
        <pt x="1217" y="-20" on="0"/>
        <pt x="1117" y="-20" on="1"/>
        <pt x="799" y="-20" on="0"/>
        <pt x="799" y="304" on="1"/>
        <pt x="799" y="862" on="1"/>
        <pt x="646" y="862" on="1"/>
        <pt x="646" y="1082" on="1"/>
        <pt x="799" y="1082" on="1"/>
        <pt x="799" y="1243" on="1"/>
        <pt x="798" y="1243" on="1"/>
        <pt x="798" y="1287" on="1"/>
        <pt x="776" y="1297" on="0"/>
        <pt x="683" y="1314" on="0"/>
        <pt x="630" y="1314" on="1"/>
        <pt x="561" y="1314" on="0"/>
        <pt x="487" y="1241" on="0"/>
        <pt x="487" y="1174" on="1"/>
        <pt x="487" y="0" on="1"/>
        <pt x="185" y="0" on="1"/>
        <pt x="185" y="862" on="1"/>
        <pt x="25" y="862" on="1"/>
        <pt x="25" y="1082" on="1"/>
        <pt x="185" y="1082" on="1"/>
        <pt x="185" y="1174" on="1"/>
        <pt x="185" y="1359" on="0"/>
        <pt x="398" y="1557" on="0"/>
        <pt x="591" y="1557" on="1"/>
        <pt x="723" y="1557" on="0"/>
        <pt x="969" y="1498" on="0"/>
        <pt x="1100" y="1450" on="1"/>
        <pt x="1100" y="1350" on="1"/>
        <pt x="1101" y="1350" on="1"/>
        <pt x="1101" y="1082" on="1"/>
        <pt x="1283" y="1082" on="1"/>
        <pt x="1283" y="862" on="1"/>
        <pt x="1101" y="862" on="1"/>
        <pt x="1101" y="339" on="1"/>
        <pt x="1101" y="275" on="0"/>
        <pt x="1151" y="228" on="0"/>
        <pt x="1211" y="228" on="1"/>
      </contour>
    </TTGlyph>
    <TTGlyph name="m" xMin="108" yMin="0" xMax="1663" yMax="1102">
      <contour>
        <pt x="1483" y="1102" on="0"/>
        <pt x="1663" y="906" on="0"/>
        <pt x="1663" y="686" on="1"/>
        <pt x="1663" y="0" on="1"/>
        <pt x="1361" y="0" on="1"/>
        <pt x="1361" y="687" on="1"/>
        <pt x="1361" y="755" on="0"/>
        <pt x="1325" y="830" on="0"/>
        <pt x="1258" y="858" on="0"/>
        <pt x="1207" y="858" on="1"/>
        <pt x="1146" y="858" on="0"/>
        <pt x="1060" y="799" on="0"/>
        <pt x="1036" y="746" on="1"/>
        <pt x="1036" y="722" on="1"/>
        <pt x="1036" y="0" on="1"/>
        <pt x="734" y="0" on="1"/>
        <pt x="734" y="684" on="1"/>
        <pt x="734" y="752" on="0"/>
        <pt x="698" y="828" on="0"/>
        <pt x="631" y="858" on="0"/>
        <pt x="579" y="858" on="1"/>
        <pt x="521" y="858" on="0"/>
        <pt x="436" y="807" on="0"/>
        <pt x="410" y="761" on="1"/>
        <pt x="410" y="0" on="1"/>
        <pt x="108" y="0" on="1"/>
        <pt x="108" y="1082" on="1"/>
        <pt x="391" y="1082" on="1"/>
        <pt x="401" y="961" on="1"/>
        <pt x="455" y="1029" on="0"/>
        <pt x="612" y="1102" on="0"/>
        <pt x="711" y="1102" on="1"/>
        <pt x="811" y="1102" on="0"/>
        <pt x="956" y="1021" on="0"/>
        <pt x="995" y="938" on="1"/>
        <pt x="1049" y="1017" on="0"/>
        <pt x="1212" y="1102" on="0"/>
        <pt x="1318" y="1102" on="1"/>
      </contour>
    </TTGlyph>
    <TTGlyph name="macron" xMin="172" yMin="1287" xMax="863" yMax="1456">
      <contour>
        <pt x="172" y="1287" on="1"/>
        <pt x="172" y="1456" on="1"/>
        <pt x="863" y="1456" on="1"/>
        <pt x="863" y="1287" on="1"/>
      </contour>
    </TTGlyph>
    <TTGlyph name="minus" xMin="144" yMin="589" xMax="1012" yMax="836">
      <contour>
        <pt x="144" y="589" on="1"/>
        <pt x="144" y="836" on="1"/>
        <pt x="1012" y="836" on="1"/>
        <pt x="1012" y="589" on="1"/>
      </contour>
    </TTGlyph>
    <TTGlyph name="multiply" xMin="62" yMin="202" xMax="1018" yMax="1171">
      <contour>
        <pt x="714" y="687" on="1"/>
        <pt x="1018" y="377" on="1"/>
        <pt x="841" y="202" on="1"/>
        <pt x="540" y="509" on="1"/>
        <pt x="239" y="202" on="1"/>
        <pt x="62" y="377" on="1"/>
        <pt x="366" y="687" on="1"/>
        <pt x="62" y="996" on="1"/>
        <pt x="239" y="1171" on="1"/>
        <pt x="540" y="864" on="1"/>
        <pt x="841" y="1171" on="1"/>
        <pt x="1018" y="996" on="1"/>
      </contour>
    </TTGlyph>
    <TTGlyph name="n" xMin="101" yMin="0" xMax="1046" yMax="1102">
      <contour>
        <pt x="868" y="1102" on="0"/>
        <pt x="1046" y="907" on="0"/>
        <pt x="1046" y="686" on="1"/>
        <pt x="1046" y="0" on="1"/>
        <pt x="744" y="0" on="1"/>
        <pt x="744" y="687" on="1"/>
        <pt x="744" y="783" on="0"/>
        <pt x="662" y="858" on="0"/>
        <pt x="576" y="858" on="1"/>
        <pt x="517" y="858" on="0"/>
        <pt x="430" y="808" on="0"/>
        <pt x="403" y="762" on="1"/>
        <pt x="403" y="0" on="1"/>
        <pt x="101" y="0" on="1"/>
        <pt x="101" y="1082" on="1"/>
        <pt x="384" y="1082" on="1"/>
        <pt x="394" y="957" on="1"/>
        <pt x="451" y="1028" on="0"/>
        <pt x="609" y="1102" on="0"/>
        <pt x="705" y="1102" on="1"/>
      </contour>
    </TTGlyph>
    <TTGlyph name="nine" xMin="85" yMin="-17" xMax="1076" yMax="1477">
      <contour>
        <pt x="725" y="1477" on="0"/>
        <pt x="951" y="1332" on="0"/>
        <pt x="1076" y="1062" on="0"/>
        <pt x="1076" y="882" on="1"/>
        <pt x="1076" y="775" on="1"/>
        <pt x="1076" y="529" on="0"/>
        <pt x="901" y="173" on="0"/>
        <pt x="565" y="-17" on="0"/>
        <pt x="327" y="-17" on="1"/>
        <pt x="304" y="-17" on="1"/>
        <pt x="304" y="236" on="1"/>
        <pt x="323" y="236" on="1"/>
        <pt x="532" y="236" on="0"/>
        <pt x="752" y="404" on="0"/>
        <pt x="770" y="576" on="1"/>
        <pt x="717" y="526" on="0"/>
        <pt x="584" y="469" on="0"/>
        <pt x="511" y="469" on="1"/>
        <pt x="378" y="469" on="0"/>
        <pt x="186" y="594" on="0"/>
        <pt x="85" y="816" on="0"/>
        <pt x="85" y="960" on="1"/>
        <pt x="85" y="1102" on="0"/>
        <pt x="209" y="1338" on="0"/>
        <pt x="433" y="1477" on="0"/>
        <pt x="578" y="1477" on="1"/>
      </contour>
      <contour>
        <pt x="651" y="699" on="0"/>
        <pt x="748" y="763" on="0"/>
        <pt x="774" y="814" on="1"/>
        <pt x="774" y="938" on="1"/>
        <pt x="774" y="1082" on="0"/>
        <pt x="666" y="1233" on="0"/>
        <pt x="577" y="1233" on="1"/>
        <pt x="519" y="1233" on="0"/>
        <pt x="432" y="1156" on="0"/>
        <pt x="386" y="1032" on="0"/>
        <pt x="386" y="962" on="1"/>
        <pt x="386" y="847" on="0"/>
        <pt x="490" y="699" on="0"/>
        <pt x="587" y="699" on="1"/>
      </contour>
    </TTGlyph>
    <TTGlyph name="nine.frac" xMin="67" yMin="651" xMax="689" yMax="1465">
      <component glyphName=".ttfautohint" x="67" y="651" flags="0x0"/>
      <component glyphName="nine.sup" x="0" y="664" flags="0x4"/>
    </TTGlyph>
    <TTGlyph name="nine.smcp" xMin="71" yMin="-18" xMax="984" yMax="1182">
      <contour>
        <pt x="659" y="1182" on="0"/>
        <pt x="864" y="1081" on="0"/>
        <pt x="984" y="866" on="0"/>
        <pt x="984" y="703" on="1"/>
        <pt x="984" y="623" on="1"/>
        <pt x="984" y="276" on="0"/>
        <pt x="627" y="-18" on="0"/>
        <pt x="312" y="-18" on="1"/>
        <pt x="289" y="-18" on="1"/>
        <pt x="289" y="223" on="1"/>
        <pt x="308" y="223" on="1"/>
        <pt x="422" y="223" on="0"/>
        <pt x="570" y="258" on="0"/>
        <pt x="664" y="356" on="0"/>
        <pt x="677" y="449" on="1"/>
        <pt x="631" y="412" on="0"/>
        <pt x="518" y="371" on="0"/>
        <pt x="458" y="371" on="1"/>
        <pt x="275" y="371" on="0"/>
        <pt x="71" y="569" on="0"/>
        <pt x="71" y="759" on="1"/>
        <pt x="71" y="873" on="0"/>
        <pt x="188" y="1068" on="0"/>
        <pt x="397" y="1182" on="0"/>
        <pt x="527" y="1182" on="1"/>
      </contour>
      <contour>
        <pt x="589" y="595" on="0"/>
        <pt x="662" y="628" on="0"/>
        <pt x="682" y="653" on="1"/>
        <pt x="682" y="765" on="1"/>
        <pt x="682" y="855" on="0"/>
        <pt x="602" y="938" on="0"/>
        <pt x="527" y="938" on="1"/>
        <pt x="457" y="938" on="0"/>
        <pt x="373" y="833" on="0"/>
        <pt x="373" y="755" on="1"/>
        <pt x="373" y="677" on="0"/>
        <pt x="457" y="595" on="0"/>
        <pt x="539" y="595" on="1"/>
      </contour>
    </TTGlyph>
    <TTGlyph name="nine.sup" xMin="67" yMin="-13" xMax="689" yMax="801">
      <contour>
        <pt x="516" y="801" on="0"/>
        <pt x="689" y="642" on="0"/>
        <pt x="689" y="476" on="1"/>
        <pt x="689" y="421" on="1"/>
        <pt x="689" y="183" on="0"/>
        <pt x="444" y="-13" on="0"/>
        <pt x="232" y="-13" on="1"/>
        <pt x="217" y="-13" on="1"/>
        <pt x="217" y="155" on="1"/>
        <pt x="230" y="155" on="1"/>
        <pt x="307" y="155" on="0"/>
        <pt x="404" y="176" on="0"/>
        <pt x="467" y="240" on="0"/>
        <pt x="476" y="303" on="1"/>
        <pt x="445" y="279" on="0"/>
        <pt x="370" y="251" on="0"/>
        <pt x="330" y="251" on="1"/>
        <pt x="206" y="251" on="0"/>
        <pt x="67" y="383" on="0"/>
        <pt x="67" y="513" on="1"/>
        <pt x="67" y="591" on="0"/>
        <pt x="148" y="723" on="0"/>
        <pt x="290" y="801" on="0"/>
        <pt x="378" y="801" on="1"/>
      </contour>
      <contour>
        <pt x="420" y="406" on="0"/>
        <pt x="466" y="427" on="0"/>
        <pt x="480" y="442" on="1"/>
        <pt x="480" y="520" on="1"/>
        <pt x="480" y="579" on="0"/>
        <pt x="428" y="632" on="0"/>
        <pt x="378" y="632" on="1"/>
        <pt x="333" y="632" on="0"/>
        <pt x="278" y="561" on="0"/>
        <pt x="278" y="510" on="1"/>
        <pt x="278" y="459" on="0"/>
        <pt x="333" y="406" on="0"/>
        <pt x="388" y="406" on="1"/>
      </contour>
    </TTGlyph>
    <TTGlyph name="ntilde" xMin="101" yMin="0" xMax="1046" yMax="1535">
      <component glyphName=".ttfautohint" x="101" y="0" flags="0x0"/>
      <component glyphName="n" x="0" y="0" flags="0x0"/>
      <component glyphName="tilde" x="81" y="-4" flags="0x4"/>
    </TTGlyph>
    <TTGlyph name="numbersign" xMin="55" yMin="0" xMax="1171" yMax="1456">
      <contour>
        <pt x="918" y="863" on="1"/>
        <pt x="871" y="587" on="1"/>
        <pt x="1096" y="587" on="1"/>
        <pt x="1096" y="410" on="1"/>
        <pt x="840" y="410" on="1"/>
        <pt x="769" y="0" on="1"/>
        <pt x="582" y="0" on="1"/>
        <pt x="653" y="410" on="1"/>
        <pt x="469" y="410" on="1"/>
        <pt x="398" y="0" on="1"/>
        <pt x="210" y="0" on="1"/>
        <pt x="281" y="410" on="1"/>
        <pt x="55" y="410" on="1"/>
        <pt x="55" y="587" on="1"/>
        <pt x="312" y="587" on="1"/>
        <pt x="359" y="863" on="1"/>
        <pt x="131" y="863" on="1"/>
        <pt x="131" y="1040" on="1"/>
        <pt x="390" y="1040" on="1"/>
        <pt x="462" y="1456" on="1"/>
        <pt x="649" y="1456" on="1"/>
        <pt x="577" y="1040" on="1"/>
        <pt x="762" y="1040" on="1"/>
        <pt x="834" y="1456" on="1"/>
        <pt x="1021" y="1456" on="1"/>
        <pt x="949" y="1040" on="1"/>
        <pt x="1171" y="1040" on="1"/>
        <pt x="1171" y="863" on="1"/>
      </contour>
      <contour>
        <pt x="731" y="863" on="1"/>
        <pt x="547" y="863" on="1"/>
        <pt x="499" y="587" on="1"/>
        <pt x="684" y="587" on="1"/>
      </contour>
    </TTGlyph>
    <TTGlyph name="o" xMin="63" yMin="-20" xMax="1093" yMax="1102">
      <contour>
        <pt x="63" y="710" on="0"/>
        <pt x="184" y="960" on="0"/>
        <pt x="416" y="1102" on="0"/>
        <pt x="577" y="1102" on="1"/>
        <pt x="739" y="1102" on="0"/>
        <pt x="972" y="960" on="0"/>
        <pt x="1093" y="710" on="0"/>
        <pt x="1093" y="551" on="1"/>
        <pt x="1093" y="530" on="1"/>
        <pt x="1093" y="371" on="0"/>
        <pt x="972" y="122" on="0"/>
        <pt x="740" y="-20" on="0"/>
        <pt x="579" y="-20" on="1"/>
        <pt x="417" y="-20" on="0"/>
        <pt x="184" y="122" on="0"/>
        <pt x="63" y="371" on="0"/>
        <pt x="63" y="530" on="1"/>
        <pt x="63" y="551" on="1"/>
      </contour>
      <contour>
        <pt x="365" y="390" on="0"/>
        <pt x="467" y="223" on="0"/>
        <pt x="579" y="223" on="1"/>
        <pt x="689" y="223" on="0"/>
        <pt x="791" y="391" on="0"/>
        <pt x="791" y="530" on="1"/>
        <pt x="791" y="551" on="1"/>
        <pt x="791" y="689" on="0"/>
        <pt x="689" y="859" on="0"/>
        <pt x="577" y="859" on="1"/>
        <pt x="467" y="859" on="0"/>
        <pt x="365" y="688" on="0"/>
        <pt x="365" y="551" on="1"/>
        <pt x="365" y="530" on="1"/>
      </contour>
    </TTGlyph>
    <TTGlyph name="o.ss06" xMin="57" yMin="-20" xMax="1123" yMax="1102">
      <contour>
        <pt x="57" y="709" on="0"/>
        <pt x="187" y="960" on="0"/>
        <pt x="428" y="1102" on="0"/>
        <pt x="589" y="1102" on="1"/>
        <pt x="751" y="1102" on="0"/>
        <pt x="993" y="960" on="0"/>
        <pt x="1123" y="709" on="0"/>
        <pt x="1123" y="551" on="1"/>
        <pt x="1123" y="530" on="1"/>
        <pt x="1123" y="372" on="0"/>
        <pt x="994" y="122" on="0"/>
        <pt x="753" y="-20" on="0"/>
        <pt x="591" y="-20" on="1"/>
        <pt x="429" y="-20" on="0"/>
        <pt x="187" y="122" on="0"/>
        <pt x="57" y="372" on="0"/>
        <pt x="57" y="530" on="1"/>
        <pt x="57" y="551" on="1"/>
      </contour>
      <contour>
        <pt x="358" y="394" on="0"/>
        <pt x="477" y="223" on="0"/>
        <pt x="591" y="223" on="1"/>
        <pt x="666" y="223" on="0"/>
        <pt x="770" y="303" on="0"/>
        <pt x="822" y="442" on="0"/>
        <pt x="822" y="530" on="1"/>
        <pt x="822" y="551" on="1"/>
        <pt x="822" y="637" on="0"/>
        <pt x="770" y="777" on="0"/>
        <pt x="666" y="859" on="0"/>
        <pt x="589" y="859" on="1"/>
        <pt x="514" y="859" on="0"/>
        <pt x="410" y="777" on="0"/>
        <pt x="358" y="637" on="0"/>
        <pt x="358" y="551" on="1"/>
        <pt x="358" y="530" on="1"/>
      </contour>
    </TTGlyph>
    <TTGlyph name="oacute" xMin="63" yMin="-20" xMax="1093" yMax="1536">
      <component glyphName=".ttfautohint" x="63" y="0" flags="0x0"/>
      <component glyphName="o" x="0" y="0" flags="0x0"/>
      <component glyphName="acutecomb" x="1111" y="0" flags="0x0"/>
    </TTGlyph>
    <TTGlyph name="ocircumflex" xMin="63" yMin="-20" xMax="1093" yMax="1536">
      <component glyphName=".ttfautohint" x="63" y="0" flags="0x0"/>
      <component glyphName="o" x="0" y="0" flags="0x0"/>
      <component glyphName="circumflex" x="70" y="0" flags="0x0"/>
    </TTGlyph>
    <TTGlyph name="odieresis" xMin="63" yMin="-20" xMax="1093" yMax="1495">
      <component glyphName=".ttfautohint" x="63" y="0" flags="0x0"/>
      <component glyphName="o" x="0" y="0" flags="0x0"/>
      <component glyphName="dieresis" x="91" y="0" flags="0x0"/>
    </TTGlyph>
</ttFont>
